{
.appVersion = "856";
classes = (
{
code = "";
name = DevaIMatras;
}
);
copyright = "Copyright 2011 The Lemonada Project Authors (gaber@gaberism.net)";
customParameters = (
{
name = licenseURL;
value = "http://scripts.sil.org/OFL";
},
{
name = license;
value = "This Font Software is licensed under the SIL Open Font License, Version 1.1. This license is available with a FAQ at: http://scripts.sil.org/OFL";
},
{
name = vendorID;
value = "1KTF";
},
{
name = fsType;
value = (
);
}
);
date = "2016-03-11 12:55:48 +0000";
designer = "Mohamed Gaber (Arabic) Eduardo Tunni (Latin)";
designerURL = "http://gaberism.net";
familyName = Lemonada;
featurePrefixes = (
{
automatic = 1;
code = "languagesystem DFLT dflt;\012languagesystem arab dflt;\012languagesystem latn dflt;\012languagesystem latn CAT;\012languagesystem latn ROM;\012languagesystem latn MOL;\012languagesystem latn KAZ;\012languagesystem latn TAT;\012languagesystem latn TRK;\012languagesystem latn CRT;\012languagesystem latn AZE;\012languagesystem arab URD;\012";
name = Languagesystems;
}
);
features = (
{
automatic = 1;
code = "feature ccmp;\012feature locl;\012feature sups;\012feature numr;\012feature dnom;\012feature frac;\012feature ordn;\012feature init;\012feature medi;\012feature fina;\012feature rlig;\012";
name = aalt;
},
{
automatic = 1;

glyphs = (
{
color = 10;
glyphname = A;
lastChange = "2015-11-29 23:16:55 +0000";
layers = (
{
anchors = (
{
name = bottom;
position = "{313, 0}";
},
{
name = ogonek;
position = "{619, -1}";
},
{
name = top;
position = "{438, 710}";
}
);
hints = (
{
horizontal = 1;
origin = "{1, 3}";
target = "{1, 2}";
},
{
horizontal = 1;
origin = "{0, 8}";
target = "{0, 30}";
},
{
origin = "{0, 37}";
target = "{0, 5}";
},
{
origin = "{0, 12}";
target = "{0, 21}";
},
{
horizontal = 1;
origin = "{0, 40}";
target = up;
type = BottomGhost;
}
);
layerId = "833A345D-F5FC-4136-BC05-A08F75A897C3";
paths = (
{
closed = 1;
nodes = (
"127 -23 OFFCURVE",
"146 -17 OFFCURVE",
"166 -1 CURVE",
"157 20 OFFCURVE",
"153 47 OFFCURVE",
"153 83 CURVE SMOOTH",
"153 181 OFFCURVE",
"234 355 OFFCURVE",
"431 644 CURVE",
"443 644 LINE",
"443 594 OFFCURVE",
"443 512 OFFCURVE",
"443 378 CURVE SMOOTH",
"443 62 OFFCURVE",
"465 -23 OFFCURVE",
"554 -23 CURVE SMOOTH",
"578 -23 OFFCURVE",
"600 -16 OFFCURVE",
"619 -1 CURVE",
"527 88 OFFCURVE",
"546 498 OFFCURVE",
"546 665 CURVE SMOOTH",
"546 713 OFFCURVE",
"530 734 OFFCURVE",
"498 734 CURVE SMOOTH",
"481 734 OFFCURVE",
"467 728 OFFCURVE",
"454 715 CURVE",
"449 728 OFFCURVE",
"436 734 OFFCURVE",
"411 734 CURVE SMOOTH",
"379 734 OFFCURVE",
"355 726 OFFCURVE",
"325 707 CURVE",
"355 676 LINE",
"158 391 OFFCURVE",
"50 165 OFFCURVE",
"50 57 CURVE SMOOTH",
"50 5 OFFCURVE",
"67 -23 OFFCURVE",
"98 -23 CURVE SMOOTH"
);
},
{
closed = 1;
nodes = (
"484 194 LINE",
"495 253 LINE",
"149 253 LINE",
"136 194 LINE"
);
}
);
width = 674;
},
{
anchors = (
{
name = bottom;
position = "{353, 0}";
},
{
name = ogonek;
position = "{727, 16}";
},
{
name = top;
position = "{478, 710}";
}
);
hints = (
{
horizontal = 1;
origin = "{1, 3}";
target = "{1, 2}";
},
{
horizontal = 1;
origin = "{0, 8}";
target = "{0, 30}";
},
{
origin = "{0, 37}";
target = "{0, 5}";
},
{
origin = "{0, 12}";
target = "{0, 21}";
},
{
horizontal = 1;
origin = "{0, 40}";
target = up;
type = BottomGhost;
}
);
layerId = "72FD83BD-A9F6-48B4-8CEA-331AE6F11CF9";
paths = (
{
closed = 1;
nodes = (
"161 -29 OFFCURVE",
"216 -11 OFFCURVE",
"253 16 CURVE",
"238 44 OFFCURVE",
"232 71 OFFCURVE",
"232 110 CURVE SMOOTH",
"232 197 OFFCURVE",
"315 382 OFFCURVE",
"447 593 CURVE",
"459 593 LINE",
"455 516 OFFCURVE",
"453 408 OFFCURVE",
"453 292 CURVE SMOOTH",
"452 65 OFFCURVE",
"496 -29 OFFCURVE",
"602 -29 CURVE SMOOTH",
"647 -29 OFFCURVE",
"688 -14 OFFCURVE",
"727 16 CURVE",
"648 125 OFFCURVE",
"664 333 OFFCURVE",
"664 578 CURVE SMOOTH",
"664 680 OFFCURVE",
"632 725 OFFCURVE",
"559 725 CURVE SMOOTH",
"533 725 OFFCURVE",
"507 717 OFFCURVE",
"475 700 CURVE",
"459 716 OFFCURVE",
"430 725 OFFCURVE",
"393 725 CURVE SMOOTH",
"322 725 OFFCURVE",
"266 708 OFFCURVE",
"191 662 CURVE",
"224 577 LINE",
"68 271 OFFCURVE",
"20 151 OFFCURVE",
"20 69 CURVE SMOOTH",
"20 5 OFFCURVE",
"52 -29 OFFCURVE",
"113 -29 CURVE SMOOTH"
);
},
{
closed = 1;
nodes = (
"526 161 LINE",
"546 280 LINE",
"200 280 LINE",
"178 161 LINE"
);
}
);
width = 767;
}
);
leftKerningGroup = A;
rightKerningGroup = A;
unicode = 0041;
},
{
color = 10;
glyphname = AE;
lastChange = "2016-03-09 00:41:01 +0000";
layers = (
{
anchors = (
{
name = bottom;
position = "{490, 0}";
},
{
name = top;
position = "{603, 710}";
}
);
hints = (
{
horizontal = 1;
origin = "{3, 13}";
target = "{3, 9}";
},
{
horizontal = 1;
origin = "{1, 3}";
target = "{1, 2}";
},
{
horizontal = 1;
origin = "{0, 13}";
target = "{0, 8}";
},
{
horizontal = 1;
origin = "{4, 13}";
target = "{4, 6}";
},
{
origin = "{0, 20}";
target = "{0, 5}";
},
{
origin = "{3, 9}";
target = "{2, 5}";
}
);
layerId = "833A345D-F5FC-4136-BC05-A08F75A897C3";
paths = (
{
closed = 1;
nodes = (
"113 -29 OFFCURVE",
"139 -28 OFFCURVE",
"164 -7 CURVE",
"148 14 OFFCURVE",
"148 40 OFFCURVE",
"148 68 CURVE SMOOTH",
"148 169 OFFCURVE",
"238 348 OFFCURVE",
"454 644 CURVE",
"466 644 LINE",
"488 682 LINE",
"480 712 OFFCURVE",
"466 726 OFFCURVE",
"434 726 CURVE SMOOTH",
"402 726 OFFCURVE",
"378 720 OFFCURVE",
"348 707 CURVE",
"378 676 LINE",
"164 384 OFFCURVE",
"48 153 OFFCURVE",
"48 42 CURVE SMOOTH",
"48 -1 OFFCURVE",
"61 -29 OFFCURVE",
"92 -29 CURVE SMOOTH"
);
},
{
closed = 1;
nodes = (
"466 194 LINE",
"477 253 LINE",
"151 253 LINE",
"138 194 LINE"
);
},
{
closed = 1;
nodes = (
"471 -26 OFFCURVE",
"501 -15 OFFCURVE",
"537 10 CURVE",
"502 25 OFFCURVE",
"485 47 OFFCURVE",
"485 74 CURVE SMOOTH",
"485 169 OFFCURVE",
"572 654 OFFCURVE",
"572 683 CURVE SMOOTH",
"572 712 OFFCURVE",
"560 726 OFFCURVE",
"536 726 CURVE SMOOTH",
"509 726 OFFCURVE",
"474 713 OFFCURVE",
"439 692 CURVE",
"466 644 LINE",
"403 256 OFFCURVE",
"384 123 OFFCURVE",
"384 42 CURVE SMOOTH",
"384 -6 OFFCURVE",
"402 -26 OFFCURVE",
"442 -26 CURVE SMOOTH"
);
},
{
closed = 1;
nodes = (
"758 -25 OFFCURVE",
"803 -5 OFFCURVE",
"803 44 CURVE SMOOTH",
"803 55 OFFCURVE",
"801 62 OFFCURVE",
"795 82 CURVE",
"765 71 OFFCURVE",
"736 64 OFFCURVE",
"696 60 CURVE",
"468 60 LINE",
"427 34 LINE",
"476 -1 OFFCURVE",
"568 -25 OFFCURVE",
"651 -25 CURVE SMOOTH"
);
},
{
closed = 1;
nodes = (
"677 288 OFFCURVE",
"707 313 OFFCURVE",
"707 358 CURVE SMOOTH",
"707 363 OFFCURVE",
"707 370 OFFCURVE",
"707 377 CURVE",
"638 360 LINE",
"587 360 OFFCURVE",
"542 362 OFFCURVE",
"499 367 CURVE",
"486 309 LINE",
"541 294 OFFCURVE",
"580 288 OFFCURVE",
"621 288 CURVE SMOOTH"
);
},
{
closed = 1;
nodes = (
"799 604 OFFCURVE",
"856 621 OFFCURVE",
"856 683 CURVE SMOOTH",
"856 693 OFFCURVE",
"856 704 OFFCURVE",
"851 720 CURVE",
"736 698 OFFCURVE",
"668 682 OFFCURVE",
"534 682 CURVE",
"507 640 LINE",
"591 612 OFFCURVE",
"663 604 OFFCURVE",
"748 604 CURVE SMOOTH"
);
}
);
width = 832;
},
{
anchors = (
{
name = bottom;
position = "{468, 0}";
},
{
name = top;
position = "{581, 710}";
}
);
hints = (
{
horizontal = 1;
origin = "{3, 13}";
target = "{3, 9}";
},
{
horizontal = 1;
origin = "{1, 3}";
target = "{1, 2}";
},
{
horizontal = 1;
origin = "{0, 13}";
target = "{0, 8}";
},
{
horizontal = 1;
origin = "{4, 13}";
target = "{4, 6}";
},
{
origin = "{0, 20}";
target = "{0, 5}";
},
{
origin = "{3, 9}";
target = "{2, 5}";
}
);
layerId = "72FD83BD-A9F6-48B4-8CEA-331AE6F11CF9";
paths = (
{
closed = 1;
nodes = (
"161 -29 OFFCURVE",
"216 -11 OFFCURVE",
"253 16 CURVE",
"238 44 OFFCURVE",
"232 71 OFFCURVE",
"232 110 CURVE SMOOTH",
"232 197 OFFCURVE",
"319 382 OFFCURVE",
"457 593 CURVE",
"469 593 LINE",
"509 680 LINE",
"489 709 OFFCURVE",
"451 726 OFFCURVE",
"403 726 CURVE SMOOTH",
"332 726 OFFCURVE",
"276 709 OFFCURVE",
"201 662 CURVE",
"234 577 LINE",
"70 271 OFFCURVE",
"20 151 OFFCURVE",
"20 69 CURVE SMOOTH",
"20 5 OFFCURVE",
"52 -29 OFFCURVE",
"113 -29 CURVE SMOOTH"
);
},
{
closed = 1;
nodes = (
"488 161 LINE",
"508 280 LINE",
"182 280 LINE",
"160 161 LINE"
);
},
{
closed = 1;
nodes = (
"569 -26 OFFCURVE",
"609 -12 OFFCURVE",
"644 19 CURVE",
"622 50 OFFCURVE",
"614 83 OFFCURVE",
"614 144 CURVE SMOOTH",
"614 221 OFFCURVE",
"691 564 OFFCURVE",
"691 632 CURVE SMOOTH",
"691 695 OFFCURVE",
"665 726 OFFCURVE",
"614 726 CURVE SMOOTH",
"553 726 OFFCURVE",
"482 701 OFFCURVE",
"408 653 CURVE",
"469 593 LINE",
"412 277 OFFCURVE",
"398 174 OFFCURVE",
"398 109 CURVE SMOOTH",
"398 14 OFFCURVE",
"434 -26 OFFCURVE",
"520 -26 CURVE SMOOTH"
);
},
{
closed = 1;
nodes = (
"881 -25 OFFCURVE",
"935 24 OFFCURVE",
"935 111 CURVE SMOOTH",
"935 137 OFFCURVE",
"932 156 OFFCURVE",
"924 175 CURVE",
"876 156 OFFCURVE",
"825 143 OFFCURVE",
"776 136 CURVE",
"567 136 LINE",
"567 29 LINE",
"647 -10 OFFCURVE",
"709 -25 OFFCURVE",
"785 -25 CURVE SMOOTH"
);
},
{
closed = 1;
nodes = (
"763 249 OFFCURVE",
"804 284 OFFCURVE",
"804 341 CURVE SMOOTH",
"804 360 OFFCURVE",
"802 377 OFFCURVE",
"799 389 CURVE",
"709 366 LINE",
"681 366 OFFCURVE",
"657 369 OFFCURVE",
"630 376 CURVE",
"610 262 LINE",
"650 252 OFFCURVE",
"672 249 OFFCURVE",
"695 249 CURVE SMOOTH"
);
},
{
closed = 1;
nodes = (
"905 493 OFFCURVE",
"977 555 OFFCURVE",
"977 656 CURVE SMOOTH",
"977 676 OFFCURVE",
"974 698 OFFCURVE",
"969 721 CURVE",
"845 690 OFFCURVE",
"753 668 OFFCURVE",
"622 668 CURVE",
"610 533 LINE",
"649 513 OFFCURVE",
"736 493 OFFCURVE",
"786 493 CURVE SMOOTH"
);
}
);
width = 967;
}
);
leftKerningGroup = A;
leftMetricsKey = A;
rightKerningGroup = E;
rightMetricsKey = E;
unicode = 00C6;
},
{
color = 10;
glyphname = B;
lastChange = "2016-03-09 00:40:48 +0000";
layers = (
{
hints = (
{
horizontal = 1;
origin = "{0, 27}";
target = "{1, 24}";
},
{
horizontal = 1;
origin = "{1, 18}";
target = "{1, 14}";
},
{
horizontal = 1;
origin = "{0, 17}";
target = "{1, 8}";
},
{
origin = "{0, 24}";
target = "{1, 2}";
},
{
origin = "{1, 21}";
target = "{0, 2}";
},
{
origin = "{1, 11}";
target = "{0, 8}";
}
);
layerId = "833A345D-F5FC-4136-BC05-A08F75A897C3";
paths = (
{
closed = 1;
nodes = (
"560 -26 OFFCURVE",
"682 65 OFFCURVE",
"682 190 CURVE SMOOTH",
"682 283 OFFCURVE",
"619 348 OFFCURVE",
"512 368 CURVE",
"618 415 OFFCURVE",
"679 490 OFFCURVE",
"679 574 CURVE SMOOTH",
"679 668 OFFCURVE",
"613 727 OFFCURVE",
"506 727 CURVE SMOOTH",
"443 727 OFFCURVE",
"378 710 OFFCURVE",
"310 677 CURVE",
"311 709 OFFCURVE",
"298 726 OFFCURVE",
"272 726 CURVE SMOOTH",
"248 726 OFFCURVE",
"213 713 OFFCURVE",
"175 692 CURVE",
"201 642 LINE",
"143 315 OFFCURVE",
"122 166 OFFCURVE",
"122 85 CURVE SMOOTH",
"122 18 OFFCURVE",
"225 -26 OFFCURVE",
"393 -26 CURVE SMOOTH"
);
},
{
closed = 1;
nodes = (
"328 38 OFFCURVE",
"267 49 OFFCURVE",
"222 66 CURVE",
"234 244 OFFCURVE",
"259 411 OFFCURVE",
"303 617 CURVE",
"359 642 OFFCURVE",
"412 653 OFFCURVE",
"466 653 CURVE SMOOTH",
"536 653 OFFCURVE",
"571 622 OFFCURVE",
"571 563 CURVE SMOOTH",
"571 450 OFFCURVE",
"444 372 OFFCURVE",
"240 362 CURVE",
"233 300 LINE",
"295 315 OFFCURVE",
"353 322 OFFCURVE",
"402 322 CURVE SMOOTH",
"512 322 OFFCURVE",
"575 271 OFFCURVE",
"575 183 CURVE SMOOTH",
"575 96 OFFCURVE",
"500 38 OFFCURVE",
"383 38 CURVE SMOOTH"
);
}
);
width = 790;
},
{
hints = (
{
horizontal = 1;
origin = "{0, 27}";
target = "{1, 24}";
},
{
horizontal = 1;
origin = "{1, 18}";
target = "{1, 14}";
},
{
horizontal = 1;
origin = "{0, 17}";
target = "{1, 8}";
},
{
origin = "{0, 24}";
target = "{1, 2}";
},
{
origin = "{1, 21}";
target = "{0, 2}";
},
{
origin = "{1, 11}";
target = "{0, 8}";
}
);
layerId = "72FD83BD-A9F6-48B4-8CEA-331AE6F11CF9";
paths = (
{
closed = 1;
nodes = (
"588 -24 OFFCURVE",
"727 59 OFFCURVE",
"727 188 CURVE SMOOTH",
"727 281 OFFCURVE",
"664 348 OFFCURVE",
"557 368 CURVE",
"666 410 OFFCURVE",
"724 481 OFFCURVE",
"724 574 CURVE SMOOTH",
"724 668 OFFCURVE",
"659 725 OFFCURVE",
"552 725 CURVE SMOOTH",
"486 725 OFFCURVE",
"418 705 OFFCURVE",
"350 666 CURVE",
"342 706 OFFCURVE",
"317 726 OFFCURVE",
"276 726 CURVE SMOOTH",
"215 726 OFFCURVE",
"144 701 OFFCURVE",
"70 653 CURVE",
"123 546 LINE",
"77 283 OFFCURVE",
"65 197 OFFCURVE",
"65 140 CURVE SMOOTH",
"65 24 OFFCURVE",
"156 -24 OFFCURVE",
"373 -24 CURVE SMOOTH"
);
},
{
closed = 1;
nodes = (
"346 89 OFFCURVE",
"304 97 OFFCURVE",
"273 111 CURVE",
"285 242 OFFCURVE",
"313 441 OFFCURVE",
"340 579 CURVE",
"366 589 OFFCURVE",
"392 593 OFFCURVE",
"421 593 CURVE SMOOTH",
"477 593 OFFCURVE",
"506 568 OFFCURVE",
"506 518 CURVE SMOOTH",
"506 438 OFFCURVE",
"424 384 OFFCURVE",
"294 378 CURVE",
"281 282 LINE",
"316 295 OFFCURVE",
"354 302 OFFCURVE",
"387 302 CURVE SMOOTH",
"465 302 OFFCURVE",
"509 265 OFFCURVE",
"509 201 CURVE SMOOTH",
"509 133 OFFCURVE",
"459 89 OFFCURVE",
"383 89 CURVE SMOOTH"
);
}
);
width = 789;
}
);
leftKerningGroup = H;
leftMetricsKey = H;
rightKerningGroup = B;
rightMetricsKey = "=H+10";
unicode = 0042;
},
{
color = 10;
glyphname = C;
lastChange = "2015-11-21 23:17:40 +0000";
layers = (
{
anchors = (
{
name = bottom;
position = "{263, 0}";
},
{
name = top;
position = "{435, 696}";
}
);
hints = (
{
horizontal = 1;
origin = "{0, 29}";
target = "{0, 8}";
},
{
origin = "{0, 26}";
target = "{0, 11}";
},
{
origin = "{0, 5}";
target = "{0, 2}";
},
{
horizontal = 1;
origin = "{0, 23}";
target = "{0, 14}";
}
);
layerId = "833A345D-F5FC-4136-BC05-A08F75A897C3";
paths = (
{
closed = 1;
nodes = (
"453 -25 OFFCURVE",
"567 65 OFFCURVE",
"567 171 CURVE SMOOTH",
"567 218 OFFCURVE",
"539 234 OFFCURVE",
"497 234 CURVE",
"489 122 OFFCURVE",
"420 36 OFFCURVE",
"311 36 CURVE SMOOTH",
"218 36 OFFCURVE",
"162 115 OFFCURVE",
"162 247 CURVE SMOOTH",
"162 440 OFFCURVE",
"262 594 OFFCURVE",
"399 653 CURVE",
"431 590 OFFCURVE",
"481 575 OFFCURVE",
"530 575 CURVE SMOOTH",
"580 575 OFFCURVE",
"619 607 OFFCURVE",
"619 649 CURVE SMOOTH",
"619 698 OFFCURVE",
"566 726 OFFCURVE",
"478 726 CURVE SMOOTH",
"247 726 OFFCURVE",
"56 523 OFFCURVE",
"56 256 CURVE SMOOTH",
"56 78 OFFCURVE",
"155 -25 OFFCURVE",
"318 -25 CURVE SMOOTH"
);
}
);
width = 631;
},
{
anchors = (
{
name = bottom;
position = "{314, 0}";
},
{
name = top;
position = "{456, 696}";
}
);
hints = (
{
horizontal = 1;
origin = "{0, 29}";
target = "{0, 8}";
},
{
origin = "{0, 26}";
target = "{0, 11}";
},
{
origin = "{0, 5}";
target = "{0, 2}";
},
{
horizontal = 1;
origin = "{0, 23}";
target = "{0, 14}";
}
);
layerId = "72FD83BD-A9F6-48B4-8CEA-331AE6F11CF9";
paths = (
{
closed = 1;
nodes = (
"525 -25 OFFCURVE",
"663 62 OFFCURVE",
"663 171 CURVE SMOOTH",
"663 234 OFFCURVE",
"615 265 OFFCURVE",
"530 265 CURVE",
"525 162 OFFCURVE",
"456 81 OFFCURVE",
"366 81 CURVE SMOOTH",
"291 81 OFFCURVE",
"247 152 OFFCURVE",
"247 274 CURVE SMOOTH",
"247 422 OFFCURVE",
"323 555 OFFCURVE",
"424 594 CURVE",
"456 527 OFFCURVE",
"514 491 OFFCURVE",
"578 491 CURVE SMOOTH",
"646 491 OFFCURVE",
"695 536 OFFCURVE",
"695 599 CURVE SMOOTH",
"695 677 OFFCURVE",
"614 726 OFFCURVE",
"488 726 CURVE SMOOTH",
"224 726 OFFCURVE",
"29 538 OFFCURVE",
"29 278 CURVE SMOOTH",
"29 87 OFFCURVE",
"150 -25 OFFCURVE",
"354 -25 CURVE SMOOTH"
);
}
);
width = 718;
}
);
leftKerningGroup = O;
leftMetricsKey = O;
rightKerningGroup = C;
rightMetricsKey = "=O";
unicode = 0043;
},
{
color = 10;
glyphname = D;
lastChange = "2016-03-09 00:41:09 +0000";
layers = (
{
anchors = (
{
name = bottom;
position = "{358, 0}";
},
{
name = center;
position = "{228, 355}";
},
{
name = top;
position = "{483, 710}";
}
);
hints = (
{
horizontal = 1;
origin = "{0, 37}";
target = "{0, 18}";
},
{
horizontal = 1;
origin = "{0, 27}";
target = "{0, 12}";
},
{
origin = "{0, 34}";
target = "{0, 21}";
},
{
origin = "{0, 15}";
target = "{0, 2}";
}
);
layerId = "833A345D-F5FC-4136-BC05-A08F75A897C3";
paths = (
{
closed = 1;
nodes = (
"585 -25 OFFCURVE",
"757 149 OFFCURVE",
"757 404 CURVE SMOOTH",
"757 602 OFFCURVE",
"648 726 OFFCURVE",
"476 726 CURVE SMOOTH",
"356 726 OFFCURVE",
"305 676 OFFCURVE",
"241 635 CURVE",
"241 592 LINE",
"313 632 OFFCURVE",
"340 659 OFFCURVE",
"445 659 CURVE SMOOTH",
"579 659 OFFCURVE",
"650 565 OFFCURVE",
"650 387 CURVE SMOOTH",
"650 183 OFFCURVE",
"525 38 OFFCURVE",
"348 38 CURVE SMOOTH",
"300 38 OFFCURVE",
"265 43 OFFCURVE",
"222 55 CURVE",
"222 165 OFFCURVE",
"307 654 OFFCURVE",
"307 683 CURVE SMOOTH",
"307 712 OFFCURVE",
"294 726 OFFCURVE",
"270 726 CURVE SMOOTH",
"250 726 OFFCURVE",
"215 713 OFFCURVE",
"175 692 CURVE",
"201 642 LINE",
"145 313 OFFCURVE",
"123 154 OFFCURVE",
"123 85 CURVE SMOOTH",
"123 8 OFFCURVE",
"190 -25 OFFCURVE",
"334 -25 CURVE SMOOTH"
);
}
);
width = 829;
},
{
anchors = (
{
name = bottom;
position = "{356, 0}";
},
{
name = center;
position = "{226, 355}";
},
{
name = top;
position = "{481, 710}";
}
);
hints = (
{
horizontal = 1;
origin = "{0, 37}";
target = "{0, 18}";
},
{
horizontal = 1;
origin = "{0, 27}";
target = "{0, 12}";
},
{
origin = "{0, 34}";
target = "{0, 21}";
},
{
origin = "{0, 15}";
target = "{0, 2}";
}
);
layerId = "72FD83BD-A9F6-48B4-8CEA-331AE6F11CF9";
paths = (
{
closed = 1;
nodes = (
"601 -25 OFFCURVE",
"796 158 OFFCURVE",
"796 419 CURVE SMOOTH",
"796 602 OFFCURVE",
"675 726 OFFCURVE",
"494 726 CURVE SMOOTH",
"392 726 OFFCURVE",
"330 701 OFFCURVE",
"235 620 CURVE",
"265 538 LINE",
"319 578 OFFCURVE",
"362 596 OFFCURVE",
"403 596 CURVE SMOOTH",
"513 596 OFFCURVE",
"578 517 OFFCURVE",
"578 384 CURVE SMOOTH",
"578 211 OFFCURVE",
"481 89 OFFCURVE",
"343 89 CURVE SMOOTH",
"319 89 OFFCURVE",
"295 94 OFFCURVE",
"276 103 CURVE",
"276 162 OFFCURVE",
"353 558 OFFCURVE",
"353 632 CURVE SMOOTH",
"353 695 OFFCURVE",
"327 726 OFFCURVE",
"276 726 CURVE SMOOTH",
"215 726 OFFCURVE",
"144 701 OFFCURVE",
"70 653 CURVE",
"123 546 LINE",
"74 286 OFFCURVE",
"60 199 OFFCURVE",
"60 143 CURVE SMOOTH",
"60 38 OFFCURVE",
"158 -25 OFFCURVE",
"323 -25 CURVE SMOOTH"
);
}
);
width = 856;
}
);
leftKerningGroup = H;
leftMetricsKey = H;
rightKerningGroup = O;
rightMetricsKey = "=O+40";
unicode = 0044;
},
{
color = 10;
glyphname = E;
lastChange = "2015-10-18 16:59:44 +0000";
layers = (
{
anchors = (
{
name = bottom;
position = "{327, 0}";
},
{
name = ogonek;
position = "{526, 10}";
},
{
name = top;
position = "{397, 710}";
},
{
name = topleft;
position = "{20, 710}";
}
);
hints = (
{
horizontal = 1;
origin = "{1, 13}";
target = "{1, 9}";
},
{
horizontal = 1;
origin = "{2, 13}";
target = "{2, 6}";
},
{
origin = "{0, 18}";
target = "{0, 5}";
},
{
horizontal = 1;
origin = "{3, 12}";
target = "{3, 8}";
}
);
layerId = "833A345D-F5FC-4136-BC05-A08F75A897C3";
paths = (
{
closed = 1;
nodes = (
"207 -26 OFFCURVE",
"237 -15 OFFCURVE",
"273 10 CURVE",
"238 25 OFFCURVE",
"221 47 OFFCURVE",
"221 74 CURVE SMOOTH",
"221 169 OFFCURVE",
"308 654 OFFCURVE",
"308 683 CURVE SMOOTH",
"308 712 OFFCURVE",
"296 726 OFFCURVE",
"272 726 CURVE SMOOTH",
"245 726 OFFCURVE",
"210 713 OFFCURVE",
"175 692 CURVE",
"201 642 LINE",
"138 255 OFFCURVE",
"120 123 OFFCURVE",
"120 42 CURVE SMOOTH",
"120 -6 OFFCURVE",
"138 -26 OFFCURVE",
"178 -26 CURVE SMOOTH"
);
},
{
closed = 1;
nodes = (
"494 -25 OFFCURVE",
"539 -5 OFFCURVE",
"539 44 CURVE SMOOTH",
"539 55 OFFCURVE",
"537 62 OFFCURVE",
"531 82 CURVE",
"501 71 OFFCURVE",
"472 64 OFFCURVE",
"432 60 CURVE",
"204 60 LINE",
"163 34 LINE",
"212 -1 OFFCURVE",
"304 -25 OFFCURVE",
"387 -25 CURVE SMOOTH"
);
},
{
closed = 1;
nodes = (
"413 288 OFFCURVE",
"443 313 OFFCURVE",
"443 358 CURVE SMOOTH",
"443 363 OFFCURVE",
"443 370 OFFCURVE",
"443 377 CURVE",
"374 360 LINE",
"323 360 OFFCURVE",
"278 362 OFFCURVE",
"235 367 CURVE",
"222 309 LINE",
"277 294 OFFCURVE",
"316 288 OFFCURVE",
"357 288 CURVE SMOOTH"
);
},
{
closed = 1;
nodes = (
"535 604 OFFCURVE",
"592 621 OFFCURVE",
"592 683 CURVE SMOOTH",
"592 693 OFFCURVE",
"592 704 OFFCURVE",
"587 720 CURVE",
"472 698 OFFCURVE",
"404 682 OFFCURVE",
"270 682 CURVE",
"243 640 LINE",
"327 612 OFFCURVE",
"399 604 OFFCURVE",
"484 604 CURVE SMOOTH"
);
}
);
width = 568;
},
{
anchors = (
{
name = bottom;
position = "{283, 0}";
},
{
name = ogonek;
position = "{554, 10}";
},
{
name = top;
position = "{398, 710}";
},
{
name = topleft;
position = "{20, 710}";
}
);
hints = (
{
horizontal = 1;
origin = "{1, 13}";
target = "{1, 9}";
},
{
horizontal = 1;
origin = "{2, 13}";
target = "{2, 6}";
},
{
origin = "{0, 18}";
target = "{0, 5}";
},
{
horizontal = 1;
origin = "{3, 12}";
target = "{3, 8}";
}
);
layerId = "72FD83BD-A9F6-48B4-8CEA-331AE6F11CF9";
paths = (
{
closed = 1;
nodes = (
"231 -26 OFFCURVE",
"271 -12 OFFCURVE",
"306 19 CURVE",
"284 50 OFFCURVE",
"276 83 OFFCURVE",
"276 144 CURVE SMOOTH",
"276 221 OFFCURVE",
"353 564 OFFCURVE",
"353 632 CURVE SMOOTH",
"353 695 OFFCURVE",
"327 726 OFFCURVE",
"276 726 CURVE SMOOTH",
"215 726 OFFCURVE",
"144 701 OFFCURVE",
"70 653 CURVE",
"123 546 LINE",
"73 261 OFFCURVE",
"60 168 OFFCURVE",
"60 109 CURVE SMOOTH",
"60 14 OFFCURVE",
"96 -26 OFFCURVE",
"182 -26 CURVE SMOOTH"
);
},
{
closed = 1;
nodes = (
"543 -25 OFFCURVE",
"597 24 OFFCURVE",
"597 111 CURVE SMOOTH",
"597 137 OFFCURVE",
"594 156 OFFCURVE",
"586 175 CURVE",
"538 156 OFFCURVE",
"487 143 OFFCURVE",
"438 136 CURVE",
"229 136 LINE",
"229 29 LINE",
"309 -10 OFFCURVE",
"371 -25 OFFCURVE",
"447 -25 CURVE SMOOTH"
);
},
{
closed = 1;
nodes = (
"425 249 OFFCURVE",
"466 284 OFFCURVE",
"466 341 CURVE SMOOTH",
"466 360 OFFCURVE",
"464 377 OFFCURVE",
"461 389 CURVE",
"371 366 LINE",
"343 366 OFFCURVE",
"319 369 OFFCURVE",
"292 376 CURVE",
"272 262 LINE",
"312 252 OFFCURVE",
"334 249 OFFCURVE",
"357 249 CURVE SMOOTH"
);
},
{
closed = 1;
nodes = (
"567 493 OFFCURVE",
"639 555 OFFCURVE",
"639 656 CURVE SMOOTH",
"639 676 OFFCURVE",
"636 698 OFFCURVE",
"631 721 CURVE",
"507 690 OFFCURVE",
"415 668 OFFCURVE",
"284 668 CURVE",
"272 533 LINE",
"311 513 OFFCURVE",
"398 493 OFFCURVE",
"448 493 CURVE SMOOTH"
);
}
);
width = 629;
}
);
leftKerningGroup = H;
leftMetricsKey = H;
rightKerningGroup = E;
unicode = 0045;
},
{
color = 10;
glyphname = F;
lastChange = "2015-10-18 16:59:44 +0000";
layers = (
{
hints = (
{
horizontal = 1;
origin = "{1, 13}";
target = "{1, 6}";
},
{
origin = "{0, 18}";
target = "{0, 5}";
},
{
horizontal = 1;
origin = "{2, 12}";
target = "{2, 8}";
}
);
layerId = "833A345D-F5FC-4136-BC05-A08F75A897C3";
paths = (
{
closed = 1;
nodes = (
"197 -26 OFFCURVE",
"217 -20 OFFCURVE",
"243 -5 CURVE",
"229 13 OFFCURVE",
"221 41 OFFCURVE",
"221 74 CURVE SMOOTH",
"221 169 OFFCURVE",
"308 654 OFFCURVE",
"308 683 CURVE SMOOTH",
"308 712 OFFCURVE",
"296 726 OFFCURVE",
"272 726 CURVE SMOOTH",
"245 726 OFFCURVE",
"210 713 OFFCURVE",
"175 692 CURVE",
"201 642 LINE",
"138 255 OFFCURVE",
"120 123 OFFCURVE",
"120 42 CURVE SMOOTH",
"120 -6 OFFCURVE",
"138 -26 OFFCURVE",
"178 -26 CURVE SMOOTH"
);
},
{
closed = 1;
nodes = (
"413 288 OFFCURVE",
"443 313 OFFCURVE",
"443 358 CURVE SMOOTH",
"443 363 OFFCURVE",
"443 370 OFFCURVE",
"443 377 CURVE",
"374 360 LINE",
"323 360 OFFCURVE",
"278 362 OFFCURVE",
"235 367 CURVE",
"222 309 LINE",
"277 294 OFFCURVE",
"316 288 OFFCURVE",
"357 288 CURVE SMOOTH"
);
},
{
closed = 1;
nodes = (
"525 604 OFFCURVE",
"582 621 OFFCURVE",
"582 683 CURVE SMOOTH",
"582 693 OFFCURVE",
"582 704 OFFCURVE",
"577 720 CURVE",
"462 698 OFFCURVE",
"394 682 OFFCURVE",
"260 682 CURVE",
"233 640 LINE",
"317 612 OFFCURVE",
"389 604 OFFCURVE",
"474 604 CURVE SMOOTH"
);
}
);
width = 508;
},
{
hints = (
{
horizontal = 1;
origin = "{1, 13}";
target = "{1, 6}";
},
{
origin = "{0, 18}";
target = "{0, 5}";
},
{
horizontal = 1;
origin = "{2, 12}";
target = "{2, 8}";
}
);
layerId = "72FD83BD-A9F6-48B4-8CEA-331AE6F11CF9";
paths = (
{
closed = 1;
nodes = (
"231 -26 OFFCURVE",
"271 -12 OFFCURVE",
"306 19 CURVE",
"284 50 OFFCURVE",
"276 83 OFFCURVE",
"276 144 CURVE SMOOTH",
"276 221 OFFCURVE",
"353 564 OFFCURVE",
"353 632 CURVE SMOOTH",
"353 695 OFFCURVE",
"327 726 OFFCURVE",
"276 726 CURVE SMOOTH",
"215 726 OFFCURVE",
"144 701 OFFCURVE",
"70 653 CURVE",
"123 546 LINE",
"73 261 OFFCURVE",
"60 168 OFFCURVE",
"60 109 CURVE SMOOTH",
"60 14 OFFCURVE",
"96 -26 OFFCURVE",
"182 -26 CURVE SMOOTH"
);
},
{
closed = 1;
nodes = (
"425 249 OFFCURVE",
"466 284 OFFCURVE",
"466 341 CURVE SMOOTH",
"466 360 OFFCURVE",
"464 377 OFFCURVE",
"461 389 CURVE",
"371 366 LINE",
"343 366 OFFCURVE",
"319 369 OFFCURVE",
"292 376 CURVE",
"272 262 LINE",
"312 252 OFFCURVE",
"334 249 OFFCURVE",
"357 249 CURVE SMOOTH"
);
},
{
closed = 1;
nodes = (
"557 493 OFFCURVE",
"629 555 OFFCURVE",
"629 656 CURVE SMOOTH",
"629 676 OFFCURVE",
"626 698 OFFCURVE",
"621 721 CURVE",
"497 690 OFFCURVE",
"405 668 OFFCURVE",
"274 668 CURVE",
"262 533 LINE",
"301 513 OFFCURVE",
"388 493 OFFCURVE",
"438 493 CURVE SMOOTH"
);
}
);
width = 599;
}
);
leftKerningGroup = H;
leftMetricsKey = H;
rightKerningGroup = F;
unicode = 0046;
},
{
color = 10;
glyphname = G;
lastChange = "2016-03-09 00:40:53 +0000";
layers = (
{
anchors = (
{
name = bottom;
position = "{211, 0}";
},
{
name = ogonek;
position = "{557, -167}";
},
{
name = top;
position = "{418, 696}";
}
);
hints = (
{
horizontal = 1;
origin = "{0, 29}";
target = "{0, 8}";
},
{
origin = "{0, 26}";
target = "{0, 11}";
},
{
origin = "{1, 20}";
target = "{1, 5}";
},
{
horizontal = 1;
origin = "{0, 23}";
target = "{0, 14}";
}
);
layerId = "833A345D-F5FC-4136-BC05-A08F75A897C3";
paths = (
{
closed = 1;
nodes = (
"455 -30 OFFCURVE",
"562 76 OFFCURVE",
"562 201 CURVE SMOOTH",
"562 269 OFFCURVE",
"554 294 OFFCURVE",
"545 294 CURVE",
"537 148 OFFCURVE",
"452 36 OFFCURVE",
"320 36 CURVE SMOOTH",
"221 36 OFFCURVE",
"162 115 OFFCURVE",
"162 247 CURVE SMOOTH",
"162 440 OFFCURVE",
"269 594 OFFCURVE",
"413 653 CURVE",
"446 590 OFFCURVE",
"499 575 OFFCURVE",
"548 575 CURVE SMOOTH",
"601 575 OFFCURVE",
"640 607 OFFCURVE",
"640 649 CURVE SMOOTH",
"640 698 OFFCURVE",
"587 726 OFFCURVE",
"495 726 CURVE SMOOTH",
"256 726 OFFCURVE",
"56 523 OFFCURVE",
"56 256 CURVE SMOOTH",
"56 75 OFFCURVE",
"159 -30 OFFCURVE",
"328 -30 CURVE SMOOTH"
);
},
{
closed = 1;
nodes = (
"523 -185 OFFCURVE",
"540 -179 OFFCURVE",
"557 -167 CURVE",
"548 -160 OFFCURVE",
"543 -147 OFFCURVE",
"543 -128 CURVE SMOOTH",
"543 17 OFFCURVE",
"642 313 OFFCURVE",
"642 333 CURVE SMOOTH",
"642 367 OFFCURVE",
"627 377 OFFCURVE",
"591 377 CURVE SMOOTH",
"560 377 OFFCURVE",
"513 361 OFFCURVE",
"483 332 CURVE",
"545 294 LINE",
"552 221 LINE",
"475 40 LINE",
"453 -51 OFFCURVE",
"445 -105 OFFCURVE",
"445 -134 CURVE SMOOTH",
"445 -172 OFFCURVE",
"464 -185 OFFCURVE",
"500 -185 CURVE SMOOTH"
);
}
);
width = 725;
},
{
anchors = (
{
name = bottom;
position = "{259, 0}";
},
{
name = ogonek;
position = "{668, -141}";
},
{
name = top;
position = "{466, 696}";
}
);
hints = (
{
horizontal = 1;
origin = "{0, 29}";
target = "{0, 8}";
},
{
origin = "{0, 26}";
target = "{0, 11}";
},
{
origin = "{1, 20}";
target = "{1, 5}";
},
{
horizontal = 1;
origin = "{0, 23}";
target = "{0, 14}";
}
);
layerId = "72FD83BD-A9F6-48B4-8CEA-331AE6F11CF9";
paths = (
{
closed = 1;
nodes = (
"476 -30 OFFCURVE",
"569 59 OFFCURVE",
"569 171 CURVE SMOOTH",
"569 213 OFFCURVE",
"551 234 OFFCURVE",
"519 234 CURVE",
"514 148 OFFCURVE",
"453 81 OFFCURVE",
"372 81 CURVE SMOOTH",
"293 81 OFFCURVE",
"247 152 OFFCURVE",
"247 274 CURVE SMOOTH",
"247 422 OFFCURVE",
"327 555 OFFCURVE",
"434 594 CURVE",
"467 527 OFFCURVE",
"527 491 OFFCURVE",
"593 491 CURVE SMOOTH",
"662 491 OFFCURVE",
"712 536 OFFCURVE",
"712 599 CURVE SMOOTH",
"712 677 OFFCURVE",
"630 726 OFFCURVE",
"502 726 CURVE SMOOTH",
"230 726 OFFCURVE",
"29 538 OFFCURVE",
"29 278 CURVE SMOOTH",
"29 84 OFFCURVE",
"153 -30 OFFCURVE",
"361 -30 CURVE SMOOTH"
);
},
{
closed = 1;
nodes = (
"589 -185 OFFCURVE",
"630 -171 OFFCURVE",
"668 -141 CURVE",
"647 -125 OFFCURVE",
"637 -96 OFFCURVE",
"637 -60 CURVE SMOOTH",
"637 56 OFFCURVE",
"715 265 OFFCURVE",
"715 310 CURVE SMOOTH",
"715 356 OFFCURVE",
"696 377 OFFCURVE",
"639 377 CURVE SMOOTH",
"575 377 OFFCURVE",
"501 347 OFFCURVE",
"441 309 CURVE",
"519 234 LINE",
"558 189 LINE",
"443 19 LINE",
"435 -21 OFFCURVE",
"430 -54 OFFCURVE",
"430 -74 CURVE SMOOTH",
"430 -146 OFFCURVE",
"464 -185 OFFCURVE",
"549 -185 CURVE SMOOTH"
);
}
);
width = 780;
}
);
leftKerningGroup = O;
leftMetricsKey = O;
rightKerningGroup = G;
rightMetricsKey = "=H+10";
unicode = 0047;
},
{
color = 10;
glyphname = H;
lastChange = "2015-12-09 01:04:23 +0000";
layers = (
{
anchors = (
{
name = bottom;
position = "{384, 0}";
},
{
name = center;
position = "{458, 522}";
},
{
name = top;
position = "{484, 710}";
},
{
name = topleft;
position = "{20, 710}";
}
);
hints = (
{
horizontal = 1;
origin = "{0, 2}";
target = "{0, 1}";
},
{
origin = "{1, 21}";
target = "{1, 8}";
},
{
origin = "{2, 21}";
target = "{2, 8}";
}
);
layerId = "833A345D-F5FC-4136-BC05-A08F75A897C3";
paths = (
{
closed = 1;
nodes = (
"640 356 LINE",
"204 356 LINE",
"191 297 LINE",
"629 297 LINE"
);
},
{
closed = 1;
nodes = (
"120 -6 OFFCURVE",
"138 -26 OFFCURVE",
"178 -26 CURVE SMOOTH",
"199 -26 OFFCURVE",
"219 -20 OFFCURVE",
"243 -5 CURVE",
"229 13 OFFCURVE",
"221 41 OFFCURVE",
"221 74 CURVE SMOOTH",
"221 169 OFFCURVE",
"308 654 OFFCURVE",
"308 683 CURVE SMOOTH",
"308 712 OFFCURVE",
"296 726 OFFCURVE",
"272 726 CURVE SMOOTH",
"245 726 OFFCURVE",
"210 713 OFFCURVE",
"175 692 CURVE",
"201 642 LINE",
"138 259 OFFCURVE",
"120 124 OFFCURVE",
"120 42 CURVE SMOOTH"
);
},
{
closed = 1;
nodes = (
"565 -6 OFFCURVE",
"583 -26 OFFCURVE",
"623 -26 CURVE SMOOTH",
"644 -26 OFFCURVE",
"664 -20 OFFCURVE",
"688 -5 CURVE",
"674 13 OFFCURVE",
"666 41 OFFCURVE",
"666 74 CURVE SMOOTH",
"666 169 OFFCURVE",
"753 654 OFFCURVE",
"753 683 CURVE SMOOTH",
"753 712 OFFCURVE",
"741 726 OFFCURVE",
"717 726 CURVE SMOOTH",
"690 726 OFFCURVE",
"655 713 OFFCURVE",
"620 692 CURVE",
"646 642 LINE",
"583 259 OFFCURVE",
"565 124 OFFCURVE",
"565 42 CURVE SMOOTH"
);
}
);
width = 814;
},
{
anchors = (
{
name = bottom;
position = "{363, 0}";
},
{
name = center;
position = "{441, 495}";
},
{
name = top;
position = "{475, 710}";
},
{
name = topleft;
position = "{20, 710}";
}
);
hints = (
{
horizontal = 1;
origin = "{0, 2}";
target = "{0, 1}";
},
{
origin = "{1, 21}";
target = "{1, 8}";
},
{
origin = "{2, 21}";
target = "{2, 8}";
}
);
layerId = "72FD83BD-A9F6-48B4-8CEA-331AE6F11CF9";
paths = (
{
closed = 1;
nodes = (
"601 386 LINE",
"255 386 LINE",
"233 267 LINE",
"581 267 LINE"
);
},
{
closed = 1;
nodes = (
"60 14 OFFCURVE",
"96 -26 OFFCURVE",
"182 -26 CURVE SMOOTH",
"227 -26 OFFCURVE",
"267 -12 OFFCURVE",
"306 19 CURVE",
"284 50 OFFCURVE",
"276 83 OFFCURVE",
"276 144 CURVE SMOOTH",
"276 221 OFFCURVE",
"353 564 OFFCURVE",
"353 632 CURVE SMOOTH",
"353 695 OFFCURVE",
"327 726 OFFCURVE",
"276 726 CURVE SMOOTH",
"215 726 OFFCURVE",
"144 701 OFFCURVE",
"70 653 CURVE",
"123 546 LINE",
"72 253 OFFCURVE",
"60 167 OFFCURVE",
"60 109 CURVE SMOOTH"
);
},
{
closed = 1;
nodes = (
"501 14 OFFCURVE",
"537 -26 OFFCURVE",
"623 -26 CURVE SMOOTH",
"668 -26 OFFCURVE",
"708 -12 OFFCURVE",
"747 19 CURVE",
"725 50 OFFCURVE",
"717 83 OFFCURVE",
"717 144 CURVE SMOOTH",
"717 221 OFFCURVE",
"794 564 OFFCURVE",
"794 632 CURVE SMOOTH",
"794 695 OFFCURVE",
"768 726 OFFCURVE",
"717 726 CURVE SMOOTH",
"656 726 OFFCURVE",
"585 701 OFFCURVE",
"511 653 CURVE",
"564 546 LINE",
"513 253 OFFCURVE",
"501 167 OFFCURVE",
"501 109 CURVE SMOOTH"
);
}
);
width = 824;
}
);
leftKerningGroup = H;
rightKerningGroup = H;
unicode = 0048;
},
{
color = 10;
glyphname = I;
lastChange = "2015-11-22 00:54:28 +0000";
layers = (
{
anchors = (
{
name = bottom;
position = "{163, 0}";
},
{
name = ogonek;
position = "{243, -4}";
},
{
name = top;
position = "{263, 710}";
},
{
name = topleft;
position = "{20, 710}";
}
);
hints = (
{
origin = "{0, 21}";
target = "{0, 8}";
}
);
layerId = "833A345D-F5FC-4136-BC05-A08F75A897C3";
paths = (
{
closed = 1;
nodes = (
"120 -5 OFFCURVE",
"138 -25 OFFCURVE",
"178 -25 CURVE SMOOTH",
"199 -25 OFFCURVE",
"219 -19 OFFCURVE",
"243 -4 CURVE",
"229 14 OFFCURVE",
"221 42 OFFCURVE",
"221 75 CURVE SMOOTH",
"221 170 OFFCURVE",
"308 654 OFFCURVE",
"308 683 CURVE SMOOTH",
"308 712 OFFCURVE",
"296 726 OFFCURVE",
"272 726 CURVE SMOOTH",
"245 726 OFFCURVE",
"210 713 OFFCURVE",
"175 692 CURVE",
"201 642 LINE",
"138 260 OFFCURVE",
"120 125 OFFCURVE",
"120 43 CURVE SMOOTH"
);
}
);
width = 369;
},
{
anchors = (
{
name = bottom;
position = "{170, 0}";
},
{
name = ogonek;
position = "{306, 20}";
},
{
name = top;
position = "{255, 710}";
},
{
name = topleft;
position = "{20, 710}";
}
);
hints = (
{
origin = "{0, 21}";
target = "{0, 8}";
}
);
layerId = "72FD83BD-A9F6-48B4-8CEA-331AE6F11CF9";
paths = (
{
closed = 1;
nodes = (
"60 15 OFFCURVE",
"96 -25 OFFCURVE",
"182 -25 CURVE SMOOTH",
"227 -25 OFFCURVE",
"267 -11 OFFCURVE",
"306 20 CURVE",
"284 51 OFFCURVE",
"276 84 OFFCURVE",
"276 145 CURVE SMOOTH",
"276 222 OFFCURVE",
"353 564 OFFCURVE",
"353 632 CURVE SMOOTH",
"353 695 OFFCURVE",
"327 726 OFFCURVE",
"276 726 CURVE SMOOTH",
"215 726 OFFCURVE",
"144 701 OFFCURVE",
"70 653 CURVE",
"123 546 LINE",
"72 254 OFFCURVE",
"60 168 OFFCURVE",
"60 110 CURVE SMOOTH"
);
}
);
width = 382;
}
);
leftKerningGroup = H;
leftMetricsKey = H;
rightKerningGroup = H;
rightMetricsKey = H;
unicode = 0049;
},
{
color = 10;
glyphname = J;
lastChange = "2015-10-18 16:59:44 +0000";
layers = (
{
anchors = (
{
name = bottom;
position = "{200, 0}";
},
{
name = top;
position = "{325, 710}";
}
);
hints = (
{
horizontal = 1;
place = "{-67.5, 21}";
target = up;
type = BottomGhost;
},
{
horizontal = 1;
place = "{1086, -20}";
target = down;
type = TopGhost;
}
);
layerId = "833A345D-F5FC-4136-BC05-A08F75A897C3";
paths = (
{
closed = 1;
nodes = (
"325 -25 OFFCURVE",
"395 72 OFFCURVE",
"424 269 CURVE SMOOTH",
"483 683 LINE",
"381 643 LINE",
"330 269 LINE SMOOTH",
"305 84 OFFCURVE",
"262 31 OFFCURVE",
"157 27 CURVE",
"183 16 LINE",
"167 51 OFFCURVE",
"145 114 OFFCURVE",
"80 114 CURVE SMOOTH",
"34 114 OFFCURVE",
"15 85 OFFCURVE",
"15 58 CURVE SMOOTH",
"15 -1 OFFCURVE",
"81 -25 OFFCURVE",
"139 -25 CURVE SMOOTH"
);
},
{
closed = 1;
nodes = (
"467 585 OFFCURVE",
"514 609 OFFCURVE",
"514 670 CURVE SMOOTH",
"514 706 OFFCURVE",
"490 726 OFFCURVE",
"456 726 CURVE SMOOTH",
"417 726 OFFCURVE",
"389 700 OFFCURVE",
"378 656 CURVE",
"295 660 OFFCURVE",
"187 690 OFFCURVE",
"105 732 CURVE",
"97 721 OFFCURVE",
"90 696 OFFCURVE",
"90 673 CURVE SMOOTH",
"90 610 OFFCURVE",
"162 585 OFFCURVE",
"346 585 CURVE SMOOTH"
);
}
);
width = 523;
},
{
anchors = (
{
name = bottom;
position = "{243, 0}";
},
{
name = top;
position = "{368, 710}";
}
);
hints = (
{
horizontal = 1;
place = "{-45, 21}";
target = up;
type = BottomGhost;
},
{
horizontal = 1;
place = "{724, -20}";
target = down;
type = TopGhost;
}
);
layerId = "72FD83BD-A9F6-48B4-8CEA-331AE6F11CF9";
paths = (
{
closed = 1;
nodes = (
"349 -25 OFFCURVE",
"497 24 OFFCURVE",
"533 278 CURVE SMOOTH",
"582 632 LINE",
"349 545 LINE",
"312 278 LINE SMOOTH",
"290 120 OFFCURVE",
"272 112 OFFCURVE",
"230 88 CURVE",
"265 37 LINE",
"248 168 OFFCURVE",
"178 222 OFFCURVE",
"111 222 CURVE SMOOTH",
"53 222 OFFCURVE",
"0 181 OFFCURVE",
"0 115 CURVE SMOOTH",
"0 34 OFFCURVE",
"84 -25 OFFCURVE",
"203 -25 CURVE SMOOTH"
);
},
{
closed = 1;
nodes = (
"512 480 OFFCURVE",
"605 534 OFFCURVE",
"605 626 CURVE SMOOTH",
"605 689 OFFCURVE",
"568 726 OFFCURVE",
"496 726 CURVE SMOOTH",
"444 726 OFFCURVE",
"399 698 OFFCURVE",
"369 641 CURVE",
"308 645 OFFCURVE",
"181 688 OFFCURVE",
"99 732 CURVE",
"89 697 OFFCURVE",
"84 663 OFFCURVE",
"84 635 CURVE SMOOTH",
"84 523 OFFCURVE",
"159 480 OFFCURVE",
"356 480 CURVE SMOOTH"
);
}
);
width = 610;
}
);
leftKerningGroup = J;
rightKerningGroup = J;
unicode = 004A;
},
{
color = 10;
glyphname = K;
lastChange = "2015-10-18 16:59:44 +0000";
layers = (
{
anchors = (
{
name = bottom;
position = "{321, 0}";
},
{
name = top;
position = "{421, 710}";
}
);
hints = (
{
origin = "{0, 18}";
target = "{0, 5}";
},
{
origin = "{2, 12}";
target = "{2, 3}";
}
);
layerId = "833A345D-F5FC-4136-BC05-A08F75A897C3";
paths = (
{
closed = 1;
nodes = (
"198 -26 OFFCURVE",
"218 -20 OFFCURVE",
"243 -5 CURVE",
"229 13 OFFCURVE",
"221 41 OFFCURVE",
"221 74 CURVE SMOOTH",
"221 169 OFFCURVE",
"308 654 OFFCURVE",
"308 683 CURVE SMOOTH",
"308 712 OFFCURVE",
"296 726 OFFCURVE",
"272 726 CURVE SMOOTH",
"248 726 OFFCURVE",
"213 713 OFFCURVE",
"175 692 CURVE",
"201 642 LINE",
"139 264 OFFCURVE",
"120 124 OFFCURVE",
"120 42 CURVE SMOOTH",
"120 -6 OFFCURVE",
"138 -26 OFFCURVE",
"178 -26 CURVE SMOOTH"
);
},
{
closed = 1;
nodes = (
"601 -25 OFFCURVE",
"636 -13 OFFCURVE",
"649 2 CURVE",
"589 58 OFFCURVE",
"491 237 OFFCURVE",
"420 416 CURVE",
"339 362 LINE",
"440 148 LINE SMOOTH",
"507 1 OFFCURVE",
"527 -25 OFFCURVE",
"579 -25 CURVE SMOOTH"
);
},
{
closed = 1;
nodes = (
"412 386 LINE SMOOTH",
"592 510 OFFCURVE",
"662 584 OFFCURVE",
"662 662 CURVE SMOOTH",
"662 698 OFFCURVE",
"635 725 OFFCURVE",
"601 725 CURVE SMOOTH",
"583 725 OFFCURVE",
"563 719 OFFCURVE",
"550 709 CURVE",
"555 698 OFFCURVE",
"558 688 OFFCURVE",
"558 678 CURVE SMOOTH",
"558 590 OFFCURVE",
"496 518 OFFCURVE",
"287 362 CURVE SMOOTH",
"210 304 LINE",
"212 246 LINE"
);
}
);
width = 676;
},
{
anchors = (
{
name = bottom;
position = "{339, 0}";
},
{
name = top;
position = "{451, 710}";
}
);
hints = (
{
origin = "{0, 18}";
target = "{0, 5}";
},
{
origin = "{2, 12}";
target = "{2, 3}";
}
);
layerId = "72FD83BD-A9F6-48B4-8CEA-331AE6F11CF9";
paths = (
{
closed = 1;
nodes = (
"229 -26 OFFCURVE",
"269 -12 OFFCURVE",
"306 19 CURVE",
"284 50 OFFCURVE",
"276 83 OFFCURVE",
"276 144 CURVE SMOOTH",
"276 221 OFFCURVE",
"353 564 OFFCURVE",
"353 632 CURVE SMOOTH",
"353 695 OFFCURVE",
"327 726 OFFCURVE",
"276 726 CURVE SMOOTH",
"215 726 OFFCURVE",
"144 701 OFFCURVE",
"70 653 CURVE",
"123 546 LINE",
"74 264 OFFCURVE",
"60 169 OFFCURVE",
"60 109 CURVE SMOOTH",
"60 14 OFFCURVE",
"96 -26 OFFCURVE",
"182 -26 CURVE SMOOTH"
);
},
{
closed = 1;
nodes = (
"639 -25 OFFCURVE",
"707 1 OFFCURVE",
"736 30 CURVE",
"666 79 OFFCURVE",
"589 235 OFFCURVE",
"530 446 CURVE",
"347 317 LINE",
"410 139 LINE SMOOTH",
"453 17 OFFCURVE",
"500 -25 OFFCURVE",
"593 -25 CURVE SMOOTH"
);
},
{
closed = 1;
nodes = (
"432 345 LINE SMOOTH",
"639 457 OFFCURVE",
"734 548 OFFCURVE",
"734 635 CURVE SMOOTH",
"734 695 OFFCURVE",
"701 725 OFFCURVE",
"636 725 CURVE SMOOTH",
"592 725 OFFCURVE",
"545 710 OFFCURVE",
"496 680 CURVE",
"501 665 OFFCURVE",
"504 650 OFFCURVE",
"504 633 CURVE SMOOTH",
"504 569 OFFCURVE",
"451 494 OFFCURVE",
"358 425 CURVE SMOOTH",
"182 296 LINE",
"182 210 LINE"
);
}
);
width = 736;
}
);
leftKerningGroup = H;
leftMetricsKey = H;
rightKerningGroup = K;
unicode = 004B;
},
{
color = 10;
glyphname = L;
lastChange = "2015-10-21 23:04:51 +0000";
layers = (
{
anchors = (
{
name = bottom;
position = "{270, 0}";
},
{
name = center;
position = "{410, 385}";
},
{
name = top;
position = "{240, 710}";
},
{
name = topright;
position = "{370, 610}";
}
);
hints = (
{
horizontal = 1;
origin = "{1, 13}";
target = "{1, 9}";
},
{
origin = "{0, 18}";
target = "{0, 5}";
}
);
layerId = "833A345D-F5FC-4136-BC05-A08F75A897C3";
paths = (
{
closed = 1;
nodes = (
"208 -26 OFFCURVE",
"238 -15 OFFCURVE",
"273 10 CURVE",
"238 25 OFFCURVE",
"221 47 OFFCURVE",
"221 74 CURVE SMOOTH",
"221 169 OFFCURVE",
"308 654 OFFCURVE",
"308 683 CURVE SMOOTH",
"308 712 OFFCURVE",
"296 726 OFFCURVE",
"272 726 CURVE SMOOTH",
"245 726 OFFCURVE",
"210 713 OFFCURVE",
"175 692 CURVE",
"201 642 LINE",
"137 254 OFFCURVE",
"120 123 OFFCURVE",
"120 42 CURVE SMOOTH",
"120 -6 OFFCURVE",
"138 -26 OFFCURVE",
"178 -26 CURVE SMOOTH"
);
},
{
closed = 1;
nodes = (
"459 -25 OFFCURVE",
"500 -5 OFFCURVE",
"500 44 CURVE SMOOTH",
"500 54 OFFCURVE",
"499 61 OFFCURVE",
"492 82 CURVE",
"462 71 OFFCURVE",
"433 64 OFFCURVE",
"393 60 CURVE",
"188 60 LINE",
"157 26 LINE",
"198 -3 OFFCURVE",
"282 -25 OFFCURVE",
"363 -25 CURVE SMOOTH"
);
}
);
width = 540;
},
{
anchors = (
{
name = bottom;
position = "{277, 0}";
},
{
name = center;
position = "{477, 385}";
},
{
name = top;
position = "{247, 710}";
},
{
name = topright;
position = "{383, 610}";
}
);
hints = (
{
horizontal = 1;
origin = "{1, 13}";
target = "{1, 9}";
},
{
origin = "{0, 18}";
target = "{0, 5}";
}
);
layerId = "72FD83BD-A9F6-48B4-8CEA-331AE6F11CF9";
paths = (
{
closed = 1;
nodes = (
"229 -26 OFFCURVE",
"269 -12 OFFCURVE",
"306 19 CURVE",
"284 50 OFFCURVE",
"276 83 OFFCURVE",
"276 144 CURVE SMOOTH",
"276 221 OFFCURVE",
"353 564 OFFCURVE",
"353 632 CURVE SMOOTH",
"353 695 OFFCURVE",
"327 726 OFFCURVE",
"276 726 CURVE SMOOTH",
"215 726 OFFCURVE",
"144 701 OFFCURVE",
"70 653 CURVE",
"123 546 LINE",
"74 264 OFFCURVE",
"60 169 OFFCURVE",
"60 109 CURVE SMOOTH",
"60 14 OFFCURVE",
"96 -26 OFFCURVE",
"182 -26 CURVE SMOOTH"
);
},
{
closed = 1;
nodes = (
"489 -25 OFFCURVE",
"543 24 OFFCURVE",
"543 111 CURVE SMOOTH",
"543 138 OFFCURVE",
"539 157 OFFCURVE",
"532 175 CURVE",
"484 156 OFFCURVE",
"433 143 OFFCURVE",
"384 136 CURVE",
"260 136 LINE",
"211 14 LINE",
"288 -18 OFFCURVE",
"339 -25 OFFCURVE",
"393 -25 CURVE SMOOTH"
);
}
);
width = 553;
}
);
leftKerningGroup = H;
leftMetricsKey = H;
rightKerningGroup = L;
unicode = 004C;
},
{
color = 10;
glyphname = M;
lastChange = "2016-03-09 00:41:21 +0000";
layers = (
{
hints = (
{
horizontal = 1;
origin = "{0, 44}";
target = down;
type = TopGhost;
},
{
horizontal = 1;
origin = "{0, 44}";
target = "{0, 8}";
},
{
horizontal = 1;
origin = "{0, 37}";
target = down;
type = TopGhost;
},
{
origin = "{0, 51}";
target = "{0, 5}";
},
{
origin = "{0, 22}";
target = "{0, 31}";
},
{
horizontal = 1;
origin = "{0, 54}";
target = up;
type = BottomGhost;
}
);
layerId = "833A345D-F5FC-4136-BC05-A08F75A897C3";
paths = (
{
closed = 1;
nodes = (
"201 -26 OFFCURVE",
"222 -20 OFFCURVE",
"245 -5 CURVE",
"229 12 OFFCURVE",
"222 35 OFFCURVE",
"222 64 CURVE SMOOTH",
"222 137 OFFCURVE",
"267 411 OFFCURVE",
"292 594 CURVE",
"297 594 LINE",
"417 76 OFFCURVE",
"417 41 OFFCURVE",
"505 41 CURVE SMOOTH",
"530 41 OFFCURVE",
"558 52 OFFCURVE",
"581 72 CURVE",
"600 184 OFFCURVE",
"694 471 OFFCURVE",
"848 594 CURVE",
"853 594 LINE",
"794 222 OFFCURVE",
"782 108 OFFCURVE",
"782 30 CURVE SMOOTH",
"782 -13 OFFCURVE",
"802 -28 OFFCURVE",
"838 -28 CURVE SMOOTH",
"860 -28 OFFCURVE",
"881 -21 OFFCURVE",
"904 -7 CURVE",
"888 11 OFFCURVE",
"881 33 OFFCURVE",
"881 62 CURVE SMOOTH",
"881 160 OFFCURVE",
"966 660 OFFCURVE",
"966 692 CURVE SMOOTH",
"966 723 OFFCURVE",
"951 728 OFFCURVE",
"944 728 CURVE SMOOTH",
"790 728 OFFCURVE",
"580 435 OFFCURVE",
"509 131 CURVE",
"498 131 LINE",
"385 643 OFFCURVE",
"386 726 OFFCURVE",
"270 726 CURVE SMOOTH",
"249 726 OFFCURVE",
"215 717 OFFCURVE",
"175 692 CURVE",
"201 642 LINE",
"136 223 OFFCURVE",
"123 109 OFFCURVE",
"123 32 CURVE SMOOTH",
"123 -11 OFFCURVE",
"143 -26 OFFCURVE",
"181 -26 CURVE SMOOTH"
);
}
);
width = 1031;
},
{
hints = (
{
horizontal = 1;
origin = "{0, 44}";
target = down;
type = TopGhost;
},
{
horizontal = 1;
origin = "{0, 44}";
target = "{0, 8}";
},
{
horizontal = 1;
origin = "{0, 37}";
target = down;
type = TopGhost;
},
{
origin = "{0, 51}";
target = "{0, 5}";
},
{
origin = "{0, 22}";
target = "{0, 31}";
},
{
horizontal = 1;
origin = "{0, 54}";
target = up;
type = BottomGhost;
}
);
layerId = "72FD83BD-A9F6-48B4-8CEA-331AE6F11CF9";
paths = (
{
closed = 1;
nodes = (
"225 -26 OFFCURVE",
"265 -12 OFFCURVE",
"306 19 CURVE",
"286 51 OFFCURVE",
"276 96 OFFCURVE",
"276 164 CURVE SMOOTH",
"276 216 OFFCURVE",
"304 376 OFFCURVE",
"335 510 CURVE",
"345 510 LINE",
"366 125 OFFCURVE",
"405 41 OFFCURVE",
"478 41 CURVE SMOOTH",
"516 41 OFFCURVE",
"558 56 OFFCURVE",
"591 87 CURVE",
"603 203 OFFCURVE",
"662 387 OFFCURVE",
"759 510 CURVE",
"769 510 LINE",
"731 315 OFFCURVE",
"710 195 OFFCURVE",
"710 129 CURVE SMOOTH",
"710 25 OFFCURVE",
"742 -26 OFFCURVE",
"832 -26 CURVE SMOOTH",
"875 -26 OFFCURVE",
"915 -12 OFFCURVE",
"956 19 CURVE",
"936 51 OFFCURVE",
"926 96 OFFCURVE",
"926 164 CURVE SMOOTH",
"926 235 OFFCURVE",
"1003 550 OFFCURVE",
"1003 612 CURVE SMOOTH",
"1003 670 OFFCURVE",
"982 720 OFFCURVE",
"893 720 CURVE SMOOTH",
"686 720 OFFCURVE",
"566 456 OFFCURVE",
"516 293 CURVE",
"504 293 LINE",
"472 665 OFFCURVE",
"405 726 OFFCURVE",
"276 726 CURVE SMOOTH",
"205 726 OFFCURVE",
"132 693 OFFCURVE",
"70 653 CURVE",
"123 546 LINE",
"83 325 OFFCURVE",
"60 196 OFFCURVE",
"60 129 CURVE SMOOTH",
"60 25 OFFCURVE",
"92 -26 OFFCURVE",
"182 -26 CURVE SMOOTH"
);
}
);
width = 1033;
}
);
leftKerningGroup = M;
leftMetricsKey = H;
rightKerningGroup = M;
rightMetricsKey = H;
unicode = 004D;
},
{
color = 10;
glyphname = N;
lastChange = "2015-10-18 16:59:44 +0000";
layers = (
{
anchors = (
{
name = bottom;
position = "{373, 0}";
},
{
name = top;
position = "{498, 710}";
}
);
hints = (
{
origin = "{1, 18}";
target = "{1, 5}";
},
{
origin = "{2, 18}";
target = "{2, 5}";
}
);
layerId = "833A345D-F5FC-4136-BC05-A08F75A897C3";
paths = (
{
closed = 1;
nodes = (
"652 83 LINE",
"584 84 LINE",
"399 656 OFFCURVE",
"365 726 OFFCURVE",
"271 726 CURVE",
"263 624 LINE",
"305 624 LINE",
"497 29 OFFCURVE",
"526 -26 OFFCURVE",
"648 -27 CURVE"
);
},
{
closed = 1;
nodes = (
"199 -26 OFFCURVE",
"219 -20 OFFCURVE",
"243 -5 CURVE",
"229 13 OFFCURVE",
"221 41 OFFCURVE",
"221 74 CURVE SMOOTH",
"221 169 OFFCURVE",
"308 654 OFFCURVE",
"308 683 CURVE SMOOTH",
"308 712 OFFCURVE",
"296 726 OFFCURVE",
"272 726 CURVE SMOOTH",
"245 726 OFFCURVE",
"210 713 OFFCURVE",
"175 692 CURVE",
"201 642 LINE",
"138 259 OFFCURVE",
"120 124 OFFCURVE",
"120 42 CURVE SMOOTH",
"120 -6 OFFCURVE",
"138 -26 OFFCURVE",
"178 -26 CURVE SMOOTH"
);
},
{
closed = 1;
nodes = (
"669 -27 OFFCURVE",
"689 -20 OFFCURVE",
"713 -6 CURVE",
"699 12 OFFCURVE",
"691 41 OFFCURVE",
"691 73 CURVE SMOOTH",
"691 168 OFFCURVE",
"778 654 OFFCURVE",
"778 683 CURVE SMOOTH",
"778 711 OFFCURVE",
"766 726 OFFCURVE",
"742 726 CURVE SMOOTH",
"714 726 OFFCURVE",
"677 713 OFFCURVE",
"640 692 CURVE",
"671 642 LINE",
"608 259 OFFCURVE",
"590 123 OFFCURVE",
"590 41 CURVE SMOOTH",
"590 -6 OFFCURVE",
"608 -27 OFFCURVE",
"648 -27 CURVE SMOOTH"
);
}
);
width = 839;
},
{
anchors = (
{
name = bottom;
position = "{370, 0}";
},
{
name = top;
position = "{495, 710}";
}
);
hints = (
{
origin = "{1, 18}";
target = "{1, 5}";
},
{
origin = "{2, 18}";
target = "{2, 5}";
}
);
layerId = "72FD83BD-A9F6-48B4-8CEA-331AE6F11CF9";
paths = (
{
closed = 1;
nodes = (
"654 243 LINE",
"544 243 LINE",
"477 653 OFFCURVE",
"436 726 OFFCURVE",
"276 726 CURVE",
"289 546 LINE",
"353 546 LINE",
"430 77 OFFCURVE",
"486 -26 OFFCURVE",
"663 -25 CURVE"
);
},
{
closed = 1;
nodes = (
"227 -26 OFFCURVE",
"267 -12 OFFCURVE",
"306 19 CURVE",
"284 50 OFFCURVE",
"276 83 OFFCURVE",
"276 144 CURVE SMOOTH",
"276 221 OFFCURVE",
"353 564 OFFCURVE",
"353 632 CURVE SMOOTH",
"353 695 OFFCURVE",
"327 726 OFFCURVE",
"276 726 CURVE SMOOTH",
"215 726 OFFCURVE",
"144 701 OFFCURVE",
"70 653 CURVE",
"123 546 LINE",
"72 253 OFFCURVE",
"60 167 OFFCURVE",
"60 109 CURVE SMOOTH",
"60 14 OFFCURVE",
"96 -26 OFFCURVE",
"182 -26 CURVE SMOOTH"
);
},
{
closed = 1;
nodes = (
"708 -25 OFFCURVE",
"748 -11 OFFCURVE",
"787 20 CURVE",
"765 51 OFFCURVE",
"757 84 OFFCURVE",
"757 145 CURVE SMOOTH",
"757 222 OFFCURVE",
"834 565 OFFCURVE",
"834 633 CURVE SMOOTH",
"834 696 OFFCURVE",
"808 727 OFFCURVE",
"757 727 CURVE SMOOTH",
"699 727 OFFCURVE",
"631 702 OFFCURVE",
"561 654 CURVE",
"604 547 LINE",
"553 254 OFFCURVE",
"541 168 OFFCURVE",
"541 110 CURVE SMOOTH",
"541 15 OFFCURVE",
"577 -25 OFFCURVE",
"663 -25 CURVE SMOOTH"
);
}
);
width = 863;
}
);
leftKerningGroup = H;
leftMetricsKey = H;
rightKerningGroup = H;
rightMetricsKey = H;
unicode = 004E;
},
{
color = 10;
glyphname = Eng;
lastChange = "2016-03-09 00:41:15 +0000";
layers = (
{
hints = (
{
horizontal = 1;
origin = "{1, 15}";
target = "{0, 4}";
},
{
origin = "{1, 18}";
target = "{1, 5}";
},
{
origin = "{0, 1}";
target = "{2, 0}";
}
);
layerId = "833A345D-F5FC-4136-BC05-A08F75A897C3";
paths = (
{
closed = 1;
nodes = (
"645 83 LINE",
"577 84 LINE",
"394 656 OFFCURVE",
"362 726 OFFCURVE",
"271 726 CURVE",
"263 624 LINE",
"305 624 LINE",
"494 29 OFFCURVE",
"522 -26 OFFCURVE",
"640 -27 CURVE"
);
},
{
closed = 1;
nodes = (
"199 -26 OFFCURVE",
"219 -20 OFFCURVE",
"243 -5 CURVE",
"229 13 OFFCURVE",
"221 41 OFFCURVE",
"221 74 CURVE SMOOTH",
"221 169 OFFCURVE",
"308 654 OFFCURVE",
"308 683 CURVE SMOOTH",
"308 712 OFFCURVE",
"296 726 OFFCURVE",
"272 726 CURVE SMOOTH",
"245 726 OFFCURVE",
"210 713 OFFCURVE",
"175 692 CURVE",
"201 642 LINE",
"138 259 OFFCURVE",
"120 124 OFFCURVE",
"120 42 CURVE SMOOTH",
"120 -6 OFFCURVE",
"138 -26 OFFCURVE",
"178 -26 CURVE SMOOTH"
);
},
{
closed = 1;
nodes = (
"735 402 OFFCURVE",
"779 662 OFFCURVE",
"779 683 CURVE SMOOTH",
"779 711 OFFCURVE",
"766 726 OFFCURVE",
"742 726 CURVE SMOOTH",
"714 726 OFFCURVE",
"678 713 OFFCURVE",
"641 692 CURVE",
"672 642 LINE",
"623 281 LINE SMOOTH",
"569 -82 OFFCURVE",
"503 -174 OFFCURVE",
"296 -174 CURVE",
"296 -207 OFFCURVE",
"336 -240 OFFCURVE",
"390 -240 CURVE SMOOTH",
"578 -240 OFFCURVE",
"665 -79 OFFCURVE",
"708 222 CURVE SMOOTH"
);
}
);
width = 829;
},
{
hints = (
{
horizontal = 1;
origin = "{1, 15}";
target = "{0, 4}";
},
{
origin = "{1, 18}";
target = "{1, 5}";
},
{
origin = "{0, 1}";
target = "{2, 0}";
}
);
layerId = "72FD83BD-A9F6-48B4-8CEA-331AE6F11CF9";
paths = (
{
closed = 1;
nodes = (
"654 243 LINE",
"544 243 LINE",
"477 653 OFFCURVE",
"436 726 OFFCURVE",
"276 726 CURVE",
"289 546 LINE",
"353 546 LINE",
"430 77 OFFCURVE",
"486 -26 OFFCURVE",
"663 -25 CURVE"
);
},
{
closed = 1;
nodes = (
"227 -26 OFFCURVE",
"267 -12 OFFCURVE",
"306 19 CURVE",
"284 50 OFFCURVE",
"276 83 OFFCURVE",
"276 144 CURVE SMOOTH",
"276 221 OFFCURVE",
"353 564 OFFCURVE",
"353 632 CURVE SMOOTH",
"353 695 OFFCURVE",
"327 726 OFFCURVE",
"276 726 CURVE SMOOTH",
"215 726 OFFCURVE",
"144 701 OFFCURVE",
"70 653 CURVE",
"123 546 LINE",
"72 253 OFFCURVE",
"60 167 OFFCURVE",
"60 109 CURVE SMOOTH",
"60 14 OFFCURVE",
"96 -26 OFFCURVE",
"182 -26 CURVE SMOOTH"
);
},
{
closed = 1;
nodes = (
"796 402 OFFCURVE",
"834 585 OFFCURVE",
"834 633 CURVE SMOOTH",
"834 696 OFFCURVE",
"808 727 OFFCURVE",
"757 727 CURVE SMOOTH",
"699 727 OFFCURVE",
"631 702 OFFCURVE",
"561 654 CURVE",
"604 547 LINE",
"537 150 LINE SMOOTH",
"510 -16 OFFCURVE",
"434 -114 OFFCURVE",
"221 -114 CURVE",
"221 -207 OFFCURVE",
"313 -240 OFFCURVE",
"375 -240 CURVE SMOOTH",
"591 -240 OFFCURVE",
"705 -109 OFFCURVE",
"772 268 CURVE SMOOTH"
);
}
);
width = 846;
}
);
leftKerningGroup = Eng;
leftMetricsKey = N;
rightKerningGroup = Eng;
rightMetricsKey = "=N+30";
unicode = 014A;
},
{
color = 10;
glyphname = O;
lastChange = "2015-10-18 16:59:44 +0000";
layers = (
{
anchors = (
{
name = bottom;
position = "{357, 0}";
},
{
name = center;
position = "{407, 355}";
},
{
name = ogonek;
position = "{498, 10}";
},
{
name = top;
position = "{485, 710}";
},
{
name = topleft;
position = "{24, 710}";
},
{
name = topright;
position = "{610, 610}";
}
);
hints = (
{
horizontal = 1;
origin = "{0, 23}";
target = "{0, 2}";
},
{
horizontal = 1;
origin = "{0, 8}";
target = "{0, 17}";
},
{
origin = "{0, 20}";
target = "{0, 5}";
},
{
origin = "{0, 35}";
target = "{0, 26}";
}
);
layerId = "833A345D-F5FC-4136-BC05-A08F75A897C3";
paths = (
{
closed = 1;
nodes = (
"603 157 OFFCURVE",
"466 36 OFFCURVE",
"355 36 CURVE SMOOTH",
"242 36 OFFCURVE",
"167 118 OFFCURVE",
"167 286 CURVE SMOOTH",
"167 510 OFFCURVE",
"301 650 OFFCURVE",
"465 650 CURVE SMOOTH",
"482 650 OFFCURVE",
"509 646 OFFCURVE",
"524 642 CURVE",
"529 654 OFFCURVE",
"531 662 OFFCURVE",
"531 674 CURVE SMOOTH",
"531 709 OFFCURVE",
"500 725 OFFCURVE",
"440 725 CURVE SMOOTH",
"236 725 OFFCURVE",
"60 556 OFFCURVE",
"60 280 CURVE SMOOTH",
"60 94 OFFCURVE",
"168 -25 OFFCURVE",
"334 -25 CURVE SMOOTH",
"551 -25 OFFCURVE",
"710 182 OFFCURVE",
"710 445 CURVE SMOOTH",
"710 547 OFFCURVE",
"673 610 OFFCURVE",
"610 610 CURVE SMOOTH",
"558 610 OFFCURVE",
"520 563 OFFCURVE",
"520 501 CURVE SMOOTH",
"520 441 OFFCURVE",
"542 382 OFFCURVE",
"626 346 CURVE"
);
}
);
width = 737;
},
{
anchors = (
{
name = bottom;
position = "{349, 0}";
},
{
name = center;
position = "{437, 355}";
},
{
name = ogonek;
position = "{526, 10}";
},
{
name = top;
position = "{461, 710}";
},
{
name = topleft;
position = "{25, 710}";
},
{
name = topright;
position = "{611, 622}";
}
);
hints = (
{
horizontal = 1;
origin = "{0, 23}";
target = "{0, 2}";
},
{
horizontal = 1;
origin = "{0, 8}";
target = "{0, 17}";
},
{
origin = "{0, 20}";
target = "{0, 5}";
},
{
origin = "{0, 35}";
target = "{0, 26}";
}
);
layerId = "72FD83BD-A9F6-48B4-8CEA-331AE6F11CF9";
paths = (
{
closed = 1;
nodes = (
"591 169 OFFCURVE",
"493 81 OFFCURVE",
"394 81 CURVE SMOOTH",
"306 81 OFFCURVE",
"248 149 OFFCURVE",
"248 283 CURVE SMOOTH",
"248 441 OFFCURVE",
"334 575 OFFCURVE",
"469 575 CURVE SMOOTH",
"486 575 OFFCURVE",
"513 571 OFFCURVE",
"527 567 CURVE",
"538 591 OFFCURVE",
"541 605 OFFCURVE",
"541 629 CURVE SMOOTH",
"541 695 OFFCURVE",
"506 725 OFFCURVE",
"416 725 CURVE SMOOTH",
"213 725 OFFCURVE",
"30 550 OFFCURVE",
"30 283 CURVE SMOOTH",
"30 101 OFFCURVE",
"154 -25 OFFCURVE",
"346 -25 CURVE SMOOTH",
"579 -25 OFFCURVE",
"753 167 OFFCURVE",
"753 424 CURVE SMOOTH",
"753 547 OFFCURVE",
"701 622 OFFCURVE",
"611 622 CURVE SMOOTH",
"537 622 OFFCURVE",
"482 563 OFFCURVE",
"482 487 CURVE",
"482 412 OFFCURVE",
"515 341 OFFCURVE",
"612 296 CURVE"
);
}
);
width = 773;
}
);
leftKerningGroup = O;
rightKerningGroup = O;
unicode = 004F;
},
{
color = 10;
glyphname = OE;
lastChange = "2016-03-11 12:35:30 +0000";
layers = (
{
anchors = (
{
name = bottom;
position = "{485, 0}";
},
{
name = top;
position = "{598, 710}";
}
);
components = (
{
name = O.alt;
}
);
hints = (
{
horizontal = 1;
origin = "{1, 13}";
target = "{1, 9}";
},
{
horizontal = 1;
origin = "{2, 13}";
target = "{2, 6}";
},
{
horizontal = 1;
origin = "{0, 15}";
target = "{0, 8}";
}
);
layerId = "833A345D-F5FC-4136-BC05-A08F75A897C3";
paths = (
{
closed = 1;
nodes = (
"984 604 OFFCURVE",
"1041 621 OFFCURVE",
"1041 683 CURVE SMOOTH",
"1041 693 OFFCURVE",
"1041 704 OFFCURVE",
"1036 720 CURVE",
"939 704 OFFCURVE",
"897 692 OFFCURVE",
"799 692 CURVE SMOOTH",
"682 692 OFFCURVE",
"583 726 OFFCURVE",
"478 726 CURVE",
"331 608 LINE",
"542 752 OFFCURVE",
"686 604 OFFCURVE",
"933 604 CURVE SMOOTH"
);
},
{
closed = 1;
nodes = (
"924 -27 OFFCURVE",
"977 -6 OFFCURVE",
"977 44 CURVE SMOOTH",
"977 55 OFFCURVE",
"976 62 OFFCURVE",
"969 82 CURVE",
"939 71 OFFCURVE",
"911 64 OFFCURVE",
"871 60 CURVE",
"523 60 LINE",
"473 26 LINE",
"550 -2 OFFCURVE",
"674 -27 OFFCURVE",
"806 -27 CURVE SMOOTH"
);
},
{
closed = 1;
nodes = (
"877 288 OFFCURVE",
"907 313 OFFCURVE",
"907 358 CURVE SMOOTH",
"907 363 OFFCURVE",
"907 370 OFFCURVE",
"907 377 CURVE",
"838 360 LINE",
"784 360 OFFCURVE",
"734 362 OFFCURVE",
"689 367 CURVE",
"676 309 LINE",
"734 294 OFFCURVE",
"776 288 OFFCURVE",
"821 288 CURVE SMOOTH"
);
}
);
width = 1086;
},
{
anchors = (
{
name = bottom;
position = "{525, 0}";
},
{
name = top;
position = "{638, 710}";
}
);
components = (
{
name = O.alt;
}
);
hints = (
{
horizontal = 1;
origin = "{1, 13}";
target = "{1, 9}";
},
{
horizontal = 1;
origin = "{2, 13}";
target = "{2, 6}";
},
{
horizontal = 1;
origin = "{0, 15}";
target = "{0, 8}";
}
);
layerId = "72FD83BD-A9F6-48B4-8CEA-331AE6F11CF9";
paths = (
{
closed = 1;
nodes = (
"1056 493 OFFCURVE",
"1128 555 OFFCURVE",
"1128 656 CURVE SMOOTH",
"1128 676 OFFCURVE",
"1125 698 OFFCURVE",
"1120 721 CURVE",
"1047 696 OFFCURVE",
"960 678 OFFCURVE",
"853 678 CURVE SMOOTH",
"677 678 OFFCURVE",
"629 726 OFFCURVE",
"434 726 CURVE",
"349 548 LINE",
"576 710 OFFCURVE",
"696 493 OFFCURVE",
"937 493 CURVE SMOOTH"
);
},
{
closed = 1;
nodes = (
"1002 -25 OFFCURVE",
"1076 24 OFFCURVE",
"1076 111 CURVE SMOOTH",
"1076 137 OFFCURVE",
"1073 156 OFFCURVE",
"1065 175 CURVE",
"1017 156 OFFCURVE",
"966 143 OFFCURVE",
"917 136 CURVE",
"580 136 LINE",
"539 51 LINE",
"646 -8 OFFCURVE",
"764 -25 OFFCURVE",
"858 -25 CURVE SMOOTH"
);
},
{
closed = 1;
nodes = (
"914 249 OFFCURVE",
"955 284 OFFCURVE",
"955 341 CURVE SMOOTH",
"955 360 OFFCURVE",
"953 377 OFFCURVE",
"950 389 CURVE",
"860 366 LINE",
"818 366 OFFCURVE",
"782 369 OFFCURVE",
"741 376 CURVE",
"721 262 LINE",
"780 252 OFFCURVE",
"812 249 OFFCURVE",
"846 249 CURVE SMOOTH"
);
}
);
width = 1161;
}
);
leftKerningGroup = O;
leftMetricsKey = O;
rightKerningGroup = E;
rightMetricsKey = e;
unicode = 0152;
},
{
color = 10;
glyphname = P;
lastChange = "2015-10-18 16:59:44 +0000";
layers = (
{
hints = (
{
horizontal = 1;
origin = "{0, 16}";
target = "{0, 9}";
},
{
horizontal = 1;
origin = "{0, 3}";
target = "{0, 22}";
},
{
origin = "{0, 6}";
target = "{0, 19}";
},
{
origin = "{1, 21}";
target = "{1, 8}";
},
{
horizontal = 1;
origin = "{1, 2}";
target = up;
type = BottomGhost;
}
);
layerId = "833A345D-F5FC-4136-BC05-A08F75A897C3";
paths = (
{
closed = 1;
nodes = (
"235 583 LINE",
"297 629 OFFCURVE",
"352 656 OFFCURVE",
"408 656 CURVE SMOOTH",
"531 656 OFFCURVE",
"569 575 OFFCURVE",
"569 486 CURVE SMOOTH",
"569 362 OFFCURVE",
"487 270 OFFCURVE",
"345 270 CURVE SMOOTH",
"301 270 OFFCURVE",
"255 281 OFFCURVE",
"220 306 CURVE",
"175 277 LINE",
"231 231 OFFCURVE",
"299 205 OFFCURVE",
"384 205 CURVE SMOOTH",
"582 205 OFFCURVE",
"672 345 OFFCURVE",
"672 500 CURVE SMOOTH",
"672 617 OFFCURVE",
"599 724 OFFCURVE",
"464 724 CURVE SMOOTH",
"351 724 OFFCURVE",
"297 674 OFFCURVE",
"235 610 CURVE"
);
},
{
closed = 1;
nodes = (
"120 -6 OFFCURVE",
"138 -26 OFFCURVE",
"178 -26 CURVE SMOOTH",
"199 -26 OFFCURVE",
"219 -20 OFFCURVE",
"243 -5 CURVE",
"229 13 OFFCURVE",
"221 41 OFFCURVE",
"221 74 CURVE SMOOTH",
"221 169 OFFCURVE",
"308 654 OFFCURVE",
"308 683 CURVE SMOOTH",
"308 712 OFFCURVE",
"296 726 OFFCURVE",
"272 726 CURVE SMOOTH",
"245 726 OFFCURVE",
"210 713 OFFCURVE",
"175 692 CURVE",
"201 642 LINE",
"138 259 OFFCURVE",
"120 124 OFFCURVE",
"120 42 CURVE SMOOTH"
);
}
);
width = 687;
},
{
hints = (
{
horizontal = 1;
origin = "{0, 16}";
target = "{0, 9}";
},
{
horizontal = 1;
origin = "{0, 3}";
target = "{0, 22}";
},
{
origin = "{0, 6}";
target = "{0, 19}";
},
{
origin = "{1, 21}";
target = "{1, 8}";
},
{
horizontal = 1;
origin = "{1, 2}";
target = up;
type = BottomGhost;
}
);
layerId = "72FD83BD-A9F6-48B4-8CEA-331AE6F11CF9";
paths = (
{
closed = 1;
nodes = (
"265 538 LINE",
"311 575 OFFCURVE",
"352 596 OFFCURVE",
"393 596 CURVE SMOOTH",
"461 596 OFFCURVE",
"494 543 OFFCURVE",
"494 486 CURVE SMOOTH",
"494 396 OFFCURVE",
"423 330 OFFCURVE",
"330 330 CURVE SMOOTH",
"300 330 OFFCURVE",
"267 338 OFFCURVE",
"243 357 CURVE",
"243 238 LINE",
"288 214 OFFCURVE",
"326 205 OFFCURVE",
"383 205 CURVE SMOOTH",
"612 205 OFFCURVE",
"717 360 OFFCURVE",
"717 500 CURVE SMOOTH",
"717 617 OFFCURVE",
"638 724 OFFCURVE",
"494 724 CURVE SMOOTH",
"381 724 OFFCURVE",
"327 687 OFFCURVE",
"265 640 CURVE"
);
},
{
closed = 1;
nodes = (
"60 14 OFFCURVE",
"96 -26 OFFCURVE",
"182 -26 CURVE SMOOTH",
"227 -26 OFFCURVE",
"267 -12 OFFCURVE",
"306 19 CURVE",
"284 50 OFFCURVE",
"276 83 OFFCURVE",
"276 144 CURVE SMOOTH",
"276 221 OFFCURVE",
"353 564 OFFCURVE",
"353 632 CURVE SMOOTH",
"353 695 OFFCURVE",
"327 726 OFFCURVE",
"276 726 CURVE SMOOTH",
"215 726 OFFCURVE",
"144 701 OFFCURVE",
"70 653 CURVE",
"123 546 LINE",
"72 253 OFFCURVE",
"60 167 OFFCURVE",
"60 109 CURVE SMOOTH"
);
}
);
width = 717;
}
);
leftKerningGroup = H;
leftMetricsKey = H;
rightKerningGroup = P;
unicode = 0050;
},
{
color = 10;
glyphname = Thorn;
lastChange = "2015-10-18 16:59:44 +0000";
layers = (
{
hints = (
{
horizontal = 1;
origin = "{0, 16}";
target = "{0, 9}";
},
{
horizontal = 1;
origin = "{0, 3}";
target = "{0, 22}";
},
{
origin = "{1, 21}";
target = "{1, 8}";
},
{
origin = "{0, 6}";
target = "{0, 19}";
}
);
layerId = "833A345D-F5FC-4136-BC05-A08F75A897C3";
paths = (
{
closed = 1;
nodes = (
"235 489 LINE",
"297 535 OFFCURVE",
"352 562 OFFCURVE",
"408 562 CURVE SMOOTH",
"531 562 OFFCURVE",
"569 481 OFFCURVE",
"569 392 CURVE SMOOTH",
"569 268 OFFCURVE",
"487 176 OFFCURVE",
"345 176 CURVE SMOOTH",
"301 176 OFFCURVE",
"255 187 OFFCURVE",
"220 212 CURVE",
"175 183 LINE",
"231 137 OFFCURVE",
"299 111 OFFCURVE",
"384 111 CURVE SMOOTH",
"582 111 OFFCURVE",
"672 251 OFFCURVE",
"672 406 CURVE SMOOTH",
"672 523 OFFCURVE",
"599 630 OFFCURVE",
"464 630 CURVE SMOOTH",
"351 630 OFFCURVE",
"297 580 OFFCURVE",
"235 516 CURVE"
);
},
{
closed = 1;
nodes = (
"120 -6 OFFCURVE",
"138 -26 OFFCURVE",
"178 -26 CURVE SMOOTH",
"199 -26 OFFCURVE",
"219 -20 OFFCURVE",
"243 -5 CURVE",
"229 13 OFFCURVE",
"221 41 OFFCURVE",
"221 74 CURVE SMOOTH",
"221 169 OFFCURVE",
"308 654 OFFCURVE",
"308 683 CURVE SMOOTH",
"308 712 OFFCURVE",
"296 726 OFFCURVE",
"272 726 CURVE SMOOTH",
"245 726 OFFCURVE",
"210 713 OFFCURVE",
"175 692 CURVE",
"201 642 LINE",
"138 259 OFFCURVE",
"120 124 OFFCURVE",
"120 42 CURVE SMOOTH"
);
}
);
width = 702;
},
{
hints = (
{
horizontal = 1;
origin = "{0, 16}";
target = "{0, 9}";
},
{
horizontal = 1;
origin = "{0, 3}";
target = "{0, 22}";
},
{
origin = "{1, 21}";
target = "{1, 8}";
},
{
origin = "{0, 6}";
target = "{0, 19}";
}
);
layerId = "72FD83BD-A9F6-48B4-8CEA-331AE6F11CF9";
paths = (
{
closed = 1;
nodes = (
"265 444 LINE",
"311 481 OFFCURVE",
"352 502 OFFCURVE",
"393 502 CURVE SMOOTH",
"461 502 OFFCURVE",
"494 449 OFFCURVE",
"494 392 CURVE SMOOTH",
"494 302 OFFCURVE",
"423 236 OFFCURVE",
"330 236 CURVE SMOOTH",
"300 236 OFFCURVE",
"267 244 OFFCURVE",
"243 263 CURVE",
"243 144 LINE",
"288 120 OFFCURVE",
"326 111 OFFCURVE",
"383 111 CURVE SMOOTH",
"612 111 OFFCURVE",
"717 266 OFFCURVE",
"717 406 CURVE SMOOTH",
"717 523 OFFCURVE",
"638 630 OFFCURVE",
"494 630 CURVE SMOOTH",
"381 630 OFFCURVE",
"327 593 OFFCURVE",
"265 546 CURVE"
);
},
{
closed = 1;
nodes = (
"60 14 OFFCURVE",
"96 -26 OFFCURVE",
"182 -26 CURVE SMOOTH",
"227 -26 OFFCURVE",
"267 -12 OFFCURVE",
"306 19 CURVE",
"284 50 OFFCURVE",
"276 83 OFFCURVE",
"276 144 CURVE SMOOTH",
"276 221 OFFCURVE",
"353 564 OFFCURVE",
"353 632 CURVE SMOOTH",
"353 695 OFFCURVE",
"327 726 OFFCURVE",
"276 726 CURVE SMOOTH",
"215 726 OFFCURVE",
"144 701 OFFCURVE",
"70 653 CURVE",
"123 546 LINE",
"72 253 OFFCURVE",
"60 167 OFFCURVE",
"60 109 CURVE SMOOTH"
);
}
);
width = 732;
}
);
leftKerningGroup = H;
leftMetricsKey = P;
rightKerningGroup = Thorn;
rightMetricsKey = P;
unicode = 00DE;
},
{
color = 10;
glyphname = Q;
lastChange = "2016-03-09 00:41:29 +0000";
layers = (
{
components = (
{
name = O;
}
);
layerId = "833A345D-F5FC-4136-BC05-A08F75A897C3";
paths = (
{
closed = 1;
nodes = (
"109 -97 OFFCURVE",
"133 -115 OFFCURVE",
"163 -115 CURVE SMOOTH",
"208 -115 OFFCURVE",
"241 -87 OFFCURVE",
"257 -58 CURVE",
"318 -99 OFFCURVE",
"422 -172 OFFCURVE",
"536 -172 CURVE SMOOTH",
"603 -172 OFFCURVE",
"654 -135 OFFCURVE",
"654 -58 CURVE SMOOTH",
"654 -44 OFFCURVE",
"652 -32 OFFCURVE",
"652 -22 CURVE",
"605 -36 OFFCURVE",
"555 -45 OFFCURVE",
"491 -45 CURVE SMOOTH",
"369 -45 OFFCURVE",
"268 0 OFFCURVE",
"188 0 CURVE SMOOTH",
"146 0 OFFCURVE",
"109 -20 OFFCURVE",
"109 -62 CURVE SMOOTH"
);
}
);
width = 755;
},
{
components = (
{
name = O;
}
);
layerId = "72FD83BD-A9F6-48B4-8CEA-331AE6F11CF9";
paths = (
{
closed = 1;
nodes = (
"73 -127 OFFCURVE",
"98 -166 OFFCURVE",
"148 -166 CURVE SMOOTH",
"173 -166 OFFCURVE",
"223 -157 OFFCURVE",
"260 -107 CURVE",
"330 -150 OFFCURVE",
"453 -223 OFFCURVE",
"555 -223 CURVE SMOOTH",
"655 -223 OFFCURVE",
"700 -156 OFFCURVE",
"700 -82 CURVE SMOOTH",
"700 -60 OFFCURVE",
"697 -38 OFFCURVE",
"689 -16 CURVE",
"627 -39 OFFCURVE",
"568 -46 OFFCURVE",
"510 -46 CURVE SMOOTH",
"397 -46 OFFCURVE",
"287 0 OFFCURVE",
"183 0 CURVE SMOOTH",
"107 0 OFFCURVE",
"73 -47 OFFCURVE",
"73 -90 CURVE SMOOTH"
);
}
);
width = 796;
}
);
leftKerningGroup = O;
leftMetricsKey = O;
rightKerningGroup = O;
rightMetricsKey = O;
unicode = 0051;
},
{
color = 10;
glyphname = R;
lastChange = "2015-10-18 16:59:44 +0000";
layers = (
{
anchors = (
{
name = bottom;
position = "{364, 0}";
},
{
name = top;
position = "{439, 710}";
}
);
hints = (
{
horizontal = 1;
origin = "{0, 16}";
target = "{0, 9}";
},
{
horizontal = 1;
origin = "{0, 3}";
target = "{0, 22}";
},
{
origin = "{0, 6}";
target = "{0, 19}";
},
{
origin = "{1, 21}";
target = "{1, 8}";
}
);
layerId = "833A345D-F5FC-4136-BC05-A08F75A897C3";
paths = (
{
closed = 1;
nodes = (
"235 583 LINE",
"297 629 OFFCURVE",
"352 656 OFFCURVE",
"408 656 CURVE SMOOTH",
"531 656 OFFCURVE",
"569 584 OFFCURVE",
"569 501 CURVE SMOOTH",
"569 396 OFFCURVE",
"487 315 OFFCURVE",
"345 315 CURVE SMOOTH",
"301 315 OFFCURVE",
"255 326 OFFCURVE",
"220 351 CURVE",
"190 322 LINE",
"253 267 OFFCURVE",
"306 250 OFFCURVE",
"384 250 CURVE SMOOTH",
"582 250 OFFCURVE",
"672 392 OFFCURVE",
"672 515 CURVE SMOOTH",
"672 626 OFFCURVE",
"599 724 OFFCURVE",
"464 724 CURVE SMOOTH",
"351 724 OFFCURVE",
"297 674 OFFCURVE",
"235 610 CURVE"
);
},
{
closed = 1;
nodes = (
"120 -6 OFFCURVE",
"138 -26 OFFCURVE",
"178 -26 CURVE SMOOTH",
"199 -26 OFFCURVE",
"219 -20 OFFCURVE",
"243 -5 CURVE",
"229 13 OFFCURVE",
"221 41 OFFCURVE",
"221 74 CURVE SMOOTH",
"221 199 OFFCURVE",
"308 654 OFFCURVE",
"308 683 CURVE SMOOTH",
"308 712 OFFCURVE",
"296 726 OFFCURVE",
"272 726 CURVE SMOOTH",
"245 726 OFFCURVE",
"210 713 OFFCURVE",
"175 692 CURVE",
"201 642 LINE",
"138 259 OFFCURVE",
"120 124 OFFCURVE",
"120 42 CURVE SMOOTH"
);
},
{
closed = 1;
nodes = (
"400 286 LINE",
"466 148 LINE SMOOTH",
"533 1 OFFCURVE",
"553 -25 OFFCURVE",
"605 -25 CURVE SMOOTH",
"627 -25 OFFCURVE",
"662 -13 OFFCURVE",
"675 2 CURVE",
"626 49 OFFCURVE",
"550 178 OFFCURVE",
"485 322 CURVE"
);
}
);
width = 720;
},
{
anchors = (
{
name = bottom;
position = "{332, 0}";
},
{
name = top;
position = "{437, 710}";
}
);
hints = (
{
horizontal = 1;
origin = "{0, 16}";
target = "{0, 9}";
},
{
horizontal = 1;
origin = "{0, 3}";
target = "{0, 22}";
},
{
origin = "{0, 6}";
target = "{0, 19}";
},
{
origin = "{1, 21}";
target = "{1, 8}";
}
);
layerId = "72FD83BD-A9F6-48B4-8CEA-331AE6F11CF9";
paths = (
{
closed = 1;
nodes = (
"265 538 LINE",
"311 575 OFFCURVE",
"352 596 OFFCURVE",
"393 596 CURVE SMOOTH",
"461 596 OFFCURVE",
"494 546 OFFCURVE",
"494 501 CURVE SMOOTH",
"494 415 OFFCURVE",
"423 360 OFFCURVE",
"330 360 CURVE SMOOTH",
"300 360 OFFCURVE",
"267 368 OFFCURVE",
"243 387 CURVE",
"243 268 LINE",
"288 244 OFFCURVE",
"326 235 OFFCURVE",
"383 235 CURVE SMOOTH",
"612 235 OFFCURVE",
"717 377 OFFCURVE",
"717 515 CURVE SMOOTH",
"717 620 OFFCURVE",
"638 724 OFFCURVE",
"494 724 CURVE SMOOTH",
"381 724 OFFCURVE",
"327 687 OFFCURVE",
"265 640 CURVE"
);
},
{
closed = 1;
nodes = (
"60 14 OFFCURVE",
"96 -26 OFFCURVE",
"182 -26 CURVE SMOOTH",
"227 -26 OFFCURVE",
"267 -12 OFFCURVE",
"306 19 CURVE",
"284 50 OFFCURVE",
"276 83 OFFCURVE",
"276 144 CURVE SMOOTH",
"276 251 OFFCURVE",
"353 564 OFFCURVE",
"353 632 CURVE SMOOTH",
"353 695 OFFCURVE",
"327 726 OFFCURVE",
"276 726 CURVE SMOOTH",
"215 726 OFFCURVE",
"144 701 OFFCURVE",
"70 653 CURVE",
"123 546 LINE",
"72 253 OFFCURVE",
"60 167 OFFCURVE",
"60 109 CURVE SMOOTH"
);
},
{
closed = 1;
nodes = (
"375 269 LINE",
"421 139 LINE SMOOTH",
"464 17 OFFCURVE",
"511 -25 OFFCURVE",
"604 -25 CURVE SMOOTH",
"650 -25 OFFCURVE",
"718 1 OFFCURVE",
"747 30 CURVE",
"688 71 OFFCURVE",
"625 188 OFFCURVE",
"571 349 CURVE"
);
}
);
width = 747;
}
);
leftKerningGroup = H;
leftMetricsKey = H;
rightKerningGroup = R;
unicode = 0052;
},
{
color = 10;
glyphname = S;
lastChange = "2015-10-18 16:59:44 +0000";
layers = (
{
anchors = (
{
name = bottom;
position = "{309, 0}";
},
{
name = top;
position = "{419, 710}";
}
);
hints = (
{
horizontal = 1;
origin = "{0, 35}";
target = "{0, 26}";
},
{
origin = "{0, 29}";
target = "{0, 5}";
},
{
origin = "{0, 23}";
target = "{0, 2}";
}
);
layerId = "833A345D-F5FC-4136-BC05-A08F75A897C3";
paths = (
{
closed = 1;
nodes = (
"537 -25 OFFCURVE",
"627 81 OFFCURVE",
"627 184 CURVE SMOOTH",
"627 405 OFFCURVE",
"233 382 OFFCURVE",
"233 516 CURVE SMOOTH",
"233 587 OFFCURVE",
"316 645 OFFCURVE",
"467 663 CURVE",
"485 595 OFFCURVE",
"521 555 OFFCURVE",
"583 555 CURVE SMOOTH",
"640 555 OFFCURVE",
"678 581 OFFCURVE",
"678 636 CURVE SMOOTH",
"678 690 OFFCURVE",
"590 726 OFFCURVE",
"476 726 CURVE SMOOTH",
"260 726 OFFCURVE",
"126 625 OFFCURVE",
"126 505 CURVE SMOOTH",
"126 277 OFFCURVE",
"520 311 OFFCURVE",
"520 164 CURVE SMOOTH",
"520 81 OFFCURVE",
"437 39 OFFCURVE",
"316 39 CURVE SMOOTH",
"239 39 OFFCURVE",
"161 80 OFFCURVE",
"122 165 CURVE",
"97 152 OFFCURVE",
"80 128 OFFCURVE",
"80 100 CURVE SMOOTH",
"80 17 OFFCURVE",
"187 -25 OFFCURVE",
"321 -25 CURVE SMOOTH"
);
}
);
width = 713;
},
{
anchors = (
{
name = bottom;
position = "{303, 0}";
},
{
name = top;
position = "{428, 710}";
}
);
hints = (
{
horizontal = 1;
origin = "{0, 35}";
target = "{0, 26}";
},
{
origin = "{0, 29}";
target = "{0, 5}";
},
{
origin = "{0, 23}";
target = "{0, 2}";
}
);
layerId = "72FD83BD-A9F6-48B4-8CEA-331AE6F11CF9";
paths = (
{
closed = 1;
nodes = (
"480 -25 OFFCURVE",
"664 46 OFFCURVE",
"664 203 CURVE SMOOTH",
"664 438 OFFCURVE",
"293 398 OFFCURVE",
"293 507 CURVE SMOOTH",
"293 554 OFFCURVE",
"355 586 OFFCURVE",
"434 594 CURVE",
"465 521 OFFCURVE",
"522 486 OFFCURVE",
"586 486 CURVE SMOOTH",
"652 486 OFFCURVE",
"709 525 OFFCURVE",
"709 595 CURVE SMOOTH",
"709 672 OFFCURVE",
"611 726 OFFCURVE",
"452 726 CURVE SMOOTH",
"248 726 OFFCURVE",
"75 649 OFFCURVE",
"75 482 CURVE SMOOTH",
"75 241 OFFCURVE",
"446 272 OFFCURVE",
"446 167 CURVE SMOOTH",
"446 114 OFFCURVE",
"384 91 OFFCURVE",
"310 91 CURVE SMOOTH",
"204 91 OFFCURVE",
"135 144 OFFCURVE",
"84 216 CURVE",
"53 189 OFFCURVE",
"35 147 OFFCURVE",
"35 112 CURVE SMOOTH",
"35 32 OFFCURVE",
"118 -25 OFFCURVE",
"321 -25 CURVE SMOOTH"
);
}
);
width = 729;
}
);
leftKerningGroup = S;
rightKerningGroup = S;
unicode = 0053;
},
{
color = 10;
glyphname = T;
lastChange = "2015-10-18 16:59:44 +0000";
layers = (
{
anchors = (
{
name = bottom;
position = "{184, 0}";
},
{
name = center;
position = "{297, 350}";
},
{
name = top;
position = "{359, 710}";
}
);
hints = (
{
origin = "{0, 12}";
target = "{0, 5}";
},
{
horizontal = 1;
origin = "{1, 16}";
target = "{1, 6}";
}
);
layerId = "833A345D-F5FC-4136-BC05-A08F75A897C3";
paths = (
{
closed = 1;
nodes = (
"277 -26 OFFCURVE",
"297 -20 OFFCURVE",
"320 -5 CURVE",
"305 12 OFFCURVE",
"298 35 OFFCURVE",
"298 64 CURVE SMOOTH",
"298 133 OFFCURVE",
"358 490 OFFCURVE",
"383 656 CURVE",
"285 675 LINE",
"223 293 OFFCURVE",
"197 106 OFFCURVE",
"197 32 CURVE SMOOTH",
"197 -11 OFFCURVE",
"217 -26 OFFCURVE",
"255 -26 CURVE SMOOTH"
);
},
{
closed = 1;
nodes = (
"554 611 OFFCURVE",
"587 634 OFFCURVE",
"587 675 CURVE SMOOTH",
"587 690 OFFCURVE",
"585 704 OFFCURVE",
"580 713 CURVE",
"416 691 LINE",
"328 692 OFFCURVE",
"247 715 OFFCURVE",
"165 715 CURVE SMOOTH",
"112 715 OFFCURVE",
"77 708 OFFCURVE",
"77 651 CURVE SMOOTH",
"77 635 OFFCURVE",
"80 623 OFFCURVE",
"85 613 CURVE",
"249 634 LINE",
"337 634 OFFCURVE",
"417 611 OFFCURVE",
"500 611 CURVE SMOOTH"
);
}
);
width = 530;
},
{
anchors = (
{
name = bottom;
position = "{271, 0}";
},
{
name = center;
position = "{312, 305}";
},
{
name = top;
position = "{386, 710}";
}
);
hints = (
{
origin = "{0, 12}";
target = "{0, 5}";
},
{
horizontal = 1;
origin = "{1, 16}";
target = "{1, 6}";
}
);
layerId = "72FD83BD-A9F6-48B4-8CEA-331AE6F11CF9";
paths = (
{
closed = 1;
nodes = (
"340 -26 OFFCURVE",
"380 -12 OFFCURVE",
"421 19 CURVE",
"401 51 OFFCURVE",
"391 96 OFFCURVE",
"391 164 CURVE SMOOTH",
"391 223 OFFCURVE",
"433 419 OFFCURVE",
"460 564 CURVE",
"249 606 LINE",
"202 353 OFFCURVE",
"175 205 OFFCURVE",
"175 129 CURVE SMOOTH",
"175 25 OFFCURVE",
"207 -26 OFFCURVE",
"297 -26 CURVE SMOOTH"
);
},
{
closed = 1;
nodes = (
"607 485 OFFCURVE",
"664 536 OFFCURVE",
"664 618 CURVE SMOOTH",
"664 655 OFFCURVE",
"657 687 OFFCURVE",
"646 713 CURVE",
"494 674 LINE",
"388 677 OFFCURVE",
"291 715 OFFCURVE",
"189 715 CURVE SMOOTH",
"97 715 OFFCURVE",
"40 664 OFFCURVE",
"40 582 CURVE SMOOTH",
"40 545 OFFCURVE",
"47 513 OFFCURVE",
"58 487 CURVE",
"210 526 LINE",
"316 523 OFFCURVE",
"413 485 OFFCURVE",
"515 485 CURVE SMOOTH"
);
}
);
width = 644;
}
);
leftKerningGroup = T;
rightKerningGroup = T;
unicode = 0054;
},
{
color = 10;
glyphname = U;
lastChange = "2016-03-09 00:41:34 +0000";
layers = (
{
anchors = (
{
name = bottom;
position = "{359, 0}";
},
{
name = ogonek;
position = "{678, -5}";
},
{
name = top;
position = "{491, 710}";
},
{
name = topright;
position = "{760, 705}";
}
);
hints = (
{
horizontal = 1;
origin = "{0, 39}";
target = "{0, 20}";
},
{
origin = "{0, 36}";
target = "{0, 23}";
},
{
origin = "{0, 46}";
target = "{0, 5}";
}
);
layerId = "833A345D-F5FC-4136-BC05-A08F75A897C3";
paths = (
{
closed = 1;
nodes = (
"637 -26 OFFCURVE",
"656 -20 OFFCURVE",
"678 -5 CURVE",
"668 13 OFFCURVE",
"663 35 OFFCURVE",
"663 64 CURVE SMOOTH",
"663 281 OFFCURVE",
"723 573 OFFCURVE",
"760 705 CURVE",
"741 720 OFFCURVE",
"721 727 OFFCURVE",
"706 727 CURVE SMOOTH",
"589 727 OFFCURVE",
"588 536 OFFCURVE",
"588 429 CURVE SMOOTH",
"588 380 OFFCURVE",
"592 339 OFFCURVE",
"592 321 CURVE",
"528 157 OFFCURVE",
"398 49 OFFCURVE",
"312 49 CURVE SMOOTH",
"233 49 OFFCURVE",
"217 95 OFFCURVE",
"217 167 CURVE SMOOTH",
"217 252 OFFCURVE",
"307 655 OFFCURVE",
"307 683 CURVE SMOOTH",
"307 711 OFFCURVE",
"293 727 OFFCURVE",
"270 727 CURVE SMOOTH",
"243 727 OFFCURVE",
"201 711 OFFCURVE",
"175 692 CURVE",
"201 642 LINE",
"141 339 OFFCURVE",
"121 214 OFFCURVE",
"121 145 CURVE SMOOTH",
"121 74 OFFCURVE",
"150 -22 OFFCURVE",
"269 -22 CURVE SMOOTH",
"409 -22 OFFCURVE",
"516 90 OFFCURVE",
"575 202 CURVE",
"580 201 LINE",
"569 158 OFFCURVE",
"561 114 OFFCURVE",
"561 76 CURVE SMOOTH",
"561 25 OFFCURVE",
"571 -26 OFFCURVE",
"620 -26 CURVE SMOOTH"
);
}
);
width = 794;
},
{
anchors = (
{
name = bottom;
position = "{353, 0}";
},
{
name = ogonek;
position = "{744, 19}";
},
{
name = top;
position = "{465, 710}";
},
{
name = topright;
position = "{806, 706}";
}
);
hints = (
{
horizontal = 1;
origin = "{0, 39}";
target = "{0, 20}";
},
{
origin = "{0, 36}";
target = "{0, 23}";
},
{
origin = "{0, 46}";
target = "{0, 5}";
}
);
layerId = "72FD83BD-A9F6-48B4-8CEA-331AE6F11CF9";
paths = (
{
closed = 1;
nodes = (
"667 -26 OFFCURVE",
"707 -12 OFFCURVE",
"744 19 CURVE",
"723 49 OFFCURVE",
"714 95 OFFCURVE",
"714 164 CURVE SMOOTH",
"714 285 OFFCURVE",
"765 553 OFFCURVE",
"806 706 CURVE",
"780 718 OFFCURVE",
"748 725 OFFCURVE",
"713 725 CURVE SMOOTH",
"584 725 OFFCURVE",
"492 611 OFFCURVE",
"492 451 CURVE SMOOTH",
"492 404 OFFCURVE",
"499 360 OFFCURVE",
"514 321 CURVE",
"472 205 OFFCURVE",
"404 130 OFFCURVE",
"340 130 CURVE SMOOTH",
"300 130 OFFCURVE",
"281 155 OFFCURVE",
"281 209 CURVE SMOOTH",
"281 268 OFFCURVE",
"353 581 OFFCURVE",
"353 632 CURVE SMOOTH",
"353 696 OFFCURVE",
"329 725 OFFCURVE",
"276 725 CURVE SMOOTH",
"216 725 OFFCURVE",
"162 706 OFFCURVE",
"70 653 CURVE",
"123 546 LINE",
"72 256 OFFCURVE",
"64 206 OFFCURVE",
"64 155 CURVE SMOOTH",
"64 36 OFFCURVE",
"118 -25 OFFCURVE",
"225 -25 CURVE SMOOTH",
"337 -25 OFFCURVE",
"442 48 OFFCURVE",
"504 170 CURVE",
"514 171 LINE",
"507 149 OFFCURVE",
"504 124 OFFCURVE",
"504 95 CURVE SMOOTH",
"504 16 OFFCURVE",
"545 -26 OFFCURVE",
"620 -26 CURVE SMOOTH"
);
}
);
width = 811;
}
);
leftKerningGroup = U;
leftMetricsKey = H;
rightKerningGroup = U;
rightMetricsKey = "=H-10";
unicode = 0055;
},
{
color = 10;
glyphname = V;
lastChange = "2015-10-18 16:59:44 +0000";
layers = (
{
hints = (
{
horizontal = 1;
origin = "{0, 2}";
target = "{0, 22}";
},
{
origin = "{0, 34}";
target = "{0, 25}";
},
{
origin = "{0, 18}";
target = "{0, 9}";
}
);
layerId = "833A345D-F5FC-4136-BC05-A08F75A897C3";
paths = (
{
closed = 1;
nodes = (
"93 24 OFFCURVE",
"116 -30 OFFCURVE",
"209 -30 CURVE SMOOTH",
"245 -30 OFFCURVE",
"290 -17 OFFCURVE",
"306 -1 CURVE",
"285 27 LINE",
"483 314 OFFCURVE",
"589 537 OFFCURVE",
"589 640 CURVE SMOOTH",
"589 692 OFFCURVE",
"568 726 OFFCURVE",
"537 726 CURVE SMOOTH",
"515 726 OFFCURVE",
"504 724 OFFCURVE",
"463 704 CURVE",
"481 675 OFFCURVE",
"487 642 OFFCURVE",
"487 599 CURVE SMOOTH",
"487 512 OFFCURVE",
"411 356 OFFCURVE",
"209 59 CURVE",
"197 59 LINE",
"197 73 OFFCURVE",
"197 75 OFFCURVE",
"197 326 CURVE SMOOTH",
"197 624 OFFCURVE",
"180 726 OFFCURVE",
"85 726 CURVE SMOOTH",
"61 726 OFFCURVE",
"40 719 OFFCURVE",
"20 704 CURVE",
"112 605 OFFCURVE",
"93 405 OFFCURVE",
"93 214 CURVE SMOOTH"
);
}
);
width = 589;
},
{
hints = (
{
horizontal = 1;
origin = "{0, 2}";
target = "{0, 22}";
},
{
origin = "{0, 34}";
target = "{0, 25}";
},
{
origin = "{0, 18}";
target = "{0, 9}";
}
);
layerId = "72FD83BD-A9F6-48B4-8CEA-331AE6F11CF9";
paths = (
{
closed = 1;
nodes = (
"85 40 OFFCURVE",
"141 -30 OFFCURVE",
"284 -30 CURVE SMOOTH",
"369 -30 OFFCURVE",
"477 9 OFFCURVE",
"538 64 CURVE",
"523 120 LINE",
"682 431 OFFCURVE",
"727 547 OFFCURVE",
"727 628 CURVE SMOOTH",
"727 692 OFFCURVE",
"695 726 OFFCURVE",
"634 726 CURVE SMOOTH",
"588 726 OFFCURVE",
"532 709 OFFCURVE",
"493 681 CURVE",
"509 651 OFFCURVE",
"515 622 OFFCURVE",
"515 587 CURVE SMOOTH",
"515 510 OFFCURVE",
"448 339 OFFCURVE",
"300 104 CURVE",
"288 104 LINE",
"291 167 OFFCURVE",
"294 270 OFFCURVE",
"294 405 CURVE SMOOTH",
"294 651 OFFCURVE",
"241 726 OFFCURVE",
"145 726 CURVE SMOOTH",
"100 726 OFFCURVE",
"59 711 OFFCURVE",
"20 681 CURVE",
"101 593 OFFCURVE",
"85 424 OFFCURVE",
"85 226 CURVE SMOOTH"
);
}
);
width = 727;
}
);
leftKerningGroup = V;
rightKerningGroup = V;
unicode = 0056;
userData = {
RMXScaler = {
source = v;
};
};
},
{
color = 10;
glyphname = W;
lastChange = "2016-03-11 12:35:39 +0000";
layers = (
{
anchors = (
{
name = bottom;
position = "{424, 0}";
},
{
name = top;
position = "{549, 710}";
}
);
hints = (
{
horizontal = 1;
origin = "{0, 2}";
target = "{0, 21}";
},
{
origin = "{0, 33}";
target = "{0, 24}";
},
{
origin = "{0, 17}";
target = "{0, 8}";
},
{
origin = "{1, 18}";
target = "{1, 9}";
}
);
layerId = "833A345D-F5FC-4136-BC05-A08F75A897C3";
paths = (
{
closed = 1;
nodes = (
"105 23 OFFCURVE",
"113 -30 OFFCURVE",
"161 -30 CURVE SMOOTH",
"234 -30 OFFCURVE",
"299 11 OFFCURVE",
"455 288 CURVE SMOOTH",
"559 472 OFFCURVE",
"603 536 OFFCURVE",
"603 611 CURVE SMOOTH",
"603 659 OFFCURVE",
"575 690 OFFCURVE",
"537 690 CURVE SMOOTH",
"521 690 OFFCURVE",
"511 686 OFFCURVE",
"486 661 CURVE",
"485 651 OFFCURVE",
"513 608 OFFCURVE",
"513 589 CURVE SMOOTH",
"513 600 OFFCURVE",
"470 372 OFFCURVE",
"219 59 CURVE",
"206 59 LINE",
"207 73 OFFCURVE",
"206 75 OFFCURVE",
"206 326 CURVE SMOOTH",
"206 624 OFFCURVE",
"191 726 OFFCURVE",
"89 726 CURVE SMOOTH",
"64 726 OFFCURVE",
"41 719 OFFCURVE",
"20 704 CURVE",
"125 580 OFFCURVE",
"105 329 OFFCURVE",
"105 86 CURVE SMOOTH"
);
},
{
closed = 1;
nodes = (
"504 37 OFFCURVE",
"514 -30 OFFCURVE",
"593 -30 CURVE SMOOTH",
"631 -30 OFFCURVE",
"674 -17 OFFCURVE",
"690 -1 CURVE",
"673 27 LINE",
"856 314 OFFCURVE",
"959 537 OFFCURVE",
"959 640 CURVE SMOOTH",
"959 692 OFFCURVE",
"937 726 OFFCURVE",
"905 726 CURVE SMOOTH",
"880 726 OFFCURVE",
"870 724 OFFCURVE",
"829 704 CURVE",
"848 675 OFFCURVE",
"856 642 OFFCURVE",
"856 599 CURVE SMOOTH",
"856 512 OFFCURVE",
"784 356 OFFCURVE",
"593 59 CURVE",
"581 59 LINE",
"564 616 LINE",
"537 690 LINE",
"497 690 OFFCURVE",
"470 677 OFFCURVE",
"461 661 CURVE",
"500 108 LINE SMOOTH"
);
}
);
width = 960;
},
{
anchors = (
{
name = bottom;
position = "{460, 0}";
},
{
name = top;
position = "{585, 710}";
}
);
hints = (
{
horizontal = 1;
origin = "{0, 2}";
target = "{0, 21}";
},
{
origin = "{0, 33}";
target = "{0, 24}";
},
{
origin = "{0, 17}";
target = "{0, 8}";
},
{
origin = "{1, 18}";
target = "{1, 9}";
}
);
layerId = "72FD83BD-A9F6-48B4-8CEA-331AE6F11CF9";
paths = (
{
closed = 1;
nodes = (
"90 33 OFFCURVE",
"131 -30 OFFCURVE",
"240 -30 CURVE SMOOTH",
"364 -30 OFFCURVE",
"432 51 OFFCURVE",
"522 199 CURVE SMOOTH",
"599 328 OFFCURVE",
"661 480 OFFCURVE",
"661 584 CURVE SMOOTH",
"661 654 OFFCURVE",
"627 690 OFFCURVE",
"564 690 CURVE SMOOTH",
"533 690 OFFCURVE",
"499 675 OFFCURVE",
"471 650 CURVE",
"489 615 OFFCURVE",
"514 575 OFFCURVE",
"514 535 CURVE SMOOTH",
"514 484 OFFCURVE",
"471 283 OFFCURVE",
"309 104 CURVE",
"297 104 LINE",
"297 167 OFFCURVE",
"299 270 OFFCURVE",
"299 405 CURVE SMOOTH",
"299 651 OFFCURVE",
"248 726 OFFCURVE",
"147 726 CURVE SMOOTH",
"101 726 OFFCURVE",
"59 711 OFFCURVE",
"20 681 CURVE",
"107 587 OFFCURVE",
"90 407 OFFCURVE",
"90 197 CURVE SMOOTH"
);
},
{
closed = 1;
nodes = (
"511 43 OFFCURVE",
"544 -30 OFFCURVE",
"666 -30 CURVE SMOOTH",
"740 -30 OFFCURVE",
"831 9 OFFCURVE",
"882 64 CURVE",
"857 120 LINE",
"1013 431 OFFCURVE",
"1061 547 OFFCURVE",
"1061 628 CURVE SMOOTH",
"1061 692 OFFCURVE",
"1028 726 OFFCURVE",
"966 726 CURVE SMOOTH",
"919 726 OFFCURVE",
"864 709 OFFCURVE",
"824 681 CURVE",
"840 651 OFFCURVE",
"848 622 OFFCURVE",
"848 587 CURVE SMOOTH",
"848 510 OFFCURVE",
"784 339 OFFCURVE",
"644 104 CURVE",
"632 104 LINE",
"606 619 LINE",
"564 690 LINE",
"539 690 OFFCURVE",
"500 681 OFFCURVE",
"461 650 CURVE",
"498 202 LINE SMOOTH"
);
}
);
width = 1061;
}
);
leftKerningGroup = W;
leftMetricsKey = V;
rightKerningGroup = W;
rightMetricsKey = V;
unicode = 0057;
},
{
color = 10;
glyphname = X;
lastChange = "2015-10-18 16:59:44 +0000";
layers = (
{
hints = (
{
origin = "{1, 13}";
target = "{1, 5}";
},
{
origin = "{2, 12}";
target = "{2, 3}";
}
);
layerId = "833A345D-F5FC-4136-BC05-A08F75A897C3";
paths = (
{
closed = 1;
nodes = (
"652 -30 OFFCURVE",
"689 -8 OFFCURVE",
"708 25 CURVE",
"651 46 OFFCURVE",
"610 71 OFFCURVE",
"556 171 CURVE SMOOTH",
"332 588 LINE SMOOTH",
"278 689 OFFCURVE",
"239 727 OFFCURVE",
"181 727 CURVE SMOOTH",
"147 727 OFFCURVE",
"110 705 OFFCURVE",
"90 671 CURVE",
"148 651 OFFCURVE",
"190 624 OFFCURVE",
"244 525 CURVE SMOOTH",
"469 108 LINE SMOOTH",
"524 8 OFFCURVE",
"561 -30 OFFCURVE",
"619 -30 CURVE SMOOTH"
);
},
{
closed = 1;
nodes = (
"130 -30 OFFCURVE",
"158 -16 OFFCURVE",
"164 -8 CURVE",
"158 5 OFFCURVE",
"154 18 OFFCURVE",
"154 35 CURVE SMOOTH",
"154 99 OFFCURVE",
"220 193 OFFCURVE",
"397 316 CURVE",
"370 368 LINE",
"204 233 LINE SMOOTH",
"69 121 OFFCURVE",
"46 79 OFFCURVE",
"46 39 CURVE SMOOTH",
"46 -2 OFFCURVE",
"67 -30 OFFCURVE",
"103 -30 CURVE SMOOTH"
);
},
{
closed = 1;
nodes = (
"585 464 LINE SMOOTH",
"719 575 OFFCURVE",
"741 620 OFFCURVE",
"741 656 CURVE SMOOTH",
"741 698 OFFCURVE",
"720 726 OFFCURVE",
"685 726 CURVE SMOOTH",
"657 726 OFFCURVE",
"629 712 OFFCURVE",
"624 704 CURVE",
"630 692 OFFCURVE",
"633 679 OFFCURVE",
"633 661 CURVE SMOOTH",
"633 597 OFFCURVE",
"568 504 OFFCURVE",
"390 381 CURVE",
"418 328 LINE"
);
}
);
width = 761;
},
{
hints = (
{
origin = "{1, 13}";
target = "{1, 5}";
},
{
origin = "{2, 12}";
target = "{2, 3}";
}
);
layerId = "72FD83BD-A9F6-48B4-8CEA-331AE6F11CF9";
paths = (
{
closed = 1;
nodes = (
"657 -30 OFFCURVE",
"715 4 OFFCURVE",
"758 70 CURVE",
"675 103 OFFCURVE",
"630 161 OFFCURVE",
"591 235 CURVE SMOOTH",
"404 586 LINE SMOOTH",
"347 692 OFFCURVE",
"308 725 OFFCURVE",
"238 725 CURVE SMOOTH",
"167 725 OFFCURVE",
"109 691 OFFCURVE",
"65 624 CURVE",
"148 592 OFFCURVE",
"193 534 OFFCURVE",
"232 460 CURVE SMOOTH",
"420 108 LINE SMOOTH",
"476 2 OFFCURVE",
"516 -30 OFFCURVE",
"586 -30 CURVE SMOOTH"
);
},
{
closed = 1;
nodes = (
"160 -30 OFFCURVE",
"207 -14 OFFCURVE",
"254 15 CURVE",
"248 30 OFFCURVE",
"244 46 OFFCURVE",
"244 68 CURVE SMOOTH",
"244 129 OFFCURVE",
"302 203 OFFCURVE",
"419 281 CURVE",
"352 399 LINE",
"228 318 LINE SMOOTH",
"78 220 OFFCURVE",
"16 149 OFFCURVE",
"16 75 CURVE SMOOTH",
"16 12 OFFCURVE",
"55 -30 OFFCURVE",
"115 -30 CURVE SMOOTH"
);
},
{
closed = 1;
nodes = (
"584 378 LINE SMOOTH",
"733 476 OFFCURVE",
"795 548 OFFCURVE",
"795 620 CURVE SMOOTH",
"795 684 OFFCURVE",
"756 726 OFFCURVE",
"697 726 CURVE SMOOTH",
"651 726 OFFCURVE",
"604 710 OFFCURVE",
"558 681 CURVE",
"564 666 OFFCURVE",
"567 650 OFFCURVE",
"567 628 CURVE SMOOTH",
"567 567 OFFCURVE",
"510 493 OFFCURVE",
"392 415 CURVE",
"460 296 LINE"
);
}
);
width = 800;
}
);
leftKerningGroup = X;
rightKerningGroup = X;
unicode = 0058;
},
{
color = 10;
glyphname = Y;
lastChange = "2015-10-18 16:59:44 +0000";
layers = (
{
anchors = (
{
name = bottom;
position = "{308, -200}";
},
{
name = top;
position = "{454, 710}";
},
{
name = topleft;
position = "{20, 710}";
}
);
hints = (
{
horizontal = 1;
origin = "{1, 20}";
target = "{1, 17}";
},
{
horizontal = 1;
place = "{1089, -20}";
target = down;
type = TopGhost;
},
{
place = "{220.95, 197.4}";
},
{
origin = "{1, 23}";
target = "{1, 23}";
}
);
layerId = "833A345D-F5FC-4136-BC05-A08F75A897C3";
paths = (
{
closed = 1;
nodes = (
"468 11 LINE",
"155 11 OFFCURVE",
"432 726 OFFCURVE",
"180 726 CURVE SMOOTH",
"157 726 OFFCURVE",
"138 719 OFFCURVE",
"118 704 CURVE",
"284 545 OFFCURVE",
"63 -30 OFFCURVE",
"409 -30 CURVE"
);
},
{
closed = 1;
nodes = (
"730 691 OFFCURVE",
"708 726 OFFCURVE",
"677 726 CURVE SMOOTH",
"655 726 OFFCURVE",
"644 724 OFFCURVE",
"603 704 CURVE",
"621 675 OFFCURVE",
"627 642 OFFCURVE",
"627 599 CURVE SMOOTH",
"627 20 OFFCURVE",
"262 -165 OFFCURVE",
"115 -165 CURVE SMOOTH",
"25 -165 OFFCURVE",
"-8 -130 OFFCURVE",
"-32 -105 CURVE",
"-39 -120 OFFCURVE",
"-46 -141 OFFCURVE",
"-46 -157 CURVE SMOOTH",
"-46 -205 OFFCURVE",
"-9 -242 OFFCURVE",
"81 -242 CURVE SMOOTH",
"481 -242 OFFCURVE",
"730 237 OFFCURVE",
"730 639 CURVE SMOOTH"
);
}
);
width = 781;
},
{
anchors = (
{
name = bottom;
position = "{341, -200}";
},
{
name = top;
position = "{484, 710}";
},
{
name = topleft;
position = "{20, 710}";
}
);
hints = (
{
horizontal = 1;
origin = "{1, 20}";
target = "{1, 17}";
},
{
horizontal = 1;
place = "{726, -20}";
target = down;
type = TopGhost;
},
{
place = "{147.3, 131.6}";
},
{
origin = "{1, 23}";
target = "{1, 23}";
}
);
layerId = "72FD83BD-A9F6-48B4-8CEA-331AE6F11CF9";
paths = (
{
closed = 1;
nodes = (
"468 53 LINE",
"206 53 OFFCURVE",
"492 726 OFFCURVE",
"190 726 CURVE SMOOTH",
"145 726 OFFCURVE",
"103 711 OFFCURVE",
"65 681 CURVE",
"230 527 OFFCURVE",
"-9 -30 OFFCURVE",
"356 -30 CURVE"
);
},
{
closed = 1;
nodes = (
"806 694 OFFCURVE",
"775 726 OFFCURVE",
"714 726 CURVE SMOOTH",
"668 726 OFFCURVE",
"612 709 OFFCURVE",
"573 681 CURVE",
"589 651 OFFCURVE",
"595 622 OFFCURVE",
"595 587 CURVE SMOOTH",
"595 144 OFFCURVE",
"298 -85 OFFCURVE",
"130 -85 CURVE SMOOTH",
"47 -85 OFFCURVE",
"3 -49 OFFCURVE",
"-21 -12 CURVE",
"-45 -31 OFFCURVE",
"-70 -72 OFFCURVE",
"-70 -113 CURVE SMOOTH",
"-70 -194 OFFCURVE",
"-6 -242 OFFCURVE",
"121 -242 CURVE SMOOTH",
"547 -242 OFFCURVE",
"806 334 OFFCURVE",
"806 630 CURVE"
);
}
);
width = 841;
}
);
leftKerningGroup = Y;
rightKerningGroup = Y;
unicode = 0059;
},
{
color = 10;
glyphname = Z;
lastChange = "2015-10-18 16:59:44 +0000";
layers = (
{
anchors = (
{
name = bottom;
position = "{272, 0}";
},
{
name = top;
position = "{397, 710}";
}
);
hints = (
{
horizontal = 1;
origin = "{1, 21}";
target = "{1, 6}";
},
{
horizontal = 1;
origin = "{2, 17}";
target = "{2, 8}";
}
);
layerId = "833A345D-F5FC-4136-BC05-A08F75A897C3";
paths = (
{
closed = 1;
nodes = (
"555 627 LINE",
"435 597 LINE",
"117 98 LINE",
"206 83 LINE"
);
},
{
closed = 1;
nodes = (
"529 -30 OFFCURVE",
"583 5 OFFCURVE",
"583 52 CURVE SMOOTH",
"583 67 OFFCURVE",
"577 81 OFFCURVE",
"558 106 CURVE",
"460 49 LINE",
"377 49 OFFCURVE",
"218 114 OFFCURVE",
"142 114 CURVE SMOOTH",
"77 115 OFFCURVE",
"30 79 OFFCURVE",
"30 29 CURVE SMOOTH",
"30 0 OFFCURVE",
"53 -22 OFFCURVE",
"84 -22 CURVE SMOOTH",
"117 -22 OFFCURVE",
"142 -7 OFFCURVE",
"179 33 CURVE",
"333 -23 OFFCURVE",
"390 -30 OFFCURVE",
"460 -30 CURVE SMOOTH"
);
},
{
closed = 1;
nodes = (
"548 585 OFFCURVE",
"623 611 OFFCURVE",
"623 676 CURVE SMOOTH",
"623 709 OFFCURVE",
"601 726 OFFCURVE",
"558 726 CURVE SMOOTH",
"524 726 OFFCURVE",
"480 695 OFFCURVE",
"463 656 CURVE",
"360 660 OFFCURVE",
"228 690 OFFCURVE",
"126 732 CURVE",
"116 721 OFFCURVE",
"108 696 OFFCURVE",
"108 673 CURVE SMOOTH",
"108 610 OFFCURVE",
"181 585 OFFCURVE",
"365 585 CURVE SMOOTH"
);
}
);
width = 638;
},
{
anchors = (
{
name = bottom;
position = "{296, 0}";
},
{
name = top;
position = "{421, 710}";
}
);
hints = (
{
horizontal = 1;
origin = "{1, 21}";
target = "{1, 6}";
},
{
horizontal = 1;
origin = "{2, 17}";
target = "{2, 8}";
}
);
layerId = "72FD83BD-A9F6-48B4-8CEA-331AE6F11CF9";
paths = (
{
closed = 1;
nodes = (
"651 564 LINE",
"405 534 LINE",
"96 143 LINE",
"294 104 LINE"
);
},
{
closed = 1;
nodes = (
"596 -30 OFFCURVE",
"673 29 OFFCURVE",
"673 104 CURVE SMOOTH",
"673 137 OFFCURVE",
"665 169 OFFCURVE",
"648 211 CURVE",
"497 146 LINE",
"413 146 OFFCURVE",
"252 219 OFFCURVE",
"176 219 CURVE SMOOTH",
"81 218 OFFCURVE",
"15 161 OFFCURVE",
"15 81 CURVE SMOOTH",
"15 21 OFFCURVE",
"56 -22 OFFCURVE",
"115 -22 CURVE SMOOTH",
"160 -22 OFFCURVE",
"196 -7 OFFCURVE",
"242 30 CURVE",
"328 -2 OFFCURVE",
"403 -30 OFFCURVE",
"497 -30 CURVE SMOOTH"
);
},
{
closed = 1;
nodes = (
"593 480 OFFCURVE",
"701 534 OFFCURVE",
"701 626 CURVE SMOOTH",
"701 689 OFFCURVE",
"662 726 OFFCURVE",
"597 726 CURVE SMOOTH",
"546 726 OFFCURVE",
"501 698 OFFCURVE",
"461 641 CURVE",
"381 645 OFFCURVE",
"217 688 OFFCURVE",
"111 732 CURVE",
"99 697 OFFCURVE",
"93 663 OFFCURVE",
"93 635 CURVE SMOOTH",
"93 523 OFFCURVE",
"181 480 OFFCURVE",
"411 480 CURVE SMOOTH"
);
}
);
width = 716;
}
);
leftKerningGroup = Z;
rightKerningGroup = Z;
unicode = 005A;
},
{
color = 10;
glyphname = O.alt;
lastChange = "2016-03-09 00:41:40 +0000";
layers = (
{
hints = (
{
horizontal = 1;
origin = "{0, 29}";
target = "{0, 14}";
},
{
horizontal = 1;
origin = "{0, 23}";
target = "{0, 20}";
},
{
origin = "{0, 26}";
target = "{0, 17}";
},
{
origin = "{0, 11}";
target = "{0, 2}";
}
);
layerId = "833A345D-F5FC-4136-BC05-A08F75A897C3";
paths = (
{
closed = 1;
nodes = (
"574 -25 OFFCURVE",
"722 149 OFFCURVE",
"722 414 CURVE SMOOTH",
"722 564 OFFCURVE",
"667 652 OFFCURVE",
"599 652 CURVE SMOOTH",
"576 652 OFFCURVE",
"557 643 OFFCURVE",
"541 627 CURVE",
"589 569 OFFCURVE",
"619 489 OFFCURVE",
"619 376 CURVE SMOOTH",
"619 172 OFFCURVE",
"519 41 OFFCURVE",
"363 41 CURVE SMOOTH",
"251 41 OFFCURVE",
"182 131 OFFCURVE",
"182 279 CURVE SMOOTH",
"182 526 OFFCURVE",
"330 674 OFFCURVE",
"574 674 CURVE",
"574 700 OFFCURVE",
"552 726 OFFCURVE",
"478 726 CURVE SMOOTH",
"234 726 OFFCURVE",
"61 545 OFFCURVE",
"61 286 CURVE SMOOTH",
"61 98 OFFCURVE",
"170 -25 OFFCURVE",
"341 -25 CURVE SMOOTH"
);
}
);
width = 754;
},
{
hints = (
{
horizontal = 1;
origin = "{0, 29}";
target = "{0, 14}";
},
{
horizontal = 1;
origin = "{0, 23}";
target = "{0, 20}";
},
{
origin = "{0, 26}";
target = "{0, 17}";
},
{
origin = "{0, 11}";
target = "{0, 2}";
}
);
layerId = "72FD83BD-A9F6-48B4-8CEA-331AE6F11CF9";
paths = (
{
closed = 1;
nodes = (
"588 -25 OFFCURVE",
"768 168 OFFCURVE",
"768 424 CURVE SMOOTH",
"768 547 OFFCURVE",
"713 629 OFFCURVE",
"630 629 CURVE SMOOTH",
"584 629 OFFCURVE",
"543 607 OFFCURVE",
"518 571 CURVE",
"570 513 OFFCURVE",
"593 444 OFFCURVE",
"593 349 CURVE SMOOTH",
"593 194 OFFCURVE",
"508 86 OFFCURVE",
"388 86 CURVE SMOOTH",
"295 86 OFFCURVE",
"244 155 OFFCURVE",
"244 283 CURVE SMOOTH",
"244 488 OFFCURVE",
"379 629 OFFCURVE",
"573 629 CURVE",
"573 677 OFFCURVE",
"536 726 OFFCURVE",
"434 726 CURVE SMOOTH",
"200 726 OFFCURVE",
"32 546 OFFCURVE",
"32 293 CURVE SMOOTH",
"32 99 OFFCURVE",
"156 -25 OFFCURVE",
"351 -25 CURVE SMOOTH"
);
}
);
width = 788;
}
);
leftKerningGroup = O.alt;
leftMetricsKey = O;
rightKerningGroup = O.alt;
rightMetricsKey = O;
},
{
color = 10;
glyphname = Y.alt;
lastChange = "2015-10-18 16:59:44 +0000";
layers = (
{
hints = (
{
place = "{685.5, 312}";
},
{
place = "{685.5, 375}";
},
{
horizontal = 1;
place = "{291, 129}";
},
{
horizontal = 1;
place = "{-37.5, 21}";
target = up;
type = BottomGhost;
},
{
horizontal = 1;
place = "{1050, -20}";
target = down;
type = TopGhost;
},
{
horizontal = 1;
origin = "{0, 11}";
target = "{0, 18}";
},
{
origin = "{0, 18}";
target = "{0, 21}";
},
{
origin = "{0, 18}";
target = "{1, 8}";
},
{
origin = "{1, 8}";
target = "{1, 8}";
},
{
horizontal = 1;
origin = "{1, 15}";
},
{
horizontal = 1;
place = "{367.5, 0}";
}
);
layerId = "833A345D-F5FC-4136-BC05-A08F75A897C3";
paths = (
{
closed = 1;
nodes = (
"389 251 OFFCURVE",
"575 517 OFFCURVE",
"575 662 CURVE SMOOTH",
"575 700 OFFCURVE",
"552 727 OFFCURVE",
"519 727 CURVE SMOOTH",
"505 727 OFFCURVE",
"498 726 OFFCURVE",
"463 714 CURVE",
"472 693 OFFCURVE",
"477 675 OFFCURVE",
"477 644 CURVE SMOOTH",
"477 544 OFFCURVE",
"405 416 OFFCURVE",
"298 324 CURVE",
"294 324 LINE",
"247 636 OFFCURVE",
"213 727 OFFCURVE",
"130 727 CURVE SMOOTH",
"105 727 OFFCURVE",
"84 720 OFFCURVE",
"66 706 CURVE",
"120 664 OFFCURVE",
"157 594 OFFCURVE",
"190 397 CURVE SMOOTH",
"209 284 OFFCURVE",
"224 251 OFFCURVE",
"286 251 CURVE SMOOTH"
);
},
{
closed = 1;
nodes = (
"266 -25 OFFCURVE",
"288 -19 OFFCURVE",
"314 -4 CURVE SMOOTH",
"305 26 OFFCURVE",
"299 51 OFFCURVE",
"299 90 CURVE SMOOTH",
"299 137 OFFCURVE",
"308 232 OFFCURVE",
"341 305 CURVE",
"240 305 LINE",
"202 136 OFFCURVE",
"194 81 OFFCURVE",
"194 35 CURVE SMOOTH",
"194 -8 OFFCURVE",
"215 -25 OFFCURVE",
"245 -25 CURVE SMOOTH"
);
}
);
width = 551;
},
{
hints = (
{
place = "{457, 208}";
},
{
place = "{457, 250}";
},
{
horizontal = 1;
place = "{194, 86}";
},
{
horizontal = 1;
place = "{-25, 21}";
target = up;
type = BottomGhost;
},
{
horizontal = 1;
place = "{700, -20}";
target = down;
type = TopGhost;
},
{
horizontal = 1;
origin = "{0, 11}";
target = "{0, 18}";
},
{
origin = "{0, 18}";
target = "{0, 21}";
},
{
origin = "{0, 18}";
target = "{1, 8}";
},
{
origin = "{1, 8}";
target = "{1, 8}";
},
{
horizontal = 1;
origin = "{1, 15}";
},
{
horizontal = 1;
place = "{245, 0}";
}
);
layerId = "72FD83BD-A9F6-48B4-8CEA-331AE6F11CF9";
paths = (
{
closed = 1;
nodes = (
"440 234 OFFCURVE",
"646 473 OFFCURVE",
"646 650 CURVE SMOOTH",
"646 701 OFFCURVE",
"615 725 OFFCURVE",
"554 725 CURVE SMOOTH",
"511 725 OFFCURVE",
"452 706 OFFCURVE",
"421 682 CURVE SMOOTH",
"435 654 OFFCURVE",
"441 631 OFFCURVE",
"441 606 CURVE SMOOTH",
"441 526 OFFCURVE",
"398 435 OFFCURVE",
"325 367 CURVE",
"315 367 LINE SMOOTH",
"301 633 OFFCURVE",
"263 725 OFFCURVE",
"160 725 CURVE SMOOTH",
"113 725 OFFCURVE",
"72 711 OFFCURVE",
"32 682 CURVE SMOOTH",
"96 631 OFFCURVE",
"99 540 OFFCURVE",
"117 407 CURVE SMOOTH",
"127 287 OFFCURVE",
"173 234 OFFCURVE",
"283 234 CURVE SMOOTH"
);
},
{
closed = 1;
nodes = (
"317 -25 OFFCURVE",
"357 -11 OFFCURVE",
"398 20 CURVE",
"377 51 OFFCURVE",
"372 84 OFFCURVE",
"372 145 CURVE SMOOTH",
"372 176 OFFCURVE",
"393 271 OFFCURVE",
"416 333 CURVE",
"199 333 LINE",
"166 205 OFFCURVE",
"155 150 OFFCURVE",
"155 110 CURVE SMOOTH",
"155 15 OFFCURVE",
"186 -25 OFFCURVE",
"272 -25 CURVE SMOOTH"
);
}
);
width = 632;
}
);
leftKerningGroup = Y.alt;
rightKerningGroup = Y.alt;
},
{
color = 10;
glyphname = a;
lastChange = "2015-10-18 16:59:44 +0000";
layers = (
{
anchors = (
{
name = bottom;
position = "{324, 0}";
},
{
name = ogonek;
position = "{591, -2}";
},
{
name = top;
position = "{426, 575}";
}
);
hints = (
{
horizontal = 1;
origin = "{0, 45}";
target = "{0, 27}";
},
{
horizontal = 1;
origin = "{0, 39}";
target = "{0, 24}";
},
{
origin = "{0, 42}";
target = "{0, 30}";
},
{
origin = "{0, 6}";
target = "{0, 15}";
},
{
horizontal = 1;
origin = "{0, 45}";
type = Anchor;
options = 1;
},
{
horizontal = 1;
origin = "{0, 9}";
type = Anchor;
},
{
horizontal = 1;
origin = "{0, 9}";
type = Anchor;
options = 1;
},
{
horizontal = 1;
origin = "{0, 45}";
target = "{0, 27}";
type = TTStem;
},
{
horizontal = 1;
origin = "{0, 39}";
target = "{0, 24}";
type = TTStem;
}
);
layerId = "833A345D-F5FC-4136-BC05-A08F75A897C3";
paths = (
{
closed = 1;
nodes = (
"350 -25 OFFCURVE",
"427 28 OFFCURVE",
"477 121 CURVE",
"487 116 LINE",
"482 91 OFFCURVE",
"479 68 OFFCURVE",
"479 50 CURVE SMOOTH",
"479 1 OFFCURVE",
"501 -25 OFFCURVE",
"540 -25 CURVE SMOOTH",
"558 -25 OFFCURVE",
"574 -19 OFFCURVE",
"591 -2 CURVE",
"582 7 OFFCURVE",
"577 21 OFFCURVE",
"577 40 CURVE SMOOTH",
"577 252 OFFCURVE",
"658 447 OFFCURVE",
"658 538 CURVE SMOOTH",
"658 562 OFFCURVE",
"639 575 OFFCURVE",
"609 575 CURVE SMOOTH",
"593 575 OFFCURVE",
"572 566 OFFCURVE",
"562 554 CURVE",
"519 218 OFFCURVE",
"434 50 OFFCURVE",
"304 50 CURVE SMOOTH",
"231 50 OFFCURVE",
"189 106 OFFCURVE",
"189 204 CURVE SMOOTH",
"189 403 OFFCURVE",
"325 554 OFFCURVE",
"575 554 CURVE",
"575 567 OFFCURVE",
"571 579 OFFCURVE",
"563 592 CURVE",
"531 597 OFFCURVE",
"496 600 OFFCURVE",
"465 600 CURVE SMOOTH",
"255 600 OFFCURVE",
"85 427 OFFCURVE",
"85 210 CURVE SMOOTH",
"85 68 OFFCURVE",
"158 -25 OFFCURVE",
"266 -25 CURVE SMOOTH"
);
}
);
width = 748;
},
{
anchors = (
{
name = bottom;
position = "{322, 0}";
},
{
name = ogonek;
position = "{669, 24}";
},
{
name = top;
position = "{424, 575}";
}
);
hints = (
{
horizontal = 1;
origin = "{0, 45}";
target = "{0, 27}";
},
{
horizontal = 1;
origin = "{0, 39}";
target = "{0, 24}";
},
{
origin = "{0, 42}";
target = "{0, 30}";
},
{
origin = "{0, 6}";
target = "{0, 15}";
},
{
horizontal = 1;
origin = "{0, 45}";
type = Anchor;
options = 1;
},
{
horizontal = 1;
origin = "{0, 9}";
type = Anchor;
},
{
horizontal = 1;
origin = "{0, 9}";
type = Anchor;
options = 1;
},
{
horizontal = 1;
origin = "{0, 45}";
target = "{0, 27}";
type = TTStem;
},
{
horizontal = 1;
origin = "{0, 39}";
target = "{0, 24}";
type = TTStem;
}
);
layerId = "72FD83BD-A9F6-48B4-8CEA-331AE6F11CF9";
paths = (
{
closed = 1;
nodes = (
"314 -25 OFFCURVE",
"389 32 OFFCURVE",
"427 128 CURVE",
"437 123 LINE",
"435 110 OFFCURVE",
"434 98 OFFCURVE",
"434 87 CURVE SMOOTH",
"434 16 OFFCURVE",
"472 -25 OFFCURVE",
"540 -25 CURVE SMOOTH",
"585 -25 OFFCURVE",
"629 -8 OFFCURVE",
"669 24 CURVE",
"649 41 OFFCURVE",
"638 73 OFFCURVE",
"638 115 CURVE SMOOTH",
"638 243 OFFCURVE",
"701 426 OFFCURVE",
"701 496 CURVE SMOOTH",
"701 547 OFFCURVE",
"675 575 OFFCURVE",
"628 575 CURVE SMOOTH",
"575 575 OFFCURVE",
"533 554 OFFCURVE",
"497 509 CURVE",
"471 261 OFFCURVE",
"414 147 OFFCURVE",
"316 147 CURVE SMOOTH",
"267 147 OFFCURVE",
"238 184 OFFCURVE",
"238 249 CURVE SMOOTH",
"238 391 OFFCURVE",
"370 509 OFFCURVE",
"530 509 CURVE",
"530 544 OFFCURVE",
"526 574 OFFCURVE",
"518 592 CURVE",
"495 597 OFFCURVE",
"466 600 OFFCURVE",
"439 600 CURVE SMOOTH",
"202 600 OFFCURVE",
"40 442 OFFCURVE",
"40 210 CURVE SMOOTH",
"40 68 OFFCURVE",
"114 -25 OFFCURVE",
"227 -25 CURVE SMOOTH"
);
}
);
width = 746;
}
);
leftKerningGroup = a;
rightKerningGroup = n;
unicode = 0061;
},
{
color = 10;
glyphname = ae;
lastChange = "2016-03-11 12:35:50 +0000";
layers = (
{
anchors = (
{
name = bottom;
position = "{453, 0}";
},
{
name = top;
position = "{575, 575}";
}
);
components = (
{
alignment = -1;
name = e;
transform = "{1, 0, 0, 1, 377, 0}";
}
);
hints = (
{
horizontal = 1;
origin = "{0, 25}";
target = "{0, 7}";
},
{
horizontal = 1;
origin = "{0, 13}";
target = "{0, 19}";
},
{
origin = "{0, 22}";
target = "{0, 10}";
}
);
layerId = "833A345D-F5FC-4136-BC05-A08F75A897C3";
paths = (
{
closed = 1;
nodes = (
"347 -25 OFFCURVE",
"422 28 OFFCURVE",
"471 121 CURVE",
"477 121 LINE",
"506 247 LINE",
"464 124 OFFCURVE",
"379 50 OFFCURVE",
"303 50 CURVE SMOOTH",
"230 50 OFFCURVE",
"188 106 OFFCURVE",
"188 204 CURVE SMOOTH",
"188 396 OFFCURVE",
"332 529 OFFCURVE",
"574 529 CURVE",
"574 544 OFFCURVE",
"570 556 OFFCURVE",
"562 567 CURVE",
"536 572 OFFCURVE",
"501 575 OFFCURVE",
"464 575 CURVE SMOOTH",
"254 575 OFFCURVE",
"84 412 OFFCURVE",
"84 210 CURVE SMOOTH",
"84 68 OFFCURVE",
"157 -25 OFFCURVE",
"265 -25 CURVE SMOOTH"
);
}
);
width = 1024;
},
{
anchors = (
{
name = bottom;
position = "{469, 0}";
},
{
name = top;
position = "{561, 575}";
}
);
components = (
{
alignment = -1;
name = e;
transform = "{1, 0, 0, 1, 387, 0}";
}
);
hints = (
{
horizontal = 1;
origin = "{0, 25}";
target = "{0, 7}";
},
{
horizontal = 1;
origin = "{0, 13}";
target = "{0, 19}";
},
{
origin = "{0, 22}";
target = "{0, 10}";
}
);
layerId = "72FD83BD-A9F6-48B4-8CEA-331AE6F11CF9";
paths = (
{
closed = 1;
nodes = (
"317 -25 OFFCURVE",
"395 32 OFFCURVE",
"435 128 CURVE",
"445 128 LINE",
"453 262 LINE",
"420 191 OFFCURVE",
"367 147 OFFCURVE",
"315 147 CURVE SMOOTH",
"266 147 OFFCURVE",
"237 184 OFFCURVE",
"237 249 CURVE SMOOTH",
"237 379 OFFCURVE",
"369 484 OFFCURVE",
"529 484 CURVE",
"529 515 OFFCURVE",
"525 545 OFFCURVE",
"517 567 CURVE",
"494 572 OFFCURVE",
"465 575 OFFCURVE",
"438 575 CURVE SMOOTH",
"201 575 OFFCURVE",
"39 427 OFFCURVE",
"39 210 CURVE SMOOTH",
"39 68 OFFCURVE",
"113 -25 OFFCURVE",
"226 -25 CURVE SMOOTH"
);
}
);
width = 1048;
}
);
leftKerningGroup = a;
leftMetricsKey = a;
rightKerningGroup = e;
rightMetricsKey = e;
unicode = 00E6;
},
{
color = 10;
glyphname = b;
lastChange = "2016-03-09 00:41:47 +0000";
layers = (
{
hints = (
{
horizontal = 1;
origin = "{0, 19}";
target = "{1, 8}";
},
{
horizontal = 1;
origin = "{0, 25}";
target = "{1, 2}";
},
{
origin = "{0, 16}";
target = "{1, 8}";
},
{
origin = "{1, 5}";
target = "{0, 22}";
}
);
layerId = "833A345D-F5FC-4136-BC05-A08F75A897C3";
paths = (
{
closed = 1;
nodes = (
"385 600 OFFCURVE",
"306 542 OFFCURVE",
"253 440 CURVE",
"243 445 LINE",
"273 578 OFFCURVE",
"306 681 OFFCURVE",
"306 723 CURVE SMOOTH",
"306 761 OFFCURVE",
"293 774 OFFCURVE",
"262 774 CURVE SMOOTH",
"234 774 OFFCURVE",
"192 762 OFFCURVE",
"165 739 CURVE",
"206 696 LINE",
"151 458 OFFCURVE",
"99 195 OFFCURVE",
"99 90 CURVE SMOOTH",
"99 -19 OFFCURVE",
"157 -25 OFFCURVE",
"205 -25 CURVE SMOOTH",
"454 -25 OFFCURVE",
"655 154 OFFCURVE",
"655 380 CURVE SMOOTH",
"655 513 OFFCURVE",
"582 600 OFFCURVE",
"474 600 CURVE SMOOTH"
);
},
{
closed = 1;
nodes = (
"178 327 OFFCURVE",
"306 526 OFFCURVE",
"436 526 CURVE SMOOTH",
"509 526 OFFCURVE",
"551 469 OFFCURVE",
"551 371 CURVE SMOOTH",
"551 181 OFFCURVE",
"391 37 OFFCURVE",
"178 30 CURVE"
);
}
);
width = 737;
},
{
hints = (
{
horizontal = 1;
origin = "{0, 19}";
target = "{1, 8}";
},
{
horizontal = 1;
origin = "{0, 25}";
target = "{1, 2}";
},
{
origin = "{0, 16}";
target = "{1, 8}";
},
{
origin = "{1, 5}";
target = "{0, 22}";
}
);
layerId = "72FD83BD-A9F6-48B4-8CEA-331AE6F11CF9";
paths = (
{
closed = 1;
nodes = (
"437 600 OFFCURVE",
"362 543 OFFCURVE",
"324 447 CURVE",
"314 452 LINE",
"338 560 OFFCURVE",
"364 652 OFFCURVE",
"364 703 CURVE SMOOTH",
"364 753 OFFCURVE",
"342 774 OFFCURVE",
"279 774 CURVE SMOOTH",
"218 774 OFFCURVE",
"148 742 OFFCURVE",
"92 701 CURVE",
"148 621 LINE",
"93 306 OFFCURVE",
"79 213 OFFCURVE",
"79 160 CURVE SMOOTH",
"79 40 OFFCURVE",
"125 -25 OFFCURVE",
"272 -25 CURVE SMOOTH",
"533 -25 OFFCURVE",
"711 133 OFFCURVE",
"711 365 CURVE SMOOTH",
"711 507 OFFCURVE",
"637 600 OFFCURVE",
"524 600 CURVE SMOOTH"
);
},
{
closed = 1;
nodes = (
"254 292 OFFCURVE",
"337 428 OFFCURVE",
"435 428 CURVE SMOOTH",
"484 428 OFFCURVE",
"513 391 OFFCURVE",
"513 326 CURVE SMOOTH",
"513 199 OFFCURVE",
"399 92 OFFCURVE",
"254 78 CURVE"
);
}
);
width = 750;
}
);
leftKerningGroup = h;
leftMetricsKey = l;
rightKerningGroup = o;
rightMetricsKey = "=|a";
unicode = 0062;
},
{
color = 10;
glyphname = c;
lastChange = "2016-03-09 00:41:52 +0000";
layers = (
{
anchors = (
{
name = bottom;
position = "{273, 0}";
},
{
name = top;
position = "{385, 575}";
}
);
hints = (
{
horizontal = 1;
origin = "{0, 29}";
target = "{0, 8}";
},
{
horizontal = 1;
origin = "{0, 23}";
target = "{0, 14}";
},
{
origin = "{0, 26}";
target = "{0, 11}";
},
{
origin = "{0, 3}";
target = "{0, 2}";
}
);
layerId = "833A345D-F5FC-4136-BC05-A08F75A897C3";
paths = (
{
closed = 1;
nodes = (
"430 -25 OFFCURVE",
"530 51 OFFCURVE",
"530 141 CURVE SMOOTH",
"530 181 OFFCURVE",
"502 196 OFFCURVE",
"459 196 CURVE",
"453 104 OFFCURVE",
"395 33 OFFCURVE",
"306 33 CURVE SMOOTH",
"234 33 OFFCURVE",
"191 98 OFFCURVE",
"191 206 CURVE SMOOTH",
"191 362 OFFCURVE",
"270 488 OFFCURVE",
"377 536 CURVE",
"404 483 OFFCURVE",
"446 469 OFFCURVE",
"488 469 CURVE SMOOTH",
"531 469 OFFCURVE",
"564 497 OFFCURVE",
"564 533 CURVE SMOOTH",
"564 575 OFFCURVE",
"518 600 OFFCURVE",
"442 600 CURVE SMOOTH",
"246 600 OFFCURVE",
"86 433 OFFCURVE",
"86 213 CURVE SMOOTH",
"86 63 OFFCURVE",
"171 -25 OFFCURVE",
"310 -25 CURVE SMOOTH"
);
}
);
width = 616;
},
{
anchors = (
{
name = bottom;
position = "{300, 0}";
},
{
name = top;
position = "{412, 575}";
}
);
hints = (
{
horizontal = 1;
origin = "{0, 29}";
target = "{0, 8}";
},
{
horizontal = 1;
origin = "{0, 23}";
target = "{0, 14}";
},
{
origin = "{0, 26}";
target = "{0, 11}";
},
{
origin = "{0, 3}";
target = "{0, 2}";
}
);
layerId = "72FD83BD-A9F6-48B4-8CEA-331AE6F11CF9";
paths = (
{
closed = 1;
nodes = (
"473 -25 OFFCURVE",
"592 48 OFFCURVE",
"592 141 CURVE SMOOTH",
"592 197 OFFCURVE",
"549 227 OFFCURVE",
"469 227 CURVE",
"466 144 OFFCURVE",
"408 78 OFFCURVE",
"338 78 CURVE SMOOTH",
"278 78 OFFCURVE",
"243 135 OFFCURVE",
"243 233 CURVE SMOOTH",
"243 344 OFFCURVE",
"302 449 OFFCURVE",
"379 477 CURVE",
"406 420 OFFCURVE",
"456 385 OFFCURVE",
"513 385 CURVE SMOOTH",
"574 385 OFFCURVE",
"617 426 OFFCURVE",
"617 483 CURVE SMOOTH",
"617 554 OFFCURVE",
"543 600 OFFCURVE",
"429 600 CURVE SMOOTH",
"205 600 OFFCURVE",
"45 448 OFFCURVE",
"45 235 CURVE SMOOTH",
"45 72 OFFCURVE",
"149 -25 OFFCURVE",
"323 -25 CURVE SMOOTH"
);
}
);
width = 638;
}
);
leftKerningGroup = o;
leftMetricsKey = o;
rightKerningGroup = c;
rightMetricsKey = "=o-25";
unicode = 0063;
},
{
color = 10;
glyphname = d;
lastChange = "2016-03-09 00:41:56 +0000";
layers = (
{
anchors = (
{
name = bottom;
position = "{308, 0}";
},
{
name = center;
position = "{619, 612}";
},
{
name = top;
position = "{409, 575}";
},
{
name = topright;
position = "{651, 575}";
}
);
hints = (
{
horizontal = 1;
origin = "{0, 25}";
target = "{0, 7}";
},
{
horizontal = 1;
origin = "{0, 13}";
target = "{0, 19}";
},
{
origin = "{0, 22}";
target = "{0, 10}";
},
{
origin = "{1, 18}";
target = "{1, 5}";
}
);
layerId = "833A345D-F5FC-4136-BC05-A08F75A897C3";
paths = (
{
closed = 1;
nodes = (
"349 -25 OFFCURVE",
"426 28 OFFCURVE",
"476 121 CURVE",
"496 113 LINE",
"506 247 LINE",
"464 124 OFFCURVE",
"379 50 OFFCURVE",
"303 50 CURVE SMOOTH",
"230 50 OFFCURVE",
"188 106 OFFCURVE",
"188 204 CURVE SMOOTH",
"188 396 OFFCURVE",
"332 529 OFFCURVE",
"574 529 CURVE",
"574 544 OFFCURVE",
"570 556 OFFCURVE",
"562 567 CURVE",
"536 572 OFFCURVE",
"501 575 OFFCURVE",
"464 575 CURVE SMOOTH",
"254 575 OFFCURVE",
"84 412 OFFCURVE",
"84 210 CURVE SMOOTH",
"84 68 OFFCURVE",
"157 -25 OFFCURVE",
"265 -25 CURVE SMOOTH"
);
},
{
closed = 1;
nodes = (
"559 -25 OFFCURVE",
"579 -15 OFFCURVE",
"594 -2 CURVE",
"582 7 OFFCURVE",
"576 34 OFFCURVE",
"576 47 CURVE SMOOTH",
"576 345 OFFCURVE",
"680 646 OFFCURVE",
"680 724 CURVE SMOOTH",
"680 762 OFFCURVE",
"667 775 OFFCURVE",
"636 775 CURVE SMOOTH",
"608 775 OFFCURVE",
"566 763 OFFCURVE",
"539 740 CURVE",
"580 697 LINE",
"545 505 OFFCURVE",
"481 107 OFFCURVE",
"481 38 CURVE SMOOTH",
"481 -5 OFFCURVE",
"501 -25 OFFCURVE",
"531 -25 CURVE SMOOTH"
);
}
);
width = 746;
},
{
anchors = (
{
name = bottom;
position = "{309, 0}";
},
{
name = center;
position = "{617, 612}";
},
{
name = top;
position = "{410, 575}";
},
{
name = topright;
position = "{711, 575}";
}
);
hints = (
{
horizontal = 1;
origin = "{0, 25}";
target = "{0, 7}";
},
{
horizontal = 1;
origin = "{0, 13}";
target = "{0, 19}";
},
{
origin = "{0, 22}";
target = "{0, 10}";
},
{
origin = "{1, 18}";
target = "{1, 5}";
}
);
layerId = "72FD83BD-A9F6-48B4-8CEA-331AE6F11CF9";
paths = (
{
closed = 1;
nodes = (
"313 -25 OFFCURVE",
"387 32 OFFCURVE",
"425 128 CURVE",
"446 119 LINE",
"453 262 LINE",
"420 191 OFFCURVE",
"367 147 OFFCURVE",
"315 147 CURVE SMOOTH",
"266 147 OFFCURVE",
"237 184 OFFCURVE",
"237 249 CURVE SMOOTH",
"237 379 OFFCURVE",
"369 484 OFFCURVE",
"529 484 CURVE",
"529 515 OFFCURVE",
"525 545 OFFCURVE",
"517 567 CURVE",
"494 572 OFFCURVE",
"465 575 OFFCURVE",
"438 575 CURVE SMOOTH",
"201 575 OFFCURVE",
"39 427 OFFCURVE",
"39 210 CURVE SMOOTH",
"39 68 OFFCURVE",
"113 -25 OFFCURVE",
"226 -25 CURVE SMOOTH"
);
},
{
closed = 1;
nodes = (
"587 -25 OFFCURVE",
"636 -9 OFFCURVE",
"673 24 CURVE",
"655 46 OFFCURVE",
"642 65 OFFCURVE",
"642 132 CURVE SMOOTH",
"642 357 OFFCURVE",
"731 605 OFFCURVE",
"731 704 CURVE SMOOTH",
"731 754 OFFCURVE",
"709 775 OFFCURVE",
"646 775 CURVE SMOOTH",
"585 775 OFFCURVE",
"515 743 OFFCURVE",
"459 702 CURVE",
"515 622 LINE",
"489 472 OFFCURVE",
"436 195 OFFCURVE",
"436 119 CURVE SMOOTH",
"436 22 OFFCURVE",
"468 -25 OFFCURVE",
"549 -25 CURVE SMOOTH"
);
}
);
width = 751;
}
);
leftKerningGroup = a;
leftMetricsKey = a;
rightKerningGroup = l;
rightMetricsKey = l;
unicode = 0064;
},
{
color = 10;
glyphname = eth;
lastChange = "2016-03-09 00:42:00 +0000";
layers = (
{
components = (
{
name = strokeshortcomb.Rhalf;
transform = "{0.94, 0.342, -0.342, 0.94, 569, 353}";
}
);
hints = (
{
horizontal = 1;
origin = "{0, 32}";
target = "{0, 14}";
},
{
horizontal = 1;
origin = "{0, 26}";
target = "{0, 20}";
},
{
horizontal = 1;
origin = "{0, 8}";
target = "{0, 5}";
},
{
horizontal = 1;
origin = "{0, 5}";
target = "{0, 8}";
},
{
origin = "{0, 29}";
target = "{0, 17}";
},
{
origin = "{0, 11}";
target = "{0, 2}";
}
);
layerId = "833A345D-F5FC-4136-BC05-A08F75A897C3";
paths = (
{
closed = 1;
nodes = (
"502 -25 OFFCURVE",
"634 131 OFFCURVE",
"634 354 CURVE SMOOTH",
"634 604 OFFCURVE",
"470 827 OFFCURVE",
"286 827 CURVE SMOOTH",
"250 827 OFFCURVE",
"222 799 OFFCURVE",
"222 763 CURVE",
"400 763 OFFCURVE",
"545 584 OFFCURVE",
"545 306 CURVE SMOOTH",
"545 140 OFFCURVE",
"464 33 OFFCURVE",
"340 33 CURVE SMOOTH",
"249 33 OFFCURVE",
"195 107 OFFCURVE",
"195 230 CURVE SMOOTH",
"195 431 OFFCURVE",
"316 554 OFFCURVE",
"510 554 CURVE",
"509 567 OFFCURVE",
"505 579 OFFCURVE",
"496 592 CURVE",
"476 598 OFFCURVE",
"454 600 OFFCURVE",
"418 600 CURVE SMOOTH",
"226 600 OFFCURVE",
"90 449 OFFCURVE",
"90 235 CURVE SMOOTH",
"90 77 OFFCURVE",
"178 -25 OFFCURVE",
"316 -25 CURVE SMOOTH"
);
}
);
width = 701;
},
{
components = (
{
name = strokeshortcomb.Rhalf;
transform = "{0.94, 0.342, -0.342, 0.94, 583, 327}";
}
);
hints = (
{
horizontal = 1;
origin = "{0, 32}";
target = "{0, 14}";
},
{
horizontal = 1;
origin = "{0, 26}";
target = "{0, 20}";
},
{
horizontal = 1;
origin = "{0, 8}";
target = "{0, 5}";
},
{
horizontal = 1;
origin = "{0, 5}";
target = "{0, 8}";
},
{
origin = "{0, 29}";
target = "{0, 17}";
},
{
origin = "{0, 11}";
target = "{0, 2}";
}
);
layerId = "72FD83BD-A9F6-48B4-8CEA-331AE6F11CF9";
paths = (
{
closed = 1;
nodes = (
"539 -25 OFFCURVE",
"680 122 OFFCURVE",
"680 337 CURVE SMOOTH",
"680 587 OFFCURVE",
"490 827 OFFCURVE",
"291 827 CURVE SMOOTH",
"212 827 OFFCURVE",
"163 781 OFFCURVE",
"163 706 CURVE",
"360 706 OFFCURVE",
"517 510 OFFCURVE",
"517 291 CURVE SMOOTH",
"517 167 OFFCURVE",
"450 78 OFFCURVE",
"357 78 CURVE SMOOTH",
"283 78 OFFCURVE",
"244 132 OFFCURVE",
"244 236 CURVE SMOOTH",
"244 395 OFFCURVE",
"354 509 OFFCURVE",
"506 509 CURVE",
"507 544 OFFCURVE",
"504 573 OFFCURVE",
"497 592 CURVE",
"475 598 OFFCURVE",
"455 600 OFFCURVE",
"426 600 CURVE SMOOTH",
"204 600 OFFCURVE",
"46 452 OFFCURVE",
"46 245 CURVE SMOOTH",
"46 80 OFFCURVE",
"158 -25 OFFCURVE",
"333 -25 CURVE SMOOTH"
);
}
);
width = 718;
}
);
leftKerningGroup = eth;
leftMetricsKey = o;
rightKerningGroup = eth;
unicode = 00F0;
},
{
color = 10;
glyphname = e;
lastChange = "2016-03-09 00:42:04 +0000";
layers = (
{
anchors = (
{
name = bottom;
position = "{309, 0}";
},
{
name = ogonek;
position = "{429, 0}";
},
{
name = top;
position = "{411, 575}";
}
);
hints = (
{
horizontal = 1;
origin = "{0, 33}";
target = "{0, 8}";
},
{
horizontal = 1;
origin = "{0, 21}";
target = "{0, 20}";
},
{
horizontal = 1;
origin = "{0, 27}";
target = "{0, 14}";
},
{
origin = "{0, 30}";
target = "{0, 11}";
},
{
origin = "{0, 17}";
target = "{0, 24}";
},
{
origin = "{0, 5}";
target = "{0, 2}";
}
);
layerId = "833A345D-F5FC-4136-BC05-A08F75A897C3";
paths = (
{
closed = 1;
nodes = (
"439 -25 OFFCURVE",
"540 53 OFFCURVE",
"540 133 CURVE SMOOTH",
"540 172 OFFCURVE",
"512 187 OFFCURVE",
"469 187 CURVE",
"463 93 OFFCURVE",
"400 33 OFFCURVE",
"310 33 CURVE SMOOTH",
"236 33 OFFCURVE",
"192 101 OFFCURVE",
"192 211 CURVE SMOOTH",
"192 400 OFFCURVE",
"299 551 OFFCURVE",
"428 551 CURVE SMOOTH",
"478 551 OFFCURVE",
"510 517 OFFCURVE",
"510 467 CURVE SMOOTH",
"510 348 OFFCURVE",
"384 280 OFFCURVE",
"173 284 CURVE",
"161 232 LINE",
"444 235 OFFCURVE",
"602 315 OFFCURVE",
"602 458 CURVE SMOOTH",
"602 547 OFFCURVE",
"542 600 OFFCURVE",
"441 600 CURVE SMOOTH",
"239 600 OFFCURVE",
"87 438 OFFCURVE",
"87 218 CURVE SMOOTH",
"87 67 OFFCURVE",
"167 -25 OFFCURVE",
"303 -25 CURVE SMOOTH"
);
}
);
width = 647;
},
{
anchors = (
{
name = bottom;
position = "{318, 0}";
},
{
name = ogonek;
position = "{453, 0}";
},
{
name = top;
position = "{420, 575}";
}
);
hints = (
{
horizontal = 1;
origin = "{0, 33}";
target = "{0, 8}";
},
{
horizontal = 1;
origin = "{0, 21}";
target = "{0, 20}";
},
{
horizontal = 1;
origin = "{0, 27}";
target = "{0, 14}";
},
{
origin = "{0, 30}";
target = "{0, 11}";
},
{
origin = "{0, 17}";
target = "{0, 24}";
},
{
origin = "{0, 5}";
target = "{0, 2}";
}
);
layerId = "72FD83BD-A9F6-48B4-8CEA-331AE6F11CF9";
paths = (
{
closed = 1;
nodes = (
"456 -25 OFFCURVE",
"572 42 OFFCURVE",
"572 128 CURVE SMOOTH",
"572 184 OFFCURVE",
"529 214 OFFCURVE",
"449 214 CURVE",
"446 132 OFFCURVE",
"398 78 OFFCURVE",
"330 78 CURVE SMOOTH",
"274 78 OFFCURVE",
"241 132 OFFCURVE",
"241 223 CURVE SMOOTH",
"241 359 OFFCURVE",
"318 483 OFFCURVE",
"403 483 CURVE SMOOTH",
"435 483 OFFCURVE",
"457 463 OFFCURVE",
"457 434 CURVE SMOOTH",
"457 360 OFFCURVE",
"377 314 OFFCURVE",
"235 306 CURVE",
"222 232 LINE",
"475 227 OFFCURVE",
"630 312 OFFCURVE",
"630 455 CURVE SMOOTH",
"630 547 OFFCURVE",
"559 600 OFFCURVE",
"437 600 CURVE SMOOTH",
"210 600 OFFCURVE",
"43 441 OFFCURVE",
"43 225 CURVE SMOOTH",
"43 68 OFFCURVE",
"142 -25 OFFCURVE",
"308 -25 CURVE SMOOTH"
);
}
);
width = 661;
}
);
leftKerningGroup = o;
leftMetricsKey = o;
rightKerningGroup = e;
unicode = 0065;
},
{
color = 10;
glyphname = f;
lastChange = "2015-10-18 16:59:44 +0000";
layers = (
{
hints = (
{
horizontal = 1;
origin = "{1, 2}";
target = "{1, 8}";
},
{
horizontal = 1;
origin = "{0, 10}";
target = "{0, 19}";
},
{
origin = "{0, 28}";
target = "{0, 5}";
}
);
layerId = "833A345D-F5FC-4136-BC05-A08F75A897C3";
paths = (
{
closed = 1;
nodes = (
"186 -200 OFFCURVE",
"204 -193 OFFCURVE",
"228 -178 CURVE",
"215 -170 OFFCURVE",
"209 -155 OFFCURVE",
"209 -135 CURVE SMOOTH",
"209 -37 OFFCURVE",
"250 207 OFFCURVE",
"310 424 CURVE",
"262 677 LINE",
"270 684 LINE",
"293 663 OFFCURVE",
"321 655 OFFCURVE",
"349 655 CURVE SMOOTH",
"391 655 OFFCURVE",
"419 681 OFFCURVE",
"419 719 CURVE SMOOTH",
"419 758 OFFCURVE",
"384 787 OFFCURVE",
"336 787 CURVE SMOOTH",
"271 787 OFFCURVE",
"208 749 OFFCURVE",
"208 615 CURVE SMOOTH",
"208 567 OFFCURVE",
"211 511 OFFCURVE",
"218 445 CURVE",
"151 125 OFFCURVE",
"113 -57 OFFCURVE",
"113 -132 CURVE SMOOTH",
"113 -175 OFFCURVE",
"133 -200 OFFCURVE",
"167 -200 CURVE SMOOTH"
);
},
{
closed = 1;
nodes = (
"172 389 OFFCURVE",
"259 400 OFFCURVE",
"295 400 CURVE SMOOTH",
"352 400 OFFCURVE",
"407 416 OFFCURVE",
"407 461 CURVE SMOOTH",
"407 469 OFFCURVE",
"404 482 OFFCURVE",
"400 491 CURVE",
"341 471 OFFCURVE",
"253 460 OFFCURVE",
"217 460 CURVE SMOOTH",
"160 460 OFFCURVE",
"105 445 OFFCURVE",
"105 400 CURVE SMOOTH",
"105 391 OFFCURVE",
"108 378 OFFCURVE",
"112 370 CURVE"
);
}
);
width = 432;
},
{
hints = (
{
horizontal = 1;
origin = "{1, 2}";
target = "{1, 8}";
},
{
horizontal = 1;
origin = "{0, 10}";
target = "{0, 19}";
},
{
origin = "{0, 28}";
target = "{0, 5}";
}
);
layerId = "72FD83BD-A9F6-48B4-8CEA-331AE6F11CF9";
paths = (
{
closed = 1;
nodes = (
"222 -200 OFFCURVE",
"263 -184 OFFCURVE",
"312 -151 CURVE",
"292 -134 OFFCURVE",
"281 -102 OFFCURVE",
"281 -60 CURVE SMOOTH",
"281 16 OFFCURVE",
"310 208 OFFCURVE",
"349 379 CURVE",
"274 590 LINE",
"288 600 LINE",
"311 585 OFFCURVE",
"338 577 OFFCURVE",
"367 577 CURVE SMOOTH",
"433 577 OFFCURVE",
"479 619 OFFCURVE",
"479 680 CURVE SMOOTH",
"479 741 OFFCURVE",
"425 787 OFFCURVE",
"353 787 CURVE SMOOTH",
"223 787 OFFCURVE",
"151 693 OFFCURVE",
"151 544 CURVE SMOOTH",
"151 513 OFFCURVE",
"154 481 OFFCURVE",
"160 446 CURVE",
"100 153 OFFCURVE",
"70 -15 OFFCURVE",
"70 -82 CURVE SMOOTH",
"70 -157 OFFCURVE",
"111 -200 OFFCURVE",
"182 -200 CURVE SMOOTH"
);
},
{
closed = 1;
nodes = (
"131 341 OFFCURVE",
"223 355 OFFCURVE",
"310 355 CURVE SMOOTH",
"382 355 OFFCURVE",
"422 390 OFFCURVE",
"422 453 CURVE SMOOTH",
"422 466 OFFCURVE",
"419 485 OFFCURVE",
"415 498 CURVE",
"351 474 OFFCURVE",
"259 460 OFFCURVE",
"172 460 CURVE SMOOTH",
"100 460 OFFCURVE",
"60 425 OFFCURVE",
"60 362 CURVE SMOOTH",
"60 349 OFFCURVE",
"63 330 OFFCURVE",
"67 317 CURVE"
);
}
);
width = 439;
}
);
leftKerningGroup = f;
rightKerningGroup = f;
unicode = 0066;
},
{
color = 10;
glyphname = g;
lastChange = "2015-10-18 16:59:44 +0000";
layers = (
{
anchors = (
{
name = bottom;
position = "{303, 0}";
},
{
name = top;
position = "{404, 575}";
}
);
hints = (
{
horizontal = 1;
origin = "{0, 11}";
target = "{0, 2}";
},
{
horizontal = 1;
origin = "{1, 25}";
target = "{1, 7}";
},
{
horizontal = 1;
origin = "{1, 19}";
target = "{0, 20}";
},
{
origin = "{1, 22}";
target = "{1, 10}";
},
{
origin = "{0, 20}";
target = "{0, 14}";
}
);
layerId = "833A345D-F5FC-4136-BC05-A08F75A897C3";
paths = (
{
closed = 1;
nodes = (
"545 -15 OFFCURVE",
"308 -164 OFFCURVE",
"183 -164 CURVE SMOOTH",
"117 -164 OFFCURVE",
"76 -137 OFFCURVE",
"47 -84 CURVE",
"21 -104 OFFCURVE",
"4 -131 OFFCURVE",
"4 -154 CURVE SMOOTH",
"4 -200 OFFCURVE",
"67 -234 OFFCURVE",
"156 -234 CURVE SMOOTH",
"486 -234 OFFCURVE",
"602 131 OFFCURVE",
"602 549 CURVE SMOOTH",
"602 568 OFFCURVE",
"591 578 OFFCURVE",
"568 578 CURVE SMOOTH",
"559 578 OFFCURVE",
"552 576 OFFCURVE",
"521 554 CURVE"
);
},
{
closed = 1;
nodes = (
"322 3 OFFCURVE",
"412 54 OFFCURVE",
"461 146 CURVE",
"526 146 LINE",
"520 554 LINE",
"520 168 OFFCURVE",
"361 75 OFFCURVE",
"278 75 CURVE SMOOTH",
"202 75 OFFCURVE",
"158 135 OFFCURVE",
"158 239 CURVE SMOOTH",
"158 425 OFFCURVE",
"298 554 OFFCURVE",
"534 554 CURVE",
"534 569 OFFCURVE",
"530 581 OFFCURVE",
"522 592 CURVE",
"496 597 OFFCURVE",
"461 600 OFFCURVE",
"424 600 CURVE SMOOTH",
"191 600 OFFCURVE",
"54 437 OFFCURVE",
"54 235 CURVE SMOOTH",
"54 95 OFFCURVE",
"129 3 OFFCURVE",
"240 3 CURVE SMOOTH"
);
}
);
width = 665;
},
{
anchors = (
{
name = bottom;
position = "{312, 0}";
},
{
name = top;
position = "{413, 575}";
}
);
hints = (
{
horizontal = 1;
origin = "{0, 11}";
target = "{0, 2}";
},
{
horizontal = 1;
origin = "{1, 25}";
target = "{1, 7}";
},
{
horizontal = 1;
origin = "{1, 19}";
target = "{0, 20}";
},
{
origin = "{1, 22}";
target = "{1, 10}";
},
{
origin = "{0, 20}";
target = "{0, 14}";
}
);
layerId = "72FD83BD-A9F6-48B4-8CEA-331AE6F11CF9";
paths = (
{
closed = 1;
nodes = (
"482 29 OFFCURVE",
"320 -89 OFFCURVE",
"180 -89 CURVE SMOOTH",
"120 -89 OFFCURVE",
"65 -66 OFFCURVE",
"33 -15 CURVE",
"-2 -35 OFFCURVE",
"-29 -80 OFFCURVE",
"-29 -124 CURVE SMOOTH",
"-29 -197 OFFCURVE",
"41 -238 OFFCURVE",
"168 -238 CURVE SMOOTH",
"544 -238 OFFCURVE",
"675 156 OFFCURVE",
"675 505 CURVE SMOOTH",
"675 551 OFFCURVE",
"651 576 OFFCURVE",
"604 576 CURVE SMOOTH",
"550 576 OFFCURVE",
"508 555 OFFCURVE",
"471 509 CURVE"
);
},
{
closed = 1;
nodes = (
"291 10 OFFCURVE",
"369 63 OFFCURVE",
"409 153 CURVE",
"471 153 LINE",
"471 509 LINE",
"471 216 OFFCURVE",
"355 142 OFFCURVE",
"289 142 CURVE SMOOTH",
"237 142 OFFCURVE",
"206 183 OFFCURVE",
"206 254 CURVE SMOOTH",
"206 395 OFFCURVE",
"340 509 OFFCURVE",
"503 509 CURVE",
"503 540 OFFCURVE",
"499 570 OFFCURVE",
"491 592 CURVE",
"468 597 OFFCURVE",
"439 600 OFFCURVE",
"412 600 CURVE SMOOTH",
"172 600 OFFCURVE",
"8 452 OFFCURVE",
"8 235 CURVE SMOOTH",
"8 99 OFFCURVE",
"84 10 OFFCURVE",
"200 10 CURVE SMOOTH"
);
}
);
width = 702;
}
);
leftKerningGroup = a;
leftMetricsKey = "=a-35";
rightKerningGroup = g;
unicode = 0067;
},
{
color = 10;
glyphname = h;
lastChange = "2015-11-08 20:42:32 +0000";
layers = (
{
anchors = (
{
name = bottom;
position = "{356, 0}";
},
{
name = center;
position = "{242, 612}";
},
{
name = top;
position = "{263, 725}";
}
);
hints = (
{
horizontal = 1;
origin = "{0, 29}";
target = "{0, 8}";
},
{
origin = "{0, 46}";
target = "{0, 5}";
},
{
origin = "{0, 14}";
target = "{0, 23}";
}
);
layerId = "833A345D-F5FC-4136-BC05-A08F75A897C3";
paths = (
{
closed = 1;
nodes = (
"161 -25 OFFCURVE",
"179 -18 OFFCURVE",
"195 -2 CURVE",
"188 6 OFFCURVE",
"185 23 OFFCURVE",
"185 40 CURVE SMOOTH",
"185 332 OFFCURVE",
"347 533 OFFCURVE",
"476 533 CURVE SMOOTH",
"525 533 OFFCURVE",
"544 499 OFFCURVE",
"544 442 CURVE SMOOTH",
"544 344 OFFCURVE",
"480 143 OFFCURVE",
"480 33 CURVE SMOOTH",
"480 -5 OFFCURVE",
"496 -25 OFFCURVE",
"535 -25 CURVE SMOOTH",
"553 -25 OFFCURVE",
"570 -18 OFFCURVE",
"587 -2 CURVE",
"580 6 OFFCURVE",
"576 23 OFFCURVE",
"576 40 CURVE SMOOTH",
"576 185 OFFCURVE",
"649 338 OFFCURVE",
"649 464 CURVE SMOOTH",
"649 558 OFFCURVE",
"606 600 OFFCURVE",
"519 600 CURVE SMOOTH",
"436 600 OFFCURVE",
"328 555 OFFCURVE",
"250 413 CURVE",
"240 418 LINE",
"278 595 OFFCURVE",
"306 678 OFFCURVE",
"306 724 CURVE SMOOTH",
"306 762 OFFCURVE",
"293 775 OFFCURVE",
"262 775 CURVE SMOOTH",
"234 775 OFFCURVE",
"192 763 OFFCURVE",
"165 740 CURVE",
"206 697 LINE",
"153 411 OFFCURVE",
"88 102 OFFCURVE",
"88 33 CURVE SMOOTH",
"88 -5 OFFCURVE",
"105 -25 OFFCURVE",
"144 -25 CURVE SMOOTH"
);
}
);
width = 730;
},
{
anchors = (
{
name = bottom;
position = "{377, 0}";
},
{
name = center;
position = "{249, 612}";
},
{
name = top;
position = "{263, 725}";
}
);
hints = (
{
horizontal = 1;
origin = "{0, 29}";
target = "{0, 8}";
},
{
origin = "{0, 46}";
target = "{0, 5}";
},
{
origin = "{0, 14}";
target = "{0, 23}";
}
);
layerId = "72FD83BD-A9F6-48B4-8CEA-331AE6F11CF9";
paths = (
{
closed = 1;
nodes = (
"214 -25 OFFCURVE",
"251 -9 OFFCURVE",
"287 24 CURVE",
"274 42 OFFCURVE",
"266 75 OFFCURVE",
"266 115 CURVE SMOOTH",
"266 309 OFFCURVE",
"407 443 OFFCURVE",
"479 443 CURVE SMOOTH",
"504 443 OFFCURVE",
"513 427 OFFCURVE",
"513 401 CURVE SMOOTH",
"513 329 OFFCURVE",
"453 210 OFFCURVE",
"453 99 CURVE SMOOTH",
"453 19 OFFCURVE",
"486 -25 OFFCURVE",
"570 -25 CURVE SMOOTH",
"607 -25 OFFCURVE",
"644 -9 OFFCURVE",
"680 24 CURVE",
"667 42 OFFCURVE",
"659 75 OFFCURVE",
"659 115 CURVE SMOOTH",
"659 239 OFFCURVE",
"718 371 OFFCURVE",
"718 479 CURVE SMOOTH",
"718 562 OFFCURVE",
"678 600 OFFCURVE",
"597 600 CURVE SMOOTH",
"495 600 OFFCURVE",
"394 535 OFFCURVE",
"313 396 CURVE",
"303 401 LINE",
"329 530 OFFCURVE",
"365 646 OFFCURVE",
"365 704 CURVE SMOOTH",
"365 754 OFFCURVE",
"343 775 OFFCURVE",
"280 775 CURVE SMOOTH",
"219 775 OFFCURVE",
"149 743 OFFCURVE",
"93 702 CURVE",
"149 622 LINE",
"120 466 OFFCURVE",
"60 178 OFFCURVE",
"60 99 CURVE SMOOTH",
"60 19 OFFCURVE",
"93 -25 OFFCURVE",
"177 -25 CURVE SMOOTH"
);
}
);
width = 763;
}
);
leftKerningGroup = h;
leftMetricsKey = l;
rightKerningGroup = n;
rightMetricsKey = n;
unicode = 0068;
},
{
color = 10;
glyphname = i;
lastChange = "2015-10-18 16:59:44 +0000";
layers = (
{
anchors = (
{
name = bottom;
position = "{160, 0}";
},
{
name = ogonek;
position = "{224, -3}";
}
);
hints = (
{
horizontal = 1;
origin = "{1, 11}";
target = "{1, 5}";
},
{
origin = "{0, 18}";
target = "{0, 5}";
},
{
horizontal = 1;
origin = "{0, 11}";
target = down;
type = TopGhost;
},
{
origin = "{1, 8}";
target = "{1, 2}";
}
);
layerId = "833A345D-F5FC-4136-BC05-A08F75A897C3";
paths = (
{
closed = 1;
nodes = (
"190 -25 OFFCURVE",
"207 -18 OFFCURVE",
"224 -3 CURVE",
"215 5 OFFCURVE",
"210 18 OFFCURVE",
"210 40 CURVE SMOOTH",
"210 201 OFFCURVE",
"305 529 OFFCURVE",
"305 550 CURVE SMOOTH",
"305 588 OFFCURVE",
"290 600 OFFCURVE",
"255 600 CURVE SMOOTH",
"229 600 OFFCURVE",
"189 588 OFFCURVE",
"163 566 CURVE",
"204 525 LINE",
"131 197 OFFCURVE",
"113 85 OFFCURVE",
"113 33 CURVE SMOOTH",
"113 -10 OFFCURVE",
"133 -25 OFFCURVE",
"168 -25 CURVE SMOOTH"
);
},
{
closed = 1;
nodes = (
"311 693 OFFCURVE",
"342 723 OFFCURVE",
"342 760 CURVE SMOOTH",
"342 789 OFFCURVE",
"320 810 OFFCURVE",
"281 810 CURVE SMOOTH",
"229 810 OFFCURVE",
"203 774 OFFCURVE",
"203 743 CURVE SMOOTH",
"203 713 OFFCURVE",
"226 693 OFFCURVE",
"264 693 CURVE SMOOTH"
);
}
);
width = 388;
},
{
anchors = (
{
name = bottom;
position = "{175, 0}";
},
{
name = ogonek;
position = "{302, 24}";
}
);
hints = (
{
horizontal = 1;
origin = "{1, 11}";
target = "{1, 5}";
},
{
origin = "{0, 18}";
target = "{0, 5}";
},
{
horizontal = 1;
origin = "{0, 11}";
target = down;
type = TopGhost;
},
{
origin = "{1, 8}";
target = "{1, 2}";
}
);
layerId = "72FD83BD-A9F6-48B4-8CEA-331AE6F11CF9";
paths = (
{
closed = 1;
nodes = (
"223 -25 OFFCURVE",
"264 -9 OFFCURVE",
"302 24 CURVE",
"281 42 OFFCURVE",
"271 75 OFFCURVE",
"271 115 CURVE SMOOTH",
"271 243 OFFCURVE",
"345 476 OFFCURVE",
"345 526 CURVE SMOOTH",
"345 577 OFFCURVE",
"326 600 OFFCURVE",
"270 600 CURVE SMOOTH",
"206 600 OFFCURVE",
"133 567 OFFCURVE",
"73 525 CURVE",
"129 441 LINE",
"102 324 OFFCURVE",
"65 158 OFFCURVE",
"65 99 CURVE SMOOTH",
"65 19 OFFCURVE",
"98 -25 OFFCURVE",
"183 -25 CURVE SMOOTH"
);
},
{
closed = 1;
nodes = (
"314 655 OFFCURVE",
"378 699 OFFCURVE",
"378 764 CURVE SMOOTH",
"378 816 OFFCURVE",
"333 847 OFFCURVE",
"272 847 CURVE SMOOTH",
"215 847 OFFCURVE",
"137 811 OFFCURVE",
"137 738 CURVE SMOOTH",
"137 686 OFFCURVE",
"182 655 OFFCURVE",
"243 655 CURVE SMOOTH"
);
}
);
width = 388;
}
);
leftKerningGroup = i;
rightKerningGroup = i;
unicode = 0069;
},
{
color = 10;
glyphname = idotless;
lastChange = "2015-11-22 00:55:20 +0000";
layers = (
{
anchors = (
{
name = bottom;
position = "{143, 0}";
},
{
name = ogonek;
position = "{224, -3}";
},
{
name = top;
position = "{245, 575}";
}
);
hints = (
{
origin = "{0, 18}";
target = "{0, 5}";
}
);
layerId = "833A345D-F5FC-4136-BC05-A08F75A897C3";
paths = (
{
closed = 1;
nodes = (
"190 -25 OFFCURVE",
"207 -18 OFFCURVE",
"224 -3 CURVE",
"215 5 OFFCURVE",
"210 18 OFFCURVE",
"210 40 CURVE SMOOTH",
"210 201 OFFCURVE",
"305 529 OFFCURVE",
"305 550 CURVE SMOOTH",
"305 588 OFFCURVE",
"290 600 OFFCURVE",
"255 600 CURVE SMOOTH",
"229 600 OFFCURVE",
"189 588 OFFCURVE",
"163 566 CURVE",
"204 525 LINE",
"132 200 OFFCURVE",
"113 85 OFFCURVE",
"113 33 CURVE SMOOTH",
"113 -10 OFFCURVE",
"133 -25 OFFCURVE",
"168 -25 CURVE SMOOTH"
);
}
);
width = 388;
},
{
anchors = (
{
name = bottom;
position = "{143, 0}";
},
{
name = ogonek;
position = "{302, 24}";
},
{
name = top;
position = "{245, 575}";
}
);
hints = (
{
origin = "{0, 18}";
target = "{0, 5}";
}
);
layerId = "72FD83BD-A9F6-48B4-8CEA-331AE6F11CF9";
paths = (
{
closed = 1;
nodes = (
"223 -25 OFFCURVE",
"264 -9 OFFCURVE",
"302 24 CURVE",
"281 42 OFFCURVE",
"271 75 OFFCURVE",
"271 115 CURVE SMOOTH",
"271 243 OFFCURVE",
"345 476 OFFCURVE",
"345 526 CURVE SMOOTH",
"345 577 OFFCURVE",
"326 600 OFFCURVE",
"270 600 CURVE SMOOTH",
"206 600 OFFCURVE",
"133 567 OFFCURVE",
"73 525 CURVE",
"129 441 LINE",
"102 324 OFFCURVE",
"65 158 OFFCURVE",
"65 99 CURVE SMOOTH",
"65 19 OFFCURVE",
"98 -25 OFFCURVE",
"183 -25 CURVE SMOOTH"
);
}
);
width = 388;
}
);
leftKerningGroup = idotless;
rightKerningGroup = idotless;
unicode = 0131;
},
{
color = 10;
glyphname = j;
lastChange = "2015-10-18 16:59:44 +0000";
layers = (
{
hints = (
{
place = "{201, 361.5}";
},
{
horizontal = 1;
place = "{1255.5, -20}";
target = down;
type = TopGhost;
},
{
horizontal = 1;
place = "{900, -20}";
target = down;
type = TopGhost;
},
{
horizontal = 1;
place = "{-22.5, 21}";
target = up;
type = BottomGhost;
},
{
horizontal = 1;
place = "{-315, 21}";
target = up;
type = BottomGhost;
}
);
layerId = "833A345D-F5FC-4136-BC05-A08F75A897C3";
paths = (
{
closed = 1;
nodes = (
"117 -210 OFFCURVE",
"161 -161 OFFCURVE",
"183 -58 CURVE SMOOTH",
"224 152 OFFCURVE",
"301 527 OFFCURVE",
"301 550 CURVE SMOOTH",
"301 588 OFFCURVE",
"287 600 OFFCURVE",
"252 600 CURVE SMOOTH",
"225 600 OFFCURVE",
"185 588 OFFCURVE",
"160 566 CURVE",
"201 525 LINE",
"165 288 OFFCURVE",
"111 50 OFFCURVE",
"111 -21 CURVE SMOOTH",
"111 -60 OFFCURVE",
"118 -86 OFFCURVE",
"133 -102 CURVE",
"124 -117 LINE",
"111 -107 OFFCURVE",
"88 -89 OFFCURVE",
"58 -89 CURVE SMOOTH",
"15 -89 OFFCURVE",
"-13 -112 OFFCURVE",
"-13 -149 CURVE SMOOTH",
"-13 -182 OFFCURVE",
"7 -210 OFFCURVE",
"49 -210 CURVE SMOOTH"
);
},
{
closed = 1;
nodes = (
"307 703 OFFCURVE",
"338 728 OFFCURVE",
"338 759 CURVE SMOOTH",
"338 782 OFFCURVE",
"314 800 OFFCURVE",
"277 800 CURVE SMOOTH",
"225 800 OFFCURVE",
"199 769 OFFCURVE",
"199 744 CURVE SMOOTH",
"199 720 OFFCURVE",
"223 703 OFFCURVE",
"260 703 CURVE SMOOTH"
);
}
);
width = 397;
},
{
hints = (
{
place = "{134, 241}";
},
{
horizontal = 1;
place = "{837, -20}";
target = down;
type = TopGhost;
},
{
horizontal = 1;
place = "{600, -20}";
target = down;
type = TopGhost;
},
{
horizontal = 1;
place = "{-15, 21}";
target = up;
type = BottomGhost;
},
{
horizontal = 1;
place = "{-210, 21}";
target = up;
type = BottomGhost;
}
);
layerId = "72FD83BD-A9F6-48B4-8CEA-331AE6F11CF9";
paths = (
{
closed = 1;
nodes = (
"165 -210 OFFCURVE",
"230 -87 OFFCURVE",
"255 37 CURVE SMOOTH",
"290 210 OFFCURVE",
"337 465 OFFCURVE",
"337 526 CURVE SMOOTH",
"337 577 OFFCURVE",
"318 600 OFFCURVE",
"262 600 CURVE SMOOTH",
"198 600 OFFCURVE",
"125 567 OFFCURVE",
"65 525 CURVE",
"121 441 LINE",
"99 316 OFFCURVE",
"67 134 OFFCURVE",
"67 105 CURVE SMOOTH",
"67 50 OFFCURVE",
"77 18 OFFCURVE",
"134 -34 CURVE",
"124 -48 LINE",
"102 -33 OFFCURVE",
"76 -15 OFFCURVE",
"38 -15 CURVE SMOOTH",
"-29 -15 OFFCURVE",
"-73 -52 OFFCURVE",
"-73 -113 CURVE SMOOTH",
"-73 -165 OFFCURVE",
"-37 -210 OFFCURVE",
"46 -210 CURVE SMOOTH"
);
},
{
closed = 1;
nodes = (
"306 665 OFFCURVE",
"370 704 OFFCURVE",
"370 763 CURVE SMOOTH",
"370 809 OFFCURVE",
"325 837 OFFCURVE",
"264 837 CURVE SMOOTH",
"207 837 OFFCURVE",
"129 805 OFFCURVE",
"129 739 CURVE SMOOTH",
"129 693 OFFCURVE",
"174 665 OFFCURVE",
"235 665 CURVE SMOOTH"
);
}
);
width = 397;
}
);
leftKerningGroup = j;
rightKerningGroup = j;
unicode = 006A;
},
{
color = 10;
glyphname = jdotless;
lastChange = "2015-11-22 00:54:16 +0000";
layers = (
{
anchors = (
{
name = bottom;
position = "{153, 0}";
},
{
name = top;
position = "{245, 575}";
}
);
hints = (
{
place = "{201, 361.5}";
},
{
horizontal = 1;
place = "{1255.5, -20}";
target = down;
type = TopGhost;
},
{
horizontal = 1;
place = "{900, -20}";
target = down;
type = TopGhost;
},
{
horizontal = 1;
place = "{-22.5, 21}";
target = up;
type = BottomGhost;
},
{
horizontal = 1;
place = "{-315, 21}";
target = up;
type = BottomGhost;
}
);
layerId = "833A345D-F5FC-4136-BC05-A08F75A897C3";
paths = (
{
closed = 1;
nodes = (
"117 -210 OFFCURVE",
"161 -161 OFFCURVE",
"183 -58 CURVE SMOOTH",
"224 152 OFFCURVE",
"301 527 OFFCURVE",
"301 550 CURVE SMOOTH",
"301 588 OFFCURVE",
"287 600 OFFCURVE",
"252 600 CURVE SMOOTH",
"225 600 OFFCURVE",
"185 588 OFFCURVE",
"160 566 CURVE",
"201 525 LINE",
"165 288 OFFCURVE",
"111 50 OFFCURVE",
"111 -21 CURVE SMOOTH",
"111 -60 OFFCURVE",
"118 -86 OFFCURVE",
"133 -102 CURVE",
"124 -117 LINE",
"111 -107 OFFCURVE",
"88 -89 OFFCURVE",
"58 -89 CURVE SMOOTH",
"15 -89 OFFCURVE",
"-13 -112 OFFCURVE",
"-13 -149 CURVE SMOOTH",
"-13 -182 OFFCURVE",
"7 -210 OFFCURVE",
"49 -210 CURVE SMOOTH"
);
}
);
width = 397;
},
{
anchors = (
{
name = bottom;
position = "{153, 0}";
},
{
name = top;
position = "{245, 575}";
}
);
hints = (
{
place = "{134, 241}";
},
{
horizontal = 1;
place = "{837, -20}";
target = down;
type = TopGhost;
},
{
horizontal = 1;
place = "{600, -20}";
target = down;
type = TopGhost;
},
{
horizontal = 1;
place = "{-15, 21}";
target = up;
type = BottomGhost;
},
{
horizontal = 1;
place = "{-210, 21}";
target = up;
type = BottomGhost;
}
);
layerId = "72FD83BD-A9F6-48B4-8CEA-331AE6F11CF9";
paths = (
{
closed = 1;
nodes = (
"165 -210 OFFCURVE",
"230 -87 OFFCURVE",
"255 37 CURVE SMOOTH",
"290 210 OFFCURVE",
"337 465 OFFCURVE",
"337 526 CURVE SMOOTH",
"337 577 OFFCURVE",
"318 600 OFFCURVE",
"262 600 CURVE SMOOTH",
"198 600 OFFCURVE",
"125 567 OFFCURVE",
"65 525 CURVE",
"121 441 LINE",
"99 316 OFFCURVE",
"67 134 OFFCURVE",
"67 105 CURVE SMOOTH",
"67 50 OFFCURVE",
"77 18 OFFCURVE",
"134 -34 CURVE",
"124 -48 LINE",
"102 -33 OFFCURVE",
"76 -15 OFFCURVE",
"38 -15 CURVE SMOOTH",
"-29 -15 OFFCURVE",
"-73 -52 OFFCURVE",
"-73 -113 CURVE SMOOTH",
"-73 -165 OFFCURVE",
"-37 -210 OFFCURVE",
"46 -210 CURVE SMOOTH"
);
}
);
width = 397;
}
);
leftKerningGroup = jdotless;
rightKerningGroup = jdotless;
unicode = 0237;
},
{
color = 10;
glyphname = k;
lastChange = "2015-10-18 16:59:44 +0000";
layers = (
{
anchors = (
{
name = bottom;
position = "{294, 0}";
},
{
name = top;
position = "{397, 575}";
}
);
hints = (
{
horizontal = 1;
origin = "{0, 21}";
target = up;
type = BottomGhost;
},
{
horizontal = 1;
origin = "{2, 6}";
target = down;
type = TopGhost;
},
{
origin = "{0, 18}";
target = "{0, 5}";
},
{
origin = "{2, 12}";
target = "{2, 3}";
}
);
layerId = "833A345D-F5FC-4136-BC05-A08F75A897C3";
paths = (
{
closed = 1;
nodes = (
"185 -25 OFFCURVE",
"205 -15 OFFCURVE",
"220 -2 CURVE",
"208 7 OFFCURVE",
"202 34 OFFCURVE",
"202 47 CURVE SMOOTH",
"202 345 OFFCURVE",
"306 646 OFFCURVE",
"306 724 CURVE SMOOTH",
"306 762 OFFCURVE",
"293 775 OFFCURVE",
"262 775 CURVE SMOOTH",
"234 775 OFFCURVE",
"192 763 OFFCURVE",
"165 740 CURVE",
"206 697 LINE",
"171 505 OFFCURVE",
"107 107 OFFCURVE",
"107 38 CURVE SMOOTH",
"107 -5 OFFCURVE",
"127 -25 OFFCURVE",
"157 -25 CURVE SMOOTH"
);
},
{
closed = 1;
nodes = (
"561 -25 OFFCURVE",
"593 -9 OFFCURVE",
"612 24 CURVE",
"543 50 OFFCURVE",
"517 90 OFFCURVE",
"483 146 CURVE SMOOTH",
"377 339 LINE",
"303 278 LINE",
"416 75 LINE SMOOTH",
"459 -4 OFFCURVE",
"488 -25 OFFCURVE",
"534 -25 CURVE SMOOTH"
);
},
{
closed = 1;
nodes = (
"388 303 LINE SMOOTH",
"526 394 OFFCURVE",
"589 472 OFFCURVE",
"589 540 CURVE SMOOTH",
"589 577 OFFCURVE",
"568 600 OFFCURVE",
"535 600 CURVE SMOOTH",
"519 600 OFFCURVE",
"497 594 OFFCURVE",
"484 581 CURVE",
"486 571 OFFCURVE",
"488 561 OFFCURVE",
"488 551 CURVE SMOOTH",
"488 475 OFFCURVE",
"415 395 OFFCURVE",
"337 331 CURVE SMOOTH",
"184 210 LINE",
"172 159 LINE"
);
}
);
width = 626;
},
{
anchors = (
{
name = bottom;
position = "{342, 0}";
},
{
name = top;
position = "{443, 575}";
}
);
hints = (
{
horizontal = 1;
origin = "{0, 21}";
target = up;
type = BottomGhost;
},
{
horizontal = 1;
origin = "{2, 6}";
target = down;
type = TopGhost;
},
{
origin = "{0, 18}";
target = "{0, 5}";
},
{
origin = "{2, 12}";
target = "{2, 3}";
}
);
layerId = "72FD83BD-A9F6-48B4-8CEA-331AE6F11CF9";
paths = (
{
closed = 1;
nodes = (
"221 -25 OFFCURVE",
"270 -9 OFFCURVE",
"307 24 CURVE",
"289 46 OFFCURVE",
"276 65 OFFCURVE",
"276 132 CURVE SMOOTH",
"276 357 OFFCURVE",
"365 605 OFFCURVE",
"365 704 CURVE SMOOTH",
"365 754 OFFCURVE",
"343 775 OFFCURVE",
"280 775 CURVE SMOOTH",
"219 775 OFFCURVE",
"149 743 OFFCURVE",
"93 702 CURVE",
"149 622 LINE",
"123 472 OFFCURVE",
"70 195 OFFCURVE",
"70 119 CURVE SMOOTH",
"70 22 OFFCURVE",
"102 -25 OFFCURVE",
"183 -25 CURVE SMOOTH"
);
},
{
closed = 1;
nodes = (
"639 -25 OFFCURVE",
"689 6 OFFCURVE",
"728 69 CURVE",
"653 99 OFFCURVE",
"613 154 OFFCURVE",
"587 210 CURVE SMOOTH",
"505 361 LINE",
"332 257 LINE",
"407 118 LINE SMOOTH",
"461 19 OFFCURVE",
"503 -25 OFFCURVE",
"575 -25 CURVE SMOOTH"
);
},
{
closed = 1;
nodes = (
"484 277 LINE SMOOTH",
"640 358 OFFCURVE",
"705 425 OFFCURVE",
"705 504 CURVE SMOOTH",
"705 562 OFFCURVE",
"664 600 OFFCURVE",
"603 600 CURVE SMOOTH",
"564 600 OFFCURVE",
"523 589 OFFCURVE",
"478 567 CURVE",
"485 550 OFFCURVE",
"488 534 OFFCURVE",
"488 519 CURVE SMOOTH",
"488 446 OFFCURVE",
"417 389 OFFCURVE",
"315 307 CURVE SMOOTH",
"234 241 LINE",
"228 144 LINE"
);
}
);
width = 729;
}
);
leftKerningGroup = h;
leftMetricsKey = l;
rightKerningGroup = k;
unicode = 006B;
},
{
color = 10;
glyphname = kgreenlandic;
lastChange = "2015-10-18 16:59:44 +0000";
layers = (
{
anchors = (
{
name = bottom;
position = "{348, 0}";
},
{
name = top;
position = "{417, 575}";
}
);
hints = (
{
origin = "{2, 18}";
target = "{2, 5}";
},
{
origin = "{1, 12}";
target = "{1, 3}";
}
);
layerId = "833A345D-F5FC-4136-BC05-A08F75A897C3";
paths = (
{
closed = 1;
nodes = (
"586 -25 OFFCURVE",
"618 -9 OFFCURVE",
"637 24 CURVE",
"568 50 OFFCURVE",
"542 90 OFFCURVE",
"508 146 CURVE SMOOTH",
"402 339 LINE",
"328 278 LINE",
"441 75 LINE SMOOTH",
"484 -4 OFFCURVE",
"513 -25 OFFCURVE",
"559 -25 CURVE SMOOTH"
);
},
{
closed = 1;
nodes = (
"413 303 LINE SMOOTH",
"551 394 OFFCURVE",
"614 472 OFFCURVE",
"614 540 CURVE SMOOTH",
"614 577 OFFCURVE",
"593 600 OFFCURVE",
"560 600 CURVE SMOOTH",
"544 600 OFFCURVE",
"522 594 OFFCURVE",
"509 581 CURVE",
"511 571 OFFCURVE",
"513 561 OFFCURVE",
"513 551 CURVE SMOOTH",
"513 475 OFFCURVE",
"440 395 OFFCURVE",
"362 331 CURVE SMOOTH",
"209 210 LINE",
"197 159 LINE"
);
},
{
closed = 1;
nodes = (
"217 -25 OFFCURVE",
"236 -18 OFFCURVE",
"254 -3 CURVE",
"241 5 OFFCURVE",
"235 18 OFFCURVE",
"235 40 CURVE SMOOTH",
"235 201 OFFCURVE",
"305 529 OFFCURVE",
"305 550 CURVE SMOOTH",
"305 588 OFFCURVE",
"290 600 OFFCURVE",
"255 600 CURVE SMOOTH",
"229 600 OFFCURVE",
"189 588 OFFCURVE",
"163 566 CURVE",
"204 525 LINE",
"150 197 OFFCURVE",
"138 85 OFFCURVE",
"138 33 CURVE SMOOTH",
"138 -10 OFFCURVE",
"158 -25 OFFCURVE",
"194 -25 CURVE SMOOTH"
);
}
);
width = 651;
},
{
anchors = (
{
name = bottom;
position = "{342, 0}";
},
{
name = top;
position = "{415, 575}";
}
);
hints = (
{
origin = "{2, 18}";
target = "{2, 5}";
},
{
origin = "{1, 12}";
target = "{1, 3}";
}
);
layerId = "72FD83BD-A9F6-48B4-8CEA-331AE6F11CF9";
paths = (
{
closed = 1;
nodes = (
"649 -25 OFFCURVE",
"699 6 OFFCURVE",
"738 69 CURVE",
"663 99 OFFCURVE",
"623 154 OFFCURVE",
"597 210 CURVE SMOOTH",
"515 361 LINE",
"342 257 LINE",
"417 118 LINE SMOOTH",
"471 19 OFFCURVE",
"513 -25 OFFCURVE",
"585 -25 CURVE SMOOTH"
);
},
{
closed = 1;
nodes = (
"494 277 LINE SMOOTH",
"650 358 OFFCURVE",
"715 425 OFFCURVE",
"715 504 CURVE SMOOTH",
"715 562 OFFCURVE",
"674 600 OFFCURVE",
"613 600 CURVE SMOOTH",
"574 600 OFFCURVE",
"533 589 OFFCURVE",
"488 567 CURVE",
"495 550 OFFCURVE",
"498 534 OFFCURVE",
"498 519 CURVE SMOOTH",
"498 446 OFFCURVE",
"427 389 OFFCURVE",
"325 307 CURVE SMOOTH",
"244 241 LINE",
"238 144 LINE"
);
},
{
closed = 1;
nodes = (
"229 -25 OFFCURVE",
"266 -9 OFFCURVE",
"302 24 CURVE",
"289 42 OFFCURVE",
"281 75 OFFCURVE",
"281 115 CURVE SMOOTH",
"281 243 OFFCURVE",
"345 476 OFFCURVE",
"345 526 CURVE SMOOTH",
"345 577 OFFCURVE",
"326 600 OFFCURVE",
"270 600 CURVE SMOOTH",
"206 600 OFFCURVE",
"133 567 OFFCURVE",
"73 525 CURVE",
"129 441 LINE",
"106 324 OFFCURVE",
"75 158 OFFCURVE",
"75 99 CURVE SMOOTH",
"75 19 OFFCURVE",
"108 -25 OFFCURVE",
"192 -25 CURVE SMOOTH"
);
}
);
width = 739;
}
);
leftKerningGroup = h;
leftMetricsKey = i;
rightKerningGroup = k;
rightMetricsKey = k;
unicode = 0138;
},
{
color = 10;
glyphname = l;
lastChange = "2015-10-21 22:59:30 +0000";
layers = (
{
anchors = (
{
name = bottom;
position = "{140, 0}";
},
{
name = center;
position = "{202, 391}";
},
{
name = top;
position = "{257, 725}";
},
{
name = topright;
position = "{279, 575}";
}
);
layerId = "833A345D-F5FC-4136-BC05-A08F75A897C3";
paths = (
{
closed = 1;
nodes = (
"185 -25 OFFCURVE",
"205 -15 OFFCURVE",
"220 -2 CURVE",
"208 7 OFFCURVE",
"202 34 OFFCURVE",
"202 47 CURVE SMOOTH",
"202 270 OFFCURVE",
"306 676 OFFCURVE",
"306 724 CURVE SMOOTH",
"306 762 OFFCURVE",
"293 775 OFFCURVE",
"262 775 CURVE SMOOTH",
"234 775 OFFCURVE",
"192 763 OFFCURVE",
"165 740 CURVE",
"206 697 LINE",
"171 505 OFFCURVE",
"107 107 OFFCURVE",
"107 38 CURVE SMOOTH",
"107 -5 OFFCURVE",
"127 -25 OFFCURVE",
"157 -25 CURVE SMOOTH"
);
}
);
width = 372;
},
{
anchors = (
{
name = bottom;
position = "{165, 0}";
},
{
name = center;
position = "{205, 377}";
},
{
name = top;
position = "{260, 725}";
},
{
name = topright;
position = "{345, 575}";
}
);
layerId = "72FD83BD-A9F6-48B4-8CEA-331AE6F11CF9";
paths = (
{
closed = 1;
nodes = (
"221 -25 OFFCURVE",
"270 -9 OFFCURVE",
"307 24 CURVE",
"289 46 OFFCURVE",
"276 65 OFFCURVE",
"276 132 CURVE SMOOTH",
"276 357 OFFCURVE",
"365 605 OFFCURVE",
"365 704 CURVE SMOOTH",
"365 754 OFFCURVE",
"343 775 OFFCURVE",
"280 775 CURVE SMOOTH",
"219 775 OFFCURVE",
"149 743 OFFCURVE",
"93 702 CURVE",
"149 622 LINE",
"123 472 OFFCURVE",
"70 195 OFFCURVE",
"70 119 CURVE SMOOTH",
"70 22 OFFCURVE",
"102 -25 OFFCURVE",
"183 -25 CURVE SMOOTH"
);
}
);
width = 385;
}
);
leftKerningGroup = h;
rightKerningGroup = l;
unicode = 006C;
},
{
color = 10;
glyphname = m;
lastChange = "2016-03-09 00:42:11 +0000";
layers = (
{
hints = (
{
horizontal = 1;
origin = "{0, 57}";
target = "{0, 8}";
},
{
origin = "{0, 74}";
target = "{0, 5}";
},
{
origin = "{0, 14}";
target = "{0, 23}";
},
{
origin = "{0, 32}";
target = "{0, 41}";
},
{
horizontal = 1;
origin = "{0, 77}";
target = "{0, 17}";
}
);
layerId = "833A345D-F5FC-4136-BC05-A08F75A897C3";
paths = (
{
closed = 1;
nodes = (
"189 -25 OFFCURVE",
"207 -18 OFFCURVE",
"223 -2 CURVE",
"216 6 OFFCURVE",
"213 23 OFFCURVE",
"213 40 CURVE SMOOTH",
"213 332 OFFCURVE",
"366 533 OFFCURVE",
"486 533 CURVE SMOOTH",
"535 533 OFFCURVE",
"555 500 OFFCURVE",
"555 443 CURVE SMOOTH",
"555 346 OFFCURVE",
"490 142 OFFCURVE",
"490 38 CURVE SMOOTH",
"490 -3 OFFCURVE",
"507 -25 OFFCURVE",
"546 -25 CURVE SMOOTH",
"563 -25 OFFCURVE",
"581 -18 OFFCURVE",
"597 -2 CURVE",
"590 6 OFFCURVE",
"587 23 OFFCURVE",
"587 40 CURVE SMOOTH",
"587 332 OFFCURVE",
"740 533 OFFCURVE",
"860 533 CURVE SMOOTH",
"909 533 OFFCURVE",
"929 500 OFFCURVE",
"929 443 CURVE SMOOTH",
"929 346 OFFCURVE",
"864 142 OFFCURVE",
"864 38 CURVE SMOOTH",
"864 -3 OFFCURVE",
"881 -25 OFFCURVE",
"920 -25 CURVE SMOOTH",
"937 -25 OFFCURVE",
"955 -18 OFFCURVE",
"971 -2 CURVE",
"964 6 OFFCURVE",
"961 23 OFFCURVE",
"961 40 CURVE SMOOTH",
"961 185 OFFCURVE",
"1033 338 OFFCURVE",
"1033 464 CURVE SMOOTH",
"1033 558 OFFCURVE",
"990 600 OFFCURVE",
"903 600 CURVE SMOOTH",
"807 600 OFFCURVE",
"725 551 OFFCURVE",
"653 417 CURVE",
"643 422 LINE",
"647 440 OFFCURVE",
"649 456 OFFCURVE",
"649 470 CURVE SMOOTH",
"649 545 OFFCURVE",
"621 600 OFFCURVE",
"529 600 CURVE SMOOTH",
"436 600 OFFCURVE",
"356 551 OFFCURVE",
"287 417 CURVE",
"277 422 LINE",
"298 463 OFFCURVE",
"310 512 OFFCURVE",
"310 547 CURVE SMOOTH",
"310 586 OFFCURVE",
"299 596 OFFCURVE",
"264 596 CURVE SMOOTH",
"239 596 OFFCURVE",
"194 580 OFFCURVE",
"166 552 CURVE",
"209 509 LINE",
"171 362 OFFCURVE",
"116 108 OFFCURVE",
"116 33 CURVE SMOOTH",
"116 -5 OFFCURVE",
"133 -25 OFFCURVE",
"172 -25 CURVE SMOOTH"
);
}
);
width = 1114;
},
{
hints = (
{
horizontal = 1;
origin = "{0, 57}";
target = "{0, 8}";
},
{
origin = "{0, 74}";
target = "{0, 5}";
},
{
origin = "{0, 14}";
target = "{0, 23}";
},
{
origin = "{0, 32}";
target = "{0, 41}";
},
{
horizontal = 1;
origin = "{0, 77}";
target = "{0, 17}";
}
);
layerId = "72FD83BD-A9F6-48B4-8CEA-331AE6F11CF9";
paths = (
{
closed = 1;
nodes = (
"209 -25 OFFCURVE",
"246 -9 OFFCURVE",
"282 24 CURVE",
"269 42 OFFCURVE",
"261 75 OFFCURVE",
"261 115 CURVE SMOOTH",
"261 309 OFFCURVE",
"392 443 OFFCURVE",
"464 443 CURVE SMOOTH",
"489 443 OFFCURVE",
"498 426 OFFCURVE",
"498 398 CURVE SMOOTH",
"498 325 OFFCURVE",
"438 211 OFFCURVE",
"438 89 CURVE SMOOTH",
"438 15 OFFCURVE",
"471 -25 OFFCURVE",
"555 -25 CURVE SMOOTH",
"592 -25 OFFCURVE",
"629 -9 OFFCURVE",
"665 24 CURVE",
"652 42 OFFCURVE",
"644 75 OFFCURVE",
"644 115 CURVE SMOOTH",
"644 309 OFFCURVE",
"775 443 OFFCURVE",
"847 443 CURVE SMOOTH",
"872 443 OFFCURVE",
"881 426 OFFCURVE",
"881 398 CURVE SMOOTH",
"881 325 OFFCURVE",
"821 211 OFFCURVE",
"821 89 CURVE SMOOTH",
"821 15 OFFCURVE",
"854 -25 OFFCURVE",
"938 -25 CURVE SMOOTH",
"975 -25 OFFCURVE",
"1012 -9 OFFCURVE",
"1048 24 CURVE",
"1035 42 OFFCURVE",
"1027 75 OFFCURVE",
"1027 115 CURVE SMOOTH",
"1027 239 OFFCURVE",
"1086 371 OFFCURVE",
"1086 479 CURVE SMOOTH",
"1086 562 OFFCURVE",
"1046 600 OFFCURVE",
"965 600 CURVE SMOOTH",
"867 600 OFFCURVE",
"781 551 OFFCURVE",
"703 417 CURVE",
"693 422 LINE",
"700 447 OFFCURVE",
"703 469 OFFCURVE",
"703 488 CURVE SMOOTH",
"703 566 OFFCURVE",
"653 600 OFFCURVE",
"582 600 CURVE SMOOTH",
"484 600 OFFCURVE",
"398 551 OFFCURVE",
"320 417 CURVE",
"310 422 LINE",
"322 449 OFFCURVE",
"333 489 OFFCURVE",
"333 524 CURVE SMOOTH",
"333 571 OFFCURVE",
"307 600 OFFCURVE",
"251 600 CURVE SMOOTH",
"185 600 OFFCURVE",
"121 575 OFFCURVE",
"66 544 CURVE",
"118 464 LINE",
"92 351 OFFCURVE",
"55 156 OFFCURVE",
"55 99 CURVE SMOOTH",
"55 19 OFFCURVE",
"88 -25 OFFCURVE",
"172 -25 CURVE SMOOTH"
);
}
);
width = 1131;
}
);
leftKerningGroup = n;
leftMetricsKey = n;
rightKerningGroup = n;
rightMetricsKey = n;
unicode = 006D;
},
{
color = 10;
glyphname = n;
lastChange = "2015-10-18 16:59:44 +0000";
layers = (
{
anchors = (
{
name = bottom;
position = "{358, 0}";
},
{
name = top;
position = "{460, 575}";
}
);
hints = (
{
horizontal = 1;
origin = "{0, 29}";
target = "{0, 8}";
},
{
origin = "{0, 46}";
target = "{0, 5}";
},
{
origin = "{0, 14}";
target = "{0, 23}";
},
{
horizontal = 1;
origin = "{0, 49}";
target = "{0, 17}";
}
);
layerId = "833A345D-F5FC-4136-BC05-A08F75A897C3";
paths = (
{
closed = 1;
nodes = (
"191 -25 OFFCURVE",
"208 -17 OFFCURVE",
"223 -2 CURVE",
"216 6 OFFCURVE",
"213 21 OFFCURVE",
"213 40 CURVE SMOOTH",
"213 273 OFFCURVE",
"340 533 OFFCURVE",
"504 533 CURVE SMOOTH",
"548 533 OFFCURVE",
"572 504 OFFCURVE",
"572 442 CURVE SMOOTH",
"572 344 OFFCURVE",
"508 143 OFFCURVE",
"508 33 CURVE SMOOTH",
"508 -8 OFFCURVE",
"527 -25 OFFCURVE",
"563 -25 CURVE SMOOTH",
"582 -25 OFFCURVE",
"600 -17 OFFCURVE",
"615 -2 CURVE",
"608 6 OFFCURVE",
"604 21 OFFCURVE",
"604 40 CURVE SMOOTH",
"604 185 OFFCURVE",
"677 338 OFFCURVE",
"677 464 CURVE SMOOTH",
"677 556 OFFCURVE",
"635 600 OFFCURVE",
"547 600 CURVE SMOOTH",
"437 600 OFFCURVE",
"351 532 OFFCURVE",
"287 417 CURVE",
"277 422 LINE",
"298 463 OFFCURVE",
"310 512 OFFCURVE",
"310 547 CURVE SMOOTH",
"310 586 OFFCURVE",
"299 596 OFFCURVE",
"264 596 CURVE SMOOTH",
"239 596 OFFCURVE",
"194 580 OFFCURVE",
"166 552 CURVE",
"209 509 LINE",
"159 315 OFFCURVE",
"116 92 OFFCURVE",
"116 33 CURVE SMOOTH",
"116 -8 OFFCURVE",
"136 -25 OFFCURVE",
"172 -25 CURVE SMOOTH"
);
}
);
width = 758;
},
{
anchors = (
{
name = bottom;
position = "{358, 0}";
},
{
name = top;
position = "{460, 575}";
}
);
hints = (
{
horizontal = 1;
origin = "{0, 29}";
target = "{0, 8}";
},
{
origin = "{0, 46}";
target = "{0, 5}";
},
{
origin = "{0, 14}";
target = "{0, 23}";
},
{
horizontal = 1;
origin = "{0, 49}";
target = "{0, 17}";
}
);
layerId = "72FD83BD-A9F6-48B4-8CEA-331AE6F11CF9";
paths = (
{
closed = 1;
nodes = (
"209 -25 OFFCURVE",
"246 -9 OFFCURVE",
"282 24 CURVE",
"269 42 OFFCURVE",
"261 75 OFFCURVE",
"261 115 CURVE SMOOTH",
"261 309 OFFCURVE",
"402 443 OFFCURVE",
"474 443 CURVE SMOOTH",
"499 443 OFFCURVE",
"508 427 OFFCURVE",
"508 401 CURVE SMOOTH",
"508 329 OFFCURVE",
"448 210 OFFCURVE",
"448 99 CURVE SMOOTH",
"448 19 OFFCURVE",
"481 -25 OFFCURVE",
"565 -25 CURVE SMOOTH",
"602 -25 OFFCURVE",
"639 -9 OFFCURVE",
"675 24 CURVE",
"662 42 OFFCURVE",
"654 75 OFFCURVE",
"654 115 CURVE SMOOTH",
"654 239 OFFCURVE",
"713 371 OFFCURVE",
"713 479 CURVE SMOOTH",
"713 562 OFFCURVE",
"673 600 OFFCURVE",
"592 600 CURVE SMOOTH",
"494 600 OFFCURVE",
"398 551 OFFCURVE",
"320 417 CURVE",
"310 422 LINE",
"322 449 OFFCURVE",
"333 489 OFFCURVE",
"333 524 CURVE SMOOTH",
"333 571 OFFCURVE",
"307 600 OFFCURVE",
"251 600 CURVE SMOOTH",
"185 600 OFFCURVE",
"121 575 OFFCURVE",
"66 544 CURVE",
"118 464 LINE",
"92 351 OFFCURVE",
"55 156 OFFCURVE",
"55 99 CURVE SMOOTH",
"55 19 OFFCURVE",
"88 -25 OFFCURVE",
"172 -25 CURVE SMOOTH"
);
}
);
width = 758;
}
);
leftKerningGroup = n;
rightKerningGroup = n;
unicode = 006E;
},
{
color = 10;
glyphname = eng;
lastChange = "2016-03-09 00:42:15 +0000";
layers = (
{
layerId = "833A345D-F5FC-4136-BC05-A08F75A897C3";
paths = (
{
closed = 1;
nodes = (
"488 -240 OFFCURVE",
"677 119 OFFCURVE",
"677 454 CURVE SMOOTH",
"677 554 OFFCURVE",
"637 600 OFFCURVE",
"552 600 CURVE SMOOTH",
"440 600 OFFCURVE",
"353 532 OFFCURVE",
"287 417 CURVE",
"277 422 LINE",
"298 463 OFFCURVE",
"310 512 OFFCURVE",
"310 547 CURVE SMOOTH",
"310 586 OFFCURVE",
"299 596 OFFCURVE",
"264 596 CURVE SMOOTH",
"239 596 OFFCURVE",
"194 580 OFFCURVE",
"166 552 CURVE",
"209 509 LINE",
"159 315 OFFCURVE",
"116 92 OFFCURVE",
"116 33 CURVE SMOOTH",
"116 -8 OFFCURVE",
"136 -25 OFFCURVE",
"172 -25 CURVE SMOOTH",
"191 -25 OFFCURVE",
"208 -17 OFFCURVE",
"223 -2 CURVE",
"216 6 OFFCURVE",
"213 21 OFFCURVE",
"213 40 CURVE SMOOTH",
"213 273 OFFCURVE",
"350 533 OFFCURVE",
"511 533 CURVE SMOOTH",
"550 533 OFFCURVE",
"572 493 OFFCURVE",
"572 407 CURVE SMOOTH",
"572 157 OFFCURVE",
"431 -174 OFFCURVE",
"221 -174 CURVE",
"221 -222 OFFCURVE",
"254 -240 OFFCURVE",
"300 -240 CURVE SMOOTH"
);
}
);
width = 784;
},
{
layerId = "72FD83BD-A9F6-48B4-8CEA-331AE6F11CF9";
paths = (
{
closed = 1;
nodes = (
"577 -240 OFFCURVE",
"713 95 OFFCURVE",
"713 409 CURVE SMOOTH",
"713 539 OFFCURVE",
"670 600 OFFCURVE",
"582 600 CURVE SMOOTH",
"488 600 OFFCURVE",
"395 551 OFFCURVE",
"320 417 CURVE",
"310 422 LINE",
"322 449 OFFCURVE",
"333 489 OFFCURVE",
"333 524 CURVE SMOOTH",
"333 571 OFFCURVE",
"307 600 OFFCURVE",
"251 600 CURVE SMOOTH",
"185 600 OFFCURVE",
"121 575 OFFCURVE",
"66 544 CURVE",
"118 464 LINE",
"92 351 OFFCURVE",
"55 156 OFFCURVE",
"55 99 CURVE SMOOTH",
"55 19 OFFCURVE",
"88 -25 OFFCURVE",
"172 -25 CURVE SMOOTH",
"209 -25 OFFCURVE",
"246 -9 OFFCURVE",
"282 24 CURVE",
"269 42 OFFCURVE",
"261 75 OFFCURVE",
"261 115 CURVE SMOOTH",
"261 309 OFFCURVE",
"382 443 OFFCURVE",
"459 443 CURVE SMOOTH",
"495 443 OFFCURVE",
"508 409 OFFCURVE",
"508 351 CURVE SMOOTH",
"508 151 OFFCURVE",
"410 -114 OFFCURVE",
"221 -114 CURVE",
"221 -207 OFFCURVE",
"295 -240 OFFCURVE",
"345 -240 CURVE SMOOTH"
);
}
);
width = 774;
}
);
leftKerningGroup = n;
leftMetricsKey = n;
rightKerningGroup = j;
rightMetricsKey = "=n+25";
unicode = 014B;
},
{
color = 10;
glyphname = o;
lastChange = "2015-10-18 16:59:44 +0000";
layers = (
{
anchors = (
{
name = bottom;
position = "{317, 0}";
},
{
name = center;
position = "{373, 288}";
},
{
name = ogonek;
position = "{655, 10}";
},
{
name = top;
position = "{419, 575}";
},
{
name = topright;
position = "{559, 532}";
}
);
hints = (
{
horizontal = 1;
origin = "{0, 32}";
target = "{0, 14}";
},
{
horizontal = 1;
origin = "{0, 26}";
target = "{0, 20}";
},
{
origin = "{0, 29}";
target = "{0, 17}";
},
{
origin = "{0, 11}";
target = "{0, 2}";
}
);
layerId = "833A345D-F5FC-4136-BC05-A08F75A897C3";
paths = (
{
closed = 1;
nodes = (
"505 -25 OFFCURVE",
"649 154 OFFCURVE",
"649 380 CURVE SMOOTH",
"649 476 OFFCURVE",
"616 532 OFFCURVE",
"559 532 CURVE SMOOTH",
"519 532 OFFCURVE",
"491 500 OFFCURVE",
"491 456 CURVE SMOOTH",
"491 402 OFFCURVE",
"514 363 OFFCURVE",
"570 326 CURVE",
"552 150 OFFCURVE",
"457 33 OFFCURVE",
"327 33 CURVE SMOOTH",
"241 33 OFFCURVE",
"195 111 OFFCURVE",
"195 230 CURVE SMOOTH",
"195 419 OFFCURVE",
"310 554 OFFCURVE",
"525 554 CURVE",
"524 569 OFFCURVE",
"520 581 OFFCURVE",
"511 592 CURVE",
"486 598 OFFCURVE",
"462 600 OFFCURVE",
"433 600 CURVE SMOOTH",
"231 600 OFFCURVE",
"90 452 OFFCURVE",
"90 238 CURVE SMOOTH",
"90 78 OFFCURVE",
"181 -25 OFFCURVE",
"322 -25 CURVE SMOOTH"
);
}
);
width = 727;
},
{
anchors = (
{
name = bottom;
position = "{299, 0}";
},
{
name = center;
position = "{370, 288}";
},
{
name = ogonek;
position = "{647, 10}";
},
{
name = top;
position = "{401, 575}";
},
{
name = topright;
position = "{548, 524}";
}
);
hints = (
{
horizontal = 1;
origin = "{0, 32}";
target = "{0, 14}";
},
{
horizontal = 1;
origin = "{0, 26}";
target = "{0, 20}";
},
{
origin = "{0, 29}";
target = "{0, 17}";
},
{
origin = "{0, 11}";
target = "{0, 2}";
}
);
layerId = "72FD83BD-A9F6-48B4-8CEA-331AE6F11CF9";
paths = (
{
closed = 1;
nodes = (
"520 -25 OFFCURVE",
"679 143 OFFCURVE",
"679 357 CURVE SMOOTH",
"679 456 OFFCURVE",
"626 524 OFFCURVE",
"548 524 CURVE SMOOTH",
"477 524 OFFCURVE",
"420 461 OFFCURVE",
"420 379 CURVE SMOOTH",
"420 322 OFFCURVE",
"445 279 OFFCURVE",
"496 251 CURVE",
"483 142 OFFCURVE",
"428 78 OFFCURVE",
"351 78 CURVE SMOOTH",
"286 78 OFFCURVE",
"243 123 OFFCURVE",
"243 236 CURVE SMOOTH",
"243 386 OFFCURVE",
"344 509 OFFCURVE",
"505 509 CURVE",
"506 540 OFFCURVE",
"503 570 OFFCURVE",
"496 592 CURVE",
"468 598 OFFCURVE",
"447 600 OFFCURVE",
"425 600 CURVE SMOOTH",
"204 600 OFFCURVE",
"45 450 OFFCURVE",
"45 238 CURVE SMOOTH",
"45 78 OFFCURVE",
"151 -25 OFFCURVE",
"319 -25 CURVE SMOOTH"
);
}
);
width = 719;
}
);
leftKerningGroup = o;
rightKerningGroup = o;
unicode = 006F;
},
{
color = 10;
glyphname = oe;
lastChange = "2016-03-09 00:42:23 +0000";
layers = (
{
anchors = (
{
name = bottom;
position = "{484, 0}";
},
{
name = top;
position = "{576, 575}";
}
);
components = (
{
alignment = -1;
name = e;
transform = "{1, 0, 0, 1, 455, 0}";
}
);
hints = (
{
horizontal = 1;
origin = "{0, 32}";
target = "{0, 14}";
},
{
horizontal = 1;
origin = "{0, 26}";
target = "{0, 20}";
},
{
origin = "{0, 29}";
target = "{0, 17}";
},
{
origin = "{0, 11}";
target = "{0, 2}";
}
);
layerId = "833A345D-F5FC-4136-BC05-A08F75A897C3";
paths = (
{
closed = 1;
nodes = (
"509 -25 OFFCURVE",
"633 140 OFFCURVE",
"633 390 CURVE SMOOTH",
"633 483 OFFCURVE",
"598 537 OFFCURVE",
"538 537 CURVE SMOOTH",
"519 537 OFFCURVE",
"505 529 OFFCURVE",
"491 514 CURVE",
"523 467 OFFCURVE",
"544 389 OFFCURVE",
"544 311 CURVE SMOOTH",
"544 142 OFFCURVE",
"463 33 OFFCURVE",
"339 33 CURVE SMOOTH",
"248 33 OFFCURVE",
"194 107 OFFCURVE",
"194 230 CURVE SMOOTH",
"194 416 OFFCURVE",
"315 554 OFFCURVE",
"509 554 CURVE",
"508 568 OFFCURVE",
"504 580 OFFCURVE",
"495 592 CURVE",
"473 598 OFFCURVE",
"450 600 OFFCURVE",
"417 600 CURVE SMOOTH",
"225 600 OFFCURVE",
"89 436 OFFCURVE",
"89 235 CURVE SMOOTH",
"89 77 OFFCURVE",
"179 -25 OFFCURVE",
"320 -25 CURVE SMOOTH"
);
}
);
width = 1102;
},
{
anchors = (
{
name = bottom;
position = "{513, 0}";
},
{
name = top;
position = "{605, 575}";
}
);
components = (
{
alignment = -1;
name = e;
transform = "{1, 0, 0, 1, 476, 0}";
}
);
hints = (
{
horizontal = 1;
origin = "{0, 32}";
target = "{0, 14}";
},
{
horizontal = 1;
origin = "{0, 26}";
target = "{0, 20}";
},
{
origin = "{0, 29}";
target = "{0, 17}";
},
{
origin = "{0, 11}";
target = "{0, 2}";
}
);
layerId = "72FD83BD-A9F6-48B4-8CEA-331AE6F11CF9";
paths = (
{
closed = 1;
nodes = (
"523 -25 OFFCURVE",
"680 135 OFFCURVE",
"680 337 CURVE SMOOTH",
"680 442 OFFCURVE",
"631 514 OFFCURVE",
"559 514 CURVE SMOOTH",
"515 514 OFFCURVE",
"475 493 OFFCURVE",
"451 458 CURVE",
"498 410 OFFCURVE",
"517 359 OFFCURVE",
"517 281 CURVE SMOOTH",
"517 163 OFFCURVE",
"450 78 OFFCURVE",
"357 78 CURVE SMOOTH",
"283 78 OFFCURVE",
"244 132 OFFCURVE",
"244 236 CURVE SMOOTH",
"244 395 OFFCURVE",
"354 509 OFFCURVE",
"506 509 CURVE",
"507 542 OFFCURVE",
"504 572 OFFCURVE",
"497 592 CURVE",
"473 598 OFFCURVE",
"452 600 OFFCURVE",
"426 600 CURVE SMOOTH",
"204 600 OFFCURVE",
"46 452 OFFCURVE",
"46 245 CURVE SMOOTH",
"46 80 OFFCURVE",
"154 -25 OFFCURVE",
"323 -25 CURVE SMOOTH"
);
}
);
width = 1137;
}
);
leftKerningGroup = o;
leftMetricsKey = o;
rightKerningGroup = e;
rightMetricsKey = e;
unicode = 0153;
},
{
color = 10;
glyphname = p;
lastChange = "2016-03-09 00:42:27 +0000";
layers = (
{
hints = (
{
horizontal = 1;
origin = "{0, 19}";
target = "{0, 13}";
},
{
horizontal = 1;
origin = "{1, 11}";
target = "{0, 7}";
},
{
origin = "{1, 18}";
target = "{1, 5}";
},
{
origin = "{0, 10}";
target = "{0, 22}";
}
);
layerId = "833A345D-F5FC-4136-BC05-A08F75A897C3";
paths = (
{
closed = 1;
nodes = (
"422 600 OFFCURVE",
"345 540 OFFCURVE",
"295 434 CURVE",
"251 474 LINE",
"220 89 LINE",
"280 374 OFFCURVE",
"357 526 OFFCURVE",
"468 526 CURVE SMOOTH",
"541 526 OFFCURVE",
"584 469 OFFCURVE",
"584 371 CURVE SMOOTH",
"584 174 OFFCURVE",
"432 46 OFFCURVE",
"197 46 CURVE",
"197 33 OFFCURVE",
"201 21 OFFCURVE",
"209 8 CURVE",
"238 3 OFFCURVE",
"273 0 OFFCURVE",
"308 0 CURVE SMOOTH",
"518 0 OFFCURVE",
"687 163 OFFCURVE",
"687 365 CURVE SMOOTH",
"687 507 OFFCURVE",
"615 600 OFFCURVE",
"506 600 CURVE SMOOTH"
);
},
{
closed = 1;
nodes = (
"186 -200 OFFCURVE",
"207 -192 OFFCURVE",
"223 -177 CURVE",
"214 -172 OFFCURVE",
"205 -148 OFFCURVE",
"205 -129 CURVE SMOOTH",
"205 170 OFFCURVE",
"309 471 OFFCURVE",
"309 549 CURVE SMOOTH",
"309 586 OFFCURVE",
"297 600 OFFCURVE",
"265 600 CURVE SMOOTH",
"234 600 OFFCURVE",
"192 585 OFFCURVE",
"168 565 CURVE",
"209 522 LINE",
"154 214 OFFCURVE",
"110 -75 OFFCURVE",
"110 -127 CURVE SMOOTH",
"110 -176 OFFCURVE",
"129 -200 OFFCURVE",
"160 -200 CURVE SMOOTH"
);
}
);
width = 771;
},
{
hints = (
{
horizontal = 1;
origin = "{0, 19}";
target = "{0, 13}";
},
{
horizontal = 1;
origin = "{1, 11}";
target = "{0, 7}";
},
{
origin = "{1, 18}";
target = "{1, 5}";
},
{
origin = "{0, 10}";
target = "{0, 22}";
}
);
layerId = "72FD83BD-A9F6-48B4-8CEA-331AE6F11CF9";
paths = (
{
closed = 1;
nodes = (
"450 600 OFFCURVE",
"376 543 OFFCURVE",
"338 447 CURVE",
"256 478 LINE",
"258 114 LINE",
"293 296 OFFCURVE",
"373 428 OFFCURVE",
"448 428 CURVE SMOOTH",
"497 428 OFFCURVE",
"526 391 OFFCURVE",
"526 326 CURVE SMOOTH",
"526 192 OFFCURVE",
"401 91 OFFCURVE",
"234 91 CURVE",
"234 58 OFFCURVE",
"238 28 OFFCURVE",
"246 8 CURVE",
"269 3 OFFCURVE",
"298 0 OFFCURVE",
"325 0 CURVE SMOOTH",
"562 0 OFFCURVE",
"724 148 OFFCURVE",
"724 365 CURVE SMOOTH",
"724 507 OFFCURVE",
"650 600 OFFCURVE",
"537 600 CURVE SMOOTH"
);
},
{
closed = 1;
nodes = (
"195 -200 OFFCURVE",
"243 -181 OFFCURVE",
"277 -151 CURVE",
"253 -122 OFFCURVE",
"246 -97 OFFCURVE",
"246 -43 CURVE SMOOTH",
"246 182 OFFCURVE",
"335 430 OFFCURVE",
"335 529 CURVE SMOOTH",
"335 580 OFFCURVE",
"311 600 OFFCURVE",
"250 600 CURVE SMOOTH",
"195 600 OFFCURVE",
"126 573 OFFCURVE",
"63 527 CURVE",
"119 447 LINE",
"75 206 OFFCURVE",
"40 -27 OFFCURVE",
"40 -76 CURVE SMOOTH",
"40 -162 OFFCURVE",
"74 -200 OFFCURVE",
"153 -200 CURVE SMOOTH"
);
}
);
width = 763;
}
);
leftKerningGroup = p;
leftMetricsKey = n;
rightKerningGroup = o;
rightMetricsKey = "=|a";
unicode = 0070;
},
{
color = 10;
glyphname = thorn;
lastChange = "2015-10-18 16:59:44 +0000";
layers = (
{
hints = (
{
horizontal = 1;
origin = "{1, 25}";
target = "{1, 19}";
},
{
horizontal = 1;
origin = "{1, 5}";
target = "{1, 13}";
},
{
origin = "{0, 18}";
target = "{0, 5}";
},
{
origin = "{1, 16}";
target = "{1, 2}";
}
);
layerId = "833A345D-F5FC-4136-BC05-A08F75A897C3";
paths = (
{
closed = 1;
nodes = (
"157 -200 OFFCURVE",
"177 -190 OFFCURVE",
"192 -177 CURVE",
"180 -168 OFFCURVE",
"174 -142 OFFCURVE",
"174 -129 CURVE SMOOTH",
"174 152 OFFCURVE",
"306 586 OFFCURVE",
"306 724 CURVE SMOOTH",
"306 762 OFFCURVE",
"293 775 OFFCURVE",
"262 775 CURVE SMOOTH",
"234 775 OFFCURVE",
"192 763 OFFCURVE",
"165 740 CURVE",
"206 697 LINE",
"151 395 OFFCURVE",
"79 -69 OFFCURVE",
"79 -137 CURVE SMOOTH",
"79 -180 OFFCURVE",
"99 -200 OFFCURVE",
"129 -200 CURVE SMOOTH"
);
},
{
closed = 1;
nodes = (
"488 0 OFFCURVE",
"657 163 OFFCURVE",
"657 365 CURVE SMOOTH",
"657 507 OFFCURVE",
"585 600 OFFCURVE",
"476 600 CURVE SMOOTH",
"392 600 OFFCURVE",
"315 540 OFFCURVE",
"265 434 CURVE",
"221 474 LINE",
"190 89 LINE",
"250 374 OFFCURVE",
"327 526 OFFCURVE",
"438 526 CURVE SMOOTH",
"511 526 OFFCURVE",
"554 469 OFFCURVE",
"554 371 CURVE SMOOTH",
"554 174 OFFCURVE",
"402 46 OFFCURVE",
"167 46 CURVE",
"167 33 OFFCURVE",
"171 21 OFFCURVE",
"179 8 CURVE",
"208 3 OFFCURVE",
"243 0 OFFCURVE",
"278 0 CURVE SMOOTH"
);
}
);
width = 741;
},
{
hints = (
{
horizontal = 1;
origin = "{1, 25}";
target = "{1, 19}";
},
{
horizontal = 1;
origin = "{1, 5}";
target = "{1, 13}";
},
{
origin = "{0, 18}";
target = "{0, 5}";
},
{
origin = "{1, 16}";
target = "{1, 2}";
}
);
layerId = "72FD83BD-A9F6-48B4-8CEA-331AE6F11CF9";
paths = (
{
closed = 1;
nodes = (
"193 -200 OFFCURVE",
"242 -184 OFFCURVE",
"279 -151 CURVE",
"261 -129 OFFCURVE",
"248 -110 OFFCURVE",
"248 -43 CURVE SMOOTH",
"248 251 OFFCURVE",
"365 493 OFFCURVE",
"365 704 CURVE SMOOTH",
"365 754 OFFCURVE",
"343 775 OFFCURVE",
"280 775 CURVE SMOOTH",
"219 775 OFFCURVE",
"149 743 OFFCURVE",
"93 702 CURVE",
"149 622 LINE",
"114 420 OFFCURVE",
"42 20 OFFCURVE",
"42 -56 CURVE SMOOTH",
"42 -153 OFFCURVE",
"74 -200 OFFCURVE",
"155 -200 CURVE SMOOTH"
);
},
{
closed = 1;
nodes = (
"564 0 OFFCURVE",
"726 148 OFFCURVE",
"726 365 CURVE SMOOTH",
"726 507 OFFCURVE",
"652 600 OFFCURVE",
"539 600 CURVE SMOOTH",
"452 600 OFFCURVE",
"378 543 OFFCURVE",
"340 447 CURVE",
"258 478 LINE",
"260 114 LINE",
"295 296 OFFCURVE",
"375 428 OFFCURVE",
"450 428 CURVE SMOOTH",
"499 428 OFFCURVE",
"528 391 OFFCURVE",
"528 326 CURVE SMOOTH",
"528 192 OFFCURVE",
"403 91 OFFCURVE",
"236 91 CURVE",
"236 58 OFFCURVE",
"240 28 OFFCURVE",
"248 8 CURVE",
"271 3 OFFCURVE",
"300 0 OFFCURVE",
"327 0 CURVE SMOOTH"
);
}
);
width = 765;
}
);
leftKerningGroup = h;
leftMetricsKey = l;
rightKerningGroup = o;
rightMetricsKey = p;
unicode = 00FE;
},
{
color = 10;
glyphname = q;
lastChange = "2015-10-18 16:59:44 +0000";
layers = (
{
hints = (
{
place = "{60, 283.5}";
},
{
place = "{580.5, 333}";
},
{
horizontal = 1;
place = "{-37.5, 225}";
},
{
horizontal = 1;
place = "{759, 141}";
},
{
horizontal = 1;
place = "{-298.5, 21}";
target = up;
type = BottomGhost;
}
);
layerId = "833A345D-F5FC-4136-BC05-A08F75A897C3";
paths = (
{
closed = 1;
nodes = (
"658 562 OFFCURVE",
"639 575 OFFCURVE",
"609 575 CURVE SMOOTH",
"599 575 OFFCURVE",
"577 571 OFFCURVE",
"562 554 CURVE",
"562 252 OFFCURVE",
"434 50 OFFCURVE",
"304 50 CURVE SMOOTH",
"231 50 OFFCURVE",
"189 106 OFFCURVE",
"189 204 CURVE SMOOTH",
"189 403 OFFCURVE",
"325 554 OFFCURVE",
"575 554 CURVE",
"575 567 OFFCURVE",
"571 579 OFFCURVE",
"563 592 CURVE",
"534 597 OFFCURVE",
"499 600 OFFCURVE",
"465 600 CURVE SMOOTH",
"255 600 OFFCURVE",
"85 427 OFFCURVE",
"85 210 CURVE SMOOTH",
"85 68 OFFCURVE",
"158 -25 OFFCURVE",
"266 -25 CURVE SMOOTH",
"350 -25 OFFCURVE",
"427 28 OFFCURVE",
"477 121 CURVE",
"487 116 LINE",
"461 -11 OFFCURVE",
"434 -109 OFFCURVE",
"434 -148 CURVE SMOOTH",
"434 -186 OFFCURVE",
"447 -199 OFFCURVE",
"478 -199 CURVE SMOOTH",
"506 -199 OFFCURVE",
"548 -187 OFFCURVE",
"575 -164 CURVE",
"534 -121 LINE",
"588 171 OFFCURVE",
"658 470 OFFCURVE",
"658 538 CURVE SMOOTH"
);
}
);
width = 737;
},
{
hints = (
{
place = "{40, 189}";
},
{
place = "{387, 222}";
},
{
horizontal = 1;
place = "{-25, 150}";
},
{
horizontal = 1;
place = "{506, 94}";
},
{
horizontal = 1;
place = "{-199, 21}";
target = up;
type = BottomGhost;
}
);
layerId = "72FD83BD-A9F6-48B4-8CEA-331AE6F11CF9";
paths = (
{
closed = 1;
nodes = (
"701 547 OFFCURVE",
"675 575 OFFCURVE",
"628 575 CURVE SMOOTH",
"575 575 OFFCURVE",
"533 554 OFFCURVE",
"497 509 CURVE",
"497 288 OFFCURVE",
"414 147 OFFCURVE",
"316 147 CURVE SMOOTH",
"267 147 OFFCURVE",
"238 184 OFFCURVE",
"238 249 CURVE SMOOTH",
"238 391 OFFCURVE",
"370 509 OFFCURVE",
"530 509 CURVE",
"530 544 OFFCURVE",
"526 574 OFFCURVE",
"518 592 CURVE",
"495 597 OFFCURVE",
"466 600 OFFCURVE",
"439 600 CURVE SMOOTH",
"202 600 OFFCURVE",
"40 442 OFFCURVE",
"40 210 CURVE SMOOTH",
"40 68 OFFCURVE",
"114 -25 OFFCURVE",
"227 -25 CURVE SMOOTH",
"314 -25 OFFCURVE",
"389 32 OFFCURVE",
"427 128 CURVE",
"437 123 LINE",
"413 15 OFFCURVE",
"387 -77 OFFCURVE",
"387 -128 CURVE SMOOTH",
"387 -178 OFFCURVE",
"409 -199 OFFCURVE",
"472 -199 CURVE SMOOTH",
"533 -199 OFFCURVE",
"603 -167 OFFCURVE",
"659 -126 CURVE",
"603 -46 LINE",
"645 216 OFFCURVE",
"701 414 OFFCURVE",
"701 496 CURVE SMOOTH"
);
}
);
width = 737;
}
);
leftKerningGroup = o;
leftMetricsKey = a;
rightKerningGroup = q;
unicode = 0071;
},
{
color = 10;
glyphname = r;
lastChange = "2016-03-09 00:42:31 +0000";
layers = (
{
anchors = (
{
name = bottom;
position = "{125, 0}";
},
{
name = top;
position = "{347, 575}";
}
);
hints = (
{
horizontal = 1;
origin = "{0, 14}";
target = "{0, 8}";
},
{
origin = "{0, 31}";
target = "{0, 5}";
}
);
layerId = "833A345D-F5FC-4136-BC05-A08F75A897C3";
paths = (
{
closed = 1;
nodes = (
"190 -25 OFFCURVE",
"207 -17 OFFCURVE",
"222 -2 CURVE",
"215 6 OFFCURVE",
"212 21 OFFCURVE",
"212 40 CURVE SMOOTH",
"212 262 OFFCURVE",
"328 491 OFFCURVE",
"439 491 CURVE SMOOTH",
"487 491 OFFCURVE",
"524 513 OFFCURVE",
"524 552 CURVE SMOOTH",
"524 587 OFFCURVE",
"505 601 OFFCURVE",
"466 601 CURVE SMOOTH",
"408 601 OFFCURVE",
"334 538 OFFCURVE",
"267 383 CURVE",
"257 388 LINE",
"283 450 OFFCURVE",
"300 502 OFFCURVE",
"300 547 CURVE SMOOTH",
"300 571 OFFCURVE",
"289 596 OFFCURVE",
"254 596 CURVE SMOOTH",
"230 596 OFFCURVE",
"199 580 OFFCURVE",
"166 552 CURVE",
"208 509 LINE",
"163 342 OFFCURVE",
"115 104 OFFCURVE",
"115 48 CURVE SMOOTH",
"115 -4 OFFCURVE",
"135 -25 OFFCURVE",
"171 -25 CURVE SMOOTH"
);
}
);
width = 479;
},
{
anchors = (
{
name = bottom;
position = "{103, 0}";
},
{
name = top;
position = "{336, 575}";
}
);
hints = (
{
horizontal = 1;
origin = "{0, 14}";
target = "{0, 8}";
},
{
origin = "{0, 31}";
target = "{0, 5}";
}
);
layerId = "72FD83BD-A9F6-48B4-8CEA-331AE6F11CF9";
paths = (
{
closed = 1;
nodes = (
"210 -25 OFFCURVE",
"247 -9 OFFCURVE",
"283 24 CURVE",
"270 42 OFFCURVE",
"262 75 OFFCURVE",
"262 115 CURVE SMOOTH",
"262 265 OFFCURVE",
"335 380 OFFCURVE",
"431 380 CURVE SMOOTH",
"516 380 OFFCURVE",
"559 433 OFFCURVE",
"559 501 CURVE SMOOTH",
"559 561 OFFCURVE",
"521 599 OFFCURVE",
"459 599 CURVE SMOOTH",
"359 599 OFFCURVE",
"317 514 OFFCURVE",
"271 386 CURVE",
"261 391 LINE",
"278 436 OFFCURVE",
"293 478 OFFCURVE",
"293 524 CURVE SMOOTH",
"293 571 OFFCURVE",
"267 600 OFFCURVE",
"211 600 CURVE SMOOTH",
"159 600 OFFCURVE",
"111 575 OFFCURVE",
"66 544 CURVE",
"119 464 LINE",
"87 325 OFFCURVE",
"56 147 OFFCURVE",
"56 99 CURVE SMOOTH",
"56 19 OFFCURVE",
"89 -25 OFFCURVE",
"173 -25 CURVE SMOOTH"
);
}
);
width = 544;
}
);
leftKerningGroup = n;
leftMetricsKey = n;
rightKerningGroup = r;
unicode = 0072;
},
{
color = 10;
glyphname = s;
lastChange = "2015-10-18 16:59:44 +0000";
layers = (
{
anchors = (
{
name = bottom;
position = "{268, 0}";
},
{
name = top;
position = "{360, 575}";
}
);
hints = (
{
horizontal = 1;
origin = "{0, 35}";
target = "{0, 26}";
},
{
horizontal = 1;
origin = "{0, 17}";
target = "{0, 8}";
},
{
origin = "{0, 20}";
target = "{0, 5}";
},
{
origin = "{0, 23}";
target = "{0, 2}";
}
);
layerId = "833A345D-F5FC-4136-BC05-A08F75A897C3";
paths = (
{
closed = 1;
nodes = (
"441 -25 OFFCURVE",
"523 65 OFFCURVE",
"523 160 CURVE SMOOTH",
"523 339 OFFCURVE",
"189 319 OFFCURVE",
"189 426 CURVE SMOOTH",
"189 484 OFFCURVE",
"258 532 OFFCURVE",
"382 546 CURVE",
"398 488 OFFCURVE",
"430 454 OFFCURVE",
"481 454 CURVE SMOOTH",
"529 454 OFFCURVE",
"562 476 OFFCURVE",
"562 523 CURVE SMOOTH",
"562 569 OFFCURVE",
"488 600 OFFCURVE",
"390 600 CURVE SMOOTH",
"211 600 OFFCURVE",
"97 518 OFFCURVE",
"97 416 CURVE SMOOTH",
"97 232 OFFCURVE",
"432 260 OFFCURVE",
"432 145 CURVE SMOOTH",
"432 68 OFFCURVE",
"366 28 OFFCURVE",
"258 28 CURVE SMOOTH",
"196 28 OFFCURVE",
"136 63 OFFCURVE",
"103 131 CURVE",
"76 118 OFFCURVE",
"59 96 OFFCURVE",
"59 72 CURVE SMOOTH",
"59 8 OFFCURVE",
"147 -25 OFFCURVE",
"263 -25 CURVE SMOOTH"
);
}
);
width = 611;
},
{
anchors = (
{
name = bottom;
position = "{278, 0}";
},
{
name = top;
position = "{370, 575}";
}
);
hints = (
{
horizontal = 1;
origin = "{0, 35}";
target = "{0, 26}";
},
{
horizontal = 1;
origin = "{0, 17}";
target = "{0, 8}";
},
{
origin = "{0, 20}";
target = "{0, 5}";
},
{
origin = "{0, 23}";
target = "{0, 2}";
}
);
layerId = "72FD83BD-A9F6-48B4-8CEA-331AE6F11CF9";
paths = (
{
closed = 1;
nodes = (
"399 -25 OFFCURVE",
"574 26 OFFCURVE",
"574 170 CURVE SMOOTH",
"574 369 OFFCURVE",
"265 332 OFFCURVE",
"265 417 CURVE SMOOTH",
"265 457 OFFCURVE",
"315 482 OFFCURVE",
"367 487 CURVE",
"396 417 OFFCURVE",
"449 385 OFFCURVE",
"502 385 CURVE SMOOTH",
"559 385 OFFCURVE",
"611 420 OFFCURVE",
"611 482 CURVE SMOOTH",
"611 551 OFFCURVE",
"527 600 OFFCURVE",
"384 600 CURVE SMOOTH",
"217 600 OFFCURVE",
"64 542 OFFCURVE",
"64 393 CURVE SMOOTH",
"64 205 OFFCURVE",
"373 228 OFFCURVE",
"373 157 CURVE SMOOTH",
"373 114 OFFCURVE",
"303 97 OFFCURVE",
"270 97 CURVE SMOOTH",
"182 97 OFFCURVE",
"124 138 OFFCURVE",
"89 201 CURVE",
"52 173 OFFCURVE",
"32 132 OFFCURVE",
"32 99 CURVE SMOOTH",
"32 29 OFFCURVE",
"96 -25 OFFCURVE",
"281 -25 CURVE SMOOTH"
);
}
);
width = 645;
}
);
leftKerningGroup = s;
rightKerningGroup = s;
unicode = 0073;
},
{
color = 10;
glyphname = germandbls;
lastChange = "2015-10-18 16:59:44 +0000";
layers = (
{
hints = (
{
place = "{75, 310.5}";
},
{
place = "{783, 222}";
},
{
place = "{811.5, 261}";
},
{
horizontal = 1;
place = "{937.5, 225}";
},
{
horizontal = 1;
place = "{-315, 21}";
target = up;
type = BottomGhost;
},
{
horizontal = 1;
origin = "{1, 14}";
target = "{1, 15}";
}
);
layerId = "833A345D-F5FC-4136-BC05-A08F75A897C3";
paths = (
{
closed = 1;
nodes = (
"163 -210 OFFCURVE",
"190 -201 OFFCURVE",
"204 -187 CURVE",
"191 -176 OFFCURVE",
"185 -156 OFFCURVE",
"185 -130 CURVE SMOOTH",
"185 -77 OFFCURVE",
"216 132 OFFCURVE",
"272 442 CURVE SMOOTH",
"308 619 OFFCURVE",
"351 676 OFFCURVE",
"449 676 CURVE SMOOTH",
"516 676 OFFCURVE",
"563 627 OFFCURVE",
"563 557 CURVE SMOOTH",
"563 486 OFFCURVE",
"514 416 OFFCURVE",
"439 379 CURVE",
"509 347 OFFCURVE",
"545 288 OFFCURVE",
"545 203 CURVE SMOOTH",
"545 108 OFFCURVE",
"480 38 OFFCURVE",
"391 38 CURVE SMOOTH",
"337 38 OFFCURVE",
"290 75 OFFCURVE",
"281 123 CURVE",
"256 105 OFFCURVE",
"240 80 OFFCURVE",
"240 58 CURVE SMOOTH",
"240 6 OFFCURVE",
"294 -25 OFFCURVE",
"389 -25 CURVE SMOOTH",
"547 -25 OFFCURVE",
"642 59 OFFCURVE",
"642 197 CURVE SMOOTH",
"642 287 OFFCURVE",
"584 366 OFFCURVE",
"502 389 CURVE",
"604 435 OFFCURVE",
"656 498 OFFCURVE",
"656 579 CURVE SMOOTH",
"656 666 OFFCURVE",
"572 725 OFFCURVE",
"449 725 CURVE SMOOTH",
"303 725 OFFCURVE",
"210 642 OFFCURVE",
"183 485 CURVE SMOOTH",
"126 155 OFFCURVE",
"90 -76 OFFCURVE",
"90 -129 CURVE SMOOTH",
"90 -185 OFFCURVE",
"104 -210 OFFCURVE",
"139 -210 CURVE SMOOTH"
);
},
{
closed = 1;
nodes = (
"225 421 LINE",
"190 414 OFFCURVE",
"171 412 OFFCURVE",
"140 412 CURVE SMOOTH",
"111 412 OFFCURVE",
"84 415 OFFCURVE",
"67 422 CURVE",
"56 406 OFFCURVE",
"50 390 OFFCURVE",
"50 371 CURVE SMOOTH",
"50 343 OFFCURVE",
"71 329 OFFCURVE",
"112 329 CURVE SMOOTH",
"148 329 OFFCURVE",
"212 338 OFFCURVE",
"238 347 CURVE"
);
}
);
width = 681;
},
{
hints = (
{
place = "{50, 207}";
},
{
place = "{522, 148}";
},
{
place = "{541, 174}";
},
{
horizontal = 1;
place = "{625, 150}";
},
{
horizontal = 1;
place = "{-210, 21}";
target = up;
type = BottomGhost;
},
{
horizontal = 1;
origin = "{1, 14}";
target = "{1, 15}";
}
);
layerId = "72FD83BD-A9F6-48B4-8CEA-331AE6F11CF9";
paths = (
{
closed = 1;
nodes = (
"207 -210 OFFCURVE",
"249 -193 OFFCURVE",
"288 -161 CURVE",
"268 -144 OFFCURVE",
"257 -112 OFFCURVE",
"257 -70 CURVE SMOOTH",
"257 -11 OFFCURVE",
"272 88 OFFCURVE",
"337 442 CURVE SMOOTH",
"355 553 OFFCURVE",
"396 608 OFFCURVE",
"461 608 CURVE SMOOTH",
"507 608 OFFCURVE",
"535 571 OFFCURVE",
"535 512 CURVE SMOOTH",
"535 445 OFFCURVE",
"495 371 OFFCURVE",
"441 340 CURVE",
"499 309 OFFCURVE",
"539 246 OFFCURVE",
"539 188 CURVE SMOOTH",
"539 121 OFFCURVE",
"503 78 OFFCURVE",
"447 78 CURVE SMOOTH",
"408 78 OFFCURVE",
"377 106 OFFCURVE",
"361 156 CURVE",
"325 136 OFFCURVE",
"305 104 OFFCURVE",
"305 67 CURVE SMOOTH",
"305 10 OFFCURVE",
"365 -25 OFFCURVE",
"463 -25 CURVE SMOOTH",
"627 -25 OFFCURVE",
"725 50 OFFCURVE",
"725 176 CURVE SMOOTH",
"725 261 OFFCURVE",
"656 336 OFFCURVE",
"559 357 CURVE",
"648 400 OFFCURVE",
"701 472 OFFCURVE",
"701 550 CURVE SMOOTH",
"701 658 OFFCURVE",
"610 725 OFFCURVE",
"463 725 CURVE SMOOTH",
"279 725 OFFCURVE",
"168 625 OFFCURVE",
"131 423 CURVE SMOOTH",
"78 114 OFFCURVE",
"50 -67 OFFCURVE",
"50 -102 CURVE SMOOTH",
"50 -171 OFFCURVE",
"91 -210 OFFCURVE",
"165 -210 CURVE SMOOTH"
);
},
{
closed = 1;
nodes = (
"232 437 LINE",
"200 429 OFFCURVE",
"181 427 OFFCURVE",
"143 427 CURVE SMOOTH",
"106 427 OFFCURVE",
"66 433 OFFCURVE",
"35 443 CURVE",
"21 418 OFFCURVE",
"14 390 OFFCURVE",
"14 363 CURVE SMOOTH",
"14 314 OFFCURVE",
"38 300 OFFCURVE",
"125 300 CURVE SMOOTH",
"167 300 OFFCURVE",
"215 306 OFFCURVE",
"251 315 CURVE"
);
}
);
width = 735;
}
);
leftKerningGroup = h;
rightKerningGroup = germandbls;
unicode = 00DF;
},
{
color = 10;
glyphname = t;
lastChange = "2015-10-18 16:59:44 +0000";
layers = (
{
anchors = (
{
name = _center;
position = "{294, 488}";
},
{
name = bottom;
position = "{192, 0}";
},
{
name = center;
position = "{246, 259}";
},
{
name = top;
position = "{222, 575}";
},
{
name = topright;
position = "{412, 575}";
}
);
hints = (
{
horizontal = 1;
origin = "{0, 21}";
target = up;
type = BottomGhost;
},
{
origin = "{0, 18}";
target = "{0, 3}";
},
{
origin = "{0, 15}";
target = "{0, 6}";
},
{
horizontal = 1;
origin = "{0, 9}";
target = down;
type = TopGhost;
},
{
horizontal = 1;
origin = "{1, 23}";
target = "{1, 14}";
}
);
layerId = "833A345D-F5FC-4136-BC05-A08F75A897C3";
paths = (
{
closed = 1;
nodes = (
"229 -25 OFFCURVE",
"256 -16 OFFCURVE",
"277 4 CURVE",
"251 48 LINE",
"248 285 OFFCURVE",
"375 547 OFFCURVE",
"375 647 CURVE SMOOTH",
"375 684 OFFCURVE",
"359 698 OFFCURVE",
"326 698 CURVE SMOOTH",
"298 698 OFFCURVE",
"263 687 OFFCURVE",
"246 667 CURVE",
"250 642 OFFCURVE",
"255 614 OFFCURVE",
"255 585 CURVE SMOOTH",
"255 451 OFFCURVE",
"153 196 OFFCURVE",
"153 50 CURVE SMOOTH",
"153 -13 OFFCURVE",
"179 -25 OFFCURVE",
"208 -25 CURVE SMOOTH"
);
},
{
closed = 1;
nodes = (
"232 442 OFFCURVE",
"301 465 OFFCURVE",
"363 465 CURVE SMOOTH",
"387 465 OFFCURVE",
"428 463 OFFCURVE",
"449 457 CURVE",
"462 471 OFFCURVE",
"465 486 OFFCURVE",
"465 499 CURVE SMOOTH",
"465 520 OFFCURVE",
"456 535 OFFCURVE",
"425 535 CURVE SMOOTH",
"358 535 OFFCURVE",
"290 513 OFFCURVE",
"229 513 CURVE SMOOTH",
"203 513 OFFCURVE",
"160 515 OFFCURVE",
"139 521 CURVE",
"126 506 OFFCURVE",
"123 490 OFFCURVE",
"123 477 CURVE SMOOTH",
"123 456 OFFCURVE",
"134 442 OFFCURVE",
"164 442 CURVE SMOOTH"
);
}
);
width = 442;
},
{
anchors = (
{
name = _center;
position = "{279, 488}";
},
{
name = bottom;
position = "{202, 0}";
},
{
name = center;
position = "{232, 257}";
},
{
name = top;
position = "{232, 575}";
},
{
name = topright;
position = "{464, 575}";
}
);
hints = (
{
horizontal = 1;
origin = "{0, 21}";
target = up;
type = BottomGhost;
},
{
origin = "{0, 18}";
target = "{0, 3}";
},
{
origin = "{0, 15}";
target = "{0, 6}";
},
{
horizontal = 1;
origin = "{0, 9}";
target = down;
type = TopGhost;
},
{
horizontal = 1;
origin = "{1, 23}";
target = "{1, 14}";
}
);
layerId = "72FD83BD-A9F6-48B4-8CEA-331AE6F11CF9";
paths = (
{
closed = 1;
nodes = (
"264 -25 OFFCURVE",
"319 -4 OFFCURVE",
"364 38 CURVE",
"308 132 LINE",
"314 355 OFFCURVE",
"408 554 OFFCURVE",
"408 621 CURVE SMOOTH",
"408 675 OFFCURVE",
"388 698 OFFCURVE",
"332 698 CURVE SMOOTH",
"264 698 OFFCURVE",
"200 666 OFFCURVE",
"153 625 CURVE",
"172 579 OFFCURVE",
"177 539 OFFCURVE",
"177 508 CURVE SMOOTH",
"177 442 OFFCURVE",
"101 227 OFFCURVE",
"101 102 CURVE SMOOTH",
"101 -4 OFFCURVE",
"154 -25 OFFCURVE",
"216 -25 CURVE SMOOTH"
);
},
{
closed = 1;
nodes = (
"217 424 OFFCURVE",
"295 445 OFFCURVE",
"379 445 CURVE SMOOTH",
"412 445 OFFCURVE",
"446 440 OFFCURVE",
"473 431 CURVE",
"483 456 OFFCURVE",
"489 480 OFFCURVE",
"489 499 CURVE SMOOTH",
"489 541 OFFCURVE",
"474 553 OFFCURVE",
"420 553 CURVE SMOOTH",
"341 553 OFFCURVE",
"263 532 OFFCURVE",
"179 532 CURVE SMOOTH",
"146 532 OFFCURVE",
"112 537 OFFCURVE",
"85 545 CURVE",
"75 521 OFFCURVE",
"69 497 OFFCURVE",
"69 477 CURVE SMOOTH",
"69 436 OFFCURVE",
"84 424 OFFCURVE",
"138 424 CURVE SMOOTH"
);
}
);
width = 464;
}
);
leftKerningGroup = t;
rightKerningGroup = t;
unicode = 0074;
},
{
color = 10;
glyphname = u;
lastChange = "2015-10-18 16:59:44 +0000";
layers = (
{
anchors = (
{
name = bottom;
position = "{318, 0}";
},
{
name = ogonek;
position = "{572, -3}";
},
{
name = top;
position = "{420, 575}";
},
{
name = topright;
position = "{603, 600}";
}
);
hints = (
{
horizontal = 1;
origin = "{0, 28}";
target = "{0, 7}";
},
{
origin = "{1, 15}";
target = "{1, 8}";
},
{
origin = "{0, 22}";
target = "{0, 13}";
}
);
layerId = "833A345D-F5FC-4136-BC05-A08F75A897C3";
paths = (
{
closed = 1;
nodes = (
"328 -25 OFFCURVE",
"409 17 OFFCURVE",
"450 78 CURVE",
"480 62 LINE",
"493 212 LINE",
"453 103 OFFCURVE",
"380 37 OFFCURVE",
"297 37 CURVE SMOOTH",
"231 37 OFFCURVE",
"194 80 OFFCURVE",
"194 162 CURVE SMOOTH",
"194 231 OFFCURVE",
"257 464 OFFCURVE",
"257 537 CURVE SMOOTH",
"257 582 OFFCURVE",
"241 600 OFFCURVE",
"206 600 CURVE SMOOTH",
"192 600 OFFCURVE",
"168 591 OFFCURVE",
"148 578 CURVE",
"153 557 OFFCURVE",
"157 532 OFFCURVE",
"157 505 CURVE SMOOTH",
"157 408 OFFCURVE",
"105 257 OFFCURVE",
"105 137 CURVE SMOOTH",
"105 27 OFFCURVE",
"156 -25 OFFCURVE",
"266 -25 CURVE SMOOTH"
);
},
{
closed = 1;
nodes = (
"537 -25 OFFCURVE",
"554 -19 OFFCURVE",
"571 -3 CURVE",
"562 5 OFFCURVE",
"557 19 OFFCURVE",
"557 40 CURVE SMOOTH",
"557 201 OFFCURVE",
"652 529 OFFCURVE",
"652 550 CURVE SMOOTH",
"652 587 OFFCURVE",
"638 600 OFFCURVE",
"602 600 CURVE SMOOTH",
"569 600 OFFCURVE",
"520 582 OFFCURVE",
"510 566 CURVE",
"547 512 LINE",
"485 244 OFFCURVE",
"460 118 OFFCURVE",
"460 63 CURVE SMOOTH",
"460 2 OFFCURVE",
"478 -25 OFFCURVE",
"515 -25 CURVE SMOOTH"
);
}
);
width = 737;
},
{
anchors = (
{
name = bottom;
position = "{331, 0}";
},
{
name = ogonek;
position = "{681, 24}";
},
{
name = top;
position = "{433, 575}";
},
{
name = topright;
position = "{649, 600}";
}
);
hints = (
{
horizontal = 1;
origin = "{0, 28}";
target = "{0, 7}";
},
{
origin = "{1, 15}";
target = "{1, 8}";
},
{
origin = "{0, 22}";
target = "{0, 13}";
}
);
layerId = "72FD83BD-A9F6-48B4-8CEA-331AE6F11CF9";
paths = (
{
closed = 1;
nodes = (
"308 -25 OFFCURVE",
"382 15 OFFCURVE",
"435 78 CURVE",
"490 51 LINE",
"475 210 LINE",
"442 143 OFFCURVE",
"380 97 OFFCURVE",
"324 97 CURVE SMOOTH",
"277 97 OFFCURVE",
"257 120 OFFCURVE",
"257 172 CURVE SMOOTH",
"257 237 OFFCURVE",
"318 459 OFFCURVE",
"318 529 CURVE SMOOTH",
"318 579 OFFCURVE",
"295 600 OFFCURVE",
"240 600 CURVE SMOOTH",
"204 600 OFFCURVE",
"138 580 OFFCURVE",
"83 551 CURVE",
"96 533 OFFCURVE",
"104 499 OFFCURVE",
"104 460 CURVE SMOOTH",
"104 375 OFFCURVE",
"60 242 OFFCURVE",
"60 137 CURVE SMOOTH",
"60 27 OFFCURVE",
"111 -25 OFFCURVE",
"218 -25 CURVE SMOOTH"
);
},
{
closed = 1;
nodes = (
"603 -25 OFFCURVE",
"644 -8 OFFCURVE",
"681 24 CURVE",
"661 41 OFFCURVE",
"650 73 OFFCURVE",
"650 115 CURVE SMOOTH",
"650 243 OFFCURVE",
"724 476 OFFCURVE",
"724 526 CURVE SMOOTH",
"724 579 OFFCURVE",
"703 600 OFFCURVE",
"649 600 CURVE SMOOTH",
"598 600 OFFCURVE",
"544 580 OFFCURVE",
"452 525 CURVE",
"508 441 LINE",
"466 260 OFFCURVE",
"444 143 OFFCURVE",
"444 99 CURVE SMOOTH",
"444 14 OFFCURVE",
"481 -25 OFFCURVE",
"562 -25 CURVE SMOOTH"
);
}
);
width = 764;
}
);
leftKerningGroup = u;
rightKerningGroup = u;
unicode = 0075;
},
{
color = 10;
glyphname = v;
lastChange = "2015-10-18 16:59:44 +0000";
layers = (
{
hints = (
{
horizontal = 1;
origin = "{0, 2}";
target = "{0, 22}";
},
{
horizontal = 1;
origin = "{0, 28}";
target = down;
type = TopGhost;
},
{
origin = "{0, 34}";
target = "{0, 25}";
},
{
origin = "{0, 18}";
target = "{0, 9}";
}
);
layerId = "833A345D-F5FC-4136-BC05-A08F75A897C3";
paths = (
{
closed = 1;
nodes = (
"148 21 OFFCURVE",
"169 -25 OFFCURVE",
"252 -25 CURVE SMOOTH",
"286 -25 OFFCURVE",
"327 -12 OFFCURVE",
"343 5 CURVE",
"329 29 LINE",
"496 268 OFFCURVE",
"585 445 OFFCURVE",
"585 528 CURVE SMOOTH",
"585 572 OFFCURVE",
"566 600 OFFCURVE",
"538 600 CURVE SMOOTH",
"517 600 OFFCURVE",
"506 597 OFFCURVE",
"471 580 CURVE",
"486 556 OFFCURVE",
"492 529 OFFCURVE",
"492 494 CURVE SMOOTH",
"492 423 OFFCURVE",
"426 293 OFFCURVE",
"253 52 CURVE",
"243 52 LINE",
"243 67 OFFCURVE",
"242 76 OFFCURVE",
"242 275 CURVE SMOOTH",
"242 518 OFFCURVE",
"227 600 OFFCURVE",
"144 600 CURVE SMOOTH",
"122 600 OFFCURVE",
"103 594 OFFCURVE",
"85 580 CURVE",
"164 499 OFFCURVE",
"148 336 OFFCURVE",
"148 178 CURVE SMOOTH"
);
}
);
width = 645;
},
{
hints = (
{
horizontal = 1;
origin = "{0, 2}";
target = "{0, 22}";
},
{
horizontal = 1;
origin = "{0, 28}";
target = down;
type = TopGhost;
},
{
origin = "{0, 34}";
target = "{0, 25}";
},
{
origin = "{0, 18}";
target = "{0, 9}";
}
);
layerId = "72FD83BD-A9F6-48B4-8CEA-331AE6F11CF9";
paths = (
{
closed = 1;
nodes = (
"95 37 OFFCURVE",
"149 -25 OFFCURVE",
"282 -25 CURVE SMOOTH",
"365 -25 OFFCURVE",
"469 14 OFFCURVE",
"530 69 CURVE",
"507 122 LINE",
"647 385 OFFCURVE",
"678 455 OFFCURVE",
"678 516 CURVE SMOOTH",
"678 572 OFFCURVE",
"648 600 OFFCURVE",
"590 600 CURVE SMOOTH",
"545 600 OFFCURVE",
"489 582 OFFCURVE",
"456 557 CURVE",
"469 532 OFFCURVE",
"475 509 OFFCURVE",
"475 482 CURVE SMOOTH",
"475 421 OFFCURVE",
"418 276 OFFCURVE",
"299 97 CURVE",
"289 97 LINE",
"292 161 OFFCURVE",
"294 271 OFFCURVE",
"294 354 CURVE SMOOTH",
"294 545 OFFCURVE",
"243 600 OFFCURVE",
"159 600 CURVE SMOOTH",
"116 600 OFFCURVE",
"77 586 OFFCURVE",
"40 557 CURVE",
"108 487 OFFCURVE",
"95 355 OFFCURVE",
"95 190 CURVE SMOOTH"
);
}
);
width = 703;
}
);
leftKerningGroup = v;
rightKerningGroup = v;
unicode = 0076;
},
{
color = 10;
glyphname = w;
lastChange = "2015-10-18 16:59:44 +0000";
layers = (
{
anchors = (
{
name = bottom;
position = "{402, 0}";
},
{
name = top;
position = "{504, 575}";
}
);
hints = (
{
horizontal = 1;
origin = "{0, 2}";
target = "{0, 21}";
},
{
origin = "{0, 33}";
target = "{0, 24}";
},
{
origin = "{0, 17}";
target = "{0, 8}";
},
{
origin = "{1, 18}";
target = "{1, 9}";
}
);
layerId = "833A345D-F5FC-4136-BC05-A08F75A897C3";
paths = (
{
closed = 1;
nodes = (
"151 -4 OFFCURVE",
"161 -25 OFFCURVE",
"205 -25 CURVE SMOOTH",
"267 -25 OFFCURVE",
"318 12 OFFCURVE",
"438 232 CURVE SMOOTH",
"519 380 OFFCURVE",
"555 439 OFFCURVE",
"555 503 CURVE SMOOTH",
"555 544 OFFCURVE",
"533 570 OFFCURVE",
"500 570 CURVE SMOOTH",
"480 570 OFFCURVE",
"464 567 OFFCURVE",
"436 550 CURVE",
"441 539 OFFCURVE",
"478 502 OFFCURVE",
"478 483 CURVE SMOOTH",
"478 488 OFFCURVE",
"443 301 OFFCURVE",
"251 52 CURVE",
"241 52 LINE",
"243 67 OFFCURVE",
"242 76 OFFCURVE",
"242 275 CURVE SMOOTH",
"242 518 OFFCURVE",
"227 600 OFFCURVE",
"144 600 CURVE SMOOTH",
"122 600 OFFCURVE",
"103 594 OFFCURVE",
"85 580 CURVE",
"167 480 OFFCURVE",
"151 277 OFFCURVE",
"151 79 CURVE SMOOTH"
);
},
{
closed = 1;
nodes = (
"472 31 OFFCURVE",
"483 -25 OFFCURVE",
"549 -25 CURVE SMOOTH",
"581 -25 OFFCURVE",
"620 -12 OFFCURVE",
"637 5 CURVE",
"623 29 LINE",
"766 268 OFFCURVE",
"844 445 OFFCURVE",
"844 528 CURVE SMOOTH",
"844 572 OFFCURVE",
"825 600 OFFCURVE",
"797 600 CURVE SMOOTH",
"774 600 OFFCURVE",
"763 597 OFFCURVE",
"730 580 CURVE",
"745 556 OFFCURVE",
"751 529 OFFCURVE",
"751 494 CURVE SMOOTH",
"751 423 OFFCURVE",
"695 293 OFFCURVE",
"547 52 CURVE",
"537 52 LINE",
"523 509 LINE",
"500 570 LINE",
"469 570 OFFCURVE",
"447 560 OFFCURVE",
"437 546 CURVE",
"468 96 LINE SMOOTH"
);
}
);
width = 904;
},
{
anchors = (
{
name = bottom;
position = "{427, 0}";
},
{
name = top;
position = "{529, 575}";
}
);
hints = (
{
horizontal = 1;
origin = "{0, 2}";
target = "{0, 21}";
},
{
origin = "{0, 33}";
target = "{0, 24}";
},
{
origin = "{0, 17}";
target = "{0, 8}";
},
{
origin = "{1, 18}";
target = "{1, 9}";
}
);
layerId = "72FD83BD-A9F6-48B4-8CEA-331AE6F11CF9";
paths = (
{
closed = 1;
nodes = (
"95 37 OFFCURVE",
"137 -25 OFFCURVE",
"242 -25 CURVE SMOOTH",
"357 -25 OFFCURVE",
"414 52 OFFCURVE",
"474 143 CURVE SMOOTH",
"531 237 OFFCURVE",
"588 383 OFFCURVE",
"588 476 CURVE SMOOTH",
"588 539 OFFCURVE",
"558 570 OFFCURVE",
"500 570 CURVE SMOOTH",
"478 570 OFFCURVE",
"452 552 OFFCURVE",
"436 527 CURVE",
"447 494 OFFCURVE",
"452 464 OFFCURVE",
"452 429 CURVE SMOOTH",
"452 372 OFFCURVE",
"416 212 OFFCURVE",
"302 97 CURVE",
"292 97 LINE",
"292 161 OFFCURVE",
"294 271 OFFCURVE",
"294 354 CURVE SMOOTH",
"294 545 OFFCURVE",
"243 600 OFFCURVE",
"159 600 CURVE SMOOTH",
"116 600 OFFCURVE",
"77 586 OFFCURVE",
"40 557 CURVE",
"108 487 OFFCURVE",
"95 355 OFFCURVE",
"95 190 CURVE SMOOTH"
);
},
{
closed = 1;
nodes = (
"451 37 OFFCURVE",
"484 -25 OFFCURVE",
"595 -25 CURVE SMOOTH",
"665 -25 OFFCURVE",
"752 14 OFFCURVE",
"803 69 CURVE",
"780 122 LINE",
"904 385 OFFCURVE",
"931 455 OFFCURVE",
"931 516 CURVE SMOOTH",
"931 572 OFFCURVE",
"901 600 OFFCURVE",
"843 600 CURVE SMOOTH",
"798 600 OFFCURVE",
"742 582 OFFCURVE",
"709 557 CURVE",
"722 532 OFFCURVE",
"728 509 OFFCURVE",
"728 482 CURVE SMOOTH",
"728 421 OFFCURVE",
"677 276 OFFCURVE",
"572 97 CURVE",
"562 97 LINE",
"538 512 LINE",
"500 570 LINE",
"482 570 OFFCURVE",
"447 564 OFFCURVE",
"407 535 CURVE",
"438 190 LINE SMOOTH"
);
}
);
width = 956;
}
);
leftKerningGroup = w;
rightKerningGroup = w;
unicode = 0077;
},
{
color = 10;
glyphname = x;
lastChange = "2015-10-18 16:59:44 +0000";
layers = (
{
hints = (
{
horizontal = 1;
origin = "{1, 16}";
target = up;
type = BottomGhost;
},
{
horizontal = 1;
origin = "{2, 6}";
target = down;
type = TopGhost;
},
{
horizontal = 1;
origin = "{0, 9}";
target = down;
type = TopGhost;
},
{
origin = "{1, 13}";
target = "{1, 5}";
},
{
origin = "{2, 12}";
target = "{2, 3}";
}
);
layerId = "833A345D-F5FC-4136-BC05-A08F75A897C3";
paths = (
{
closed = 1;
nodes = (
"552 -25 OFFCURVE",
"584 -6 OFFCURVE",
"602 24 CURVE",
"553 42 OFFCURVE",
"520 66 OFFCURVE",
"473 146 CURVE SMOOTH",
"287 485 LINE SMOOTH",
"245 570 OFFCURVE",
"212 600 OFFCURVE",
"163 600 CURVE SMOOTH",
"132 600 OFFCURVE",
"100 581 OFFCURVE",
"82 550 CURVE",
"132 532 OFFCURVE",
"164 509 OFFCURVE",
"211 429 CURVE SMOOTH",
"398 89 LINE SMOOTH",
"440 6 OFFCURVE",
"473 -25 OFFCURVE",
"522 -25 CURVE SMOOTH"
);
},
{
closed = 1;
nodes = (
"119 -25 OFFCURVE",
"144 -13 OFFCURVE",
"151 -5 CURVE",
"146 6 OFFCURVE",
"143 17 OFFCURVE",
"143 31 CURVE SMOOTH",
"143 84 OFFCURVE",
"197 160 OFFCURVE",
"341 259 CURVE",
"315 307 LINE",
"180 198 LINE SMOOTH",
"66 108 OFFCURVE",
"45 70 OFFCURVE",
"45 35 CURVE SMOOTH",
"45 -1 OFFCURVE",
"64 -25 OFFCURVE",
"95 -25 CURVE SMOOTH"
);
},
{
closed = 1;
nodes = (
"495 378 LINE SMOOTH",
"609 467 OFFCURVE",
"630 507 OFFCURVE",
"630 540 CURVE SMOOTH",
"630 577 OFFCURVE",
"611 601 OFFCURVE",
"580 601 CURVE SMOOTH",
"556 601 OFFCURVE",
"531 589 OFFCURVE",
"524 580 CURVE",
"529 570 OFFCURVE",
"532 559 OFFCURVE",
"532 544 CURVE SMOOTH",
"532 491 OFFCURVE",
"478 416 OFFCURVE",
"334 317 CURVE",
"360 269 LINE"
);
}
);
width = 640;
},
{
hints = (
{
horizontal = 1;
origin = "{1, 16}";
target = up;
type = BottomGhost;
},
{
horizontal = 1;
origin = "{2, 6}";
target = down;
type = TopGhost;
},
{
horizontal = 1;
origin = "{0, 9}";
target = down;
type = TopGhost;
},
{
origin = "{1, 13}";
target = "{1, 5}";
},
{
origin = "{2, 12}";
target = "{2, 3}";
}
);
layerId = "72FD83BD-A9F6-48B4-8CEA-331AE6F11CF9";
paths = (
{
closed = 1;
nodes = (
"557 -25 OFFCURVE",
"610 6 OFFCURVE",
"652 69 CURVE",
"577 99 OFFCURVE",
"537 154 OFFCURVE",
"511 210 CURVE SMOOTH",
"362 485 LINE SMOOTH",
"314 574 OFFCURVE",
"281 600 OFFCURVE",
"220 600 CURVE SMOOTH",
"152 600 OFFCURVE",
"99 569 OFFCURVE",
"57 505 CURVE",
"132 475 OFFCURVE",
"172 420 OFFCURVE",
"198 364 CURVE SMOOTH",
"347 89 LINE SMOOTH",
"395 1 OFFCURVE",
"428 -25 OFFCURVE",
"489 -25 CURVE SMOOTH"
);
},
{
closed = 1;
nodes = (
"149 -25 OFFCURVE",
"193 -11 OFFCURVE",
"241 18 CURVE",
"236 31 OFFCURVE",
"233 45 OFFCURVE",
"233 64 CURVE SMOOTH",
"233 114 OFFCURVE",
"279 170 OFFCURVE",
"363 224 CURVE",
"297 338 LINE",
"204 283 LINE SMOOTH",
"75 207 OFFCURVE",
"15 140 OFFCURVE",
"15 71 CURVE SMOOTH",
"15 13 OFFCURVE",
"52 -25 OFFCURVE",
"107 -25 CURVE SMOOTH"
);
},
{
closed = 1;
nodes = (
"495 292 LINE SMOOTH",
"624 368 OFFCURVE",
"684 435 OFFCURVE",
"684 504 CURVE SMOOTH",
"684 563 OFFCURVE",
"647 601 OFFCURVE",
"592 601 CURVE SMOOTH",
"550 601 OFFCURVE",
"506 587 OFFCURVE",
"458 557 CURVE",
"463 544 OFFCURVE",
"466 530 OFFCURVE",
"466 511 CURVE SMOOTH",
"466 461 OFFCURVE",
"420 405 OFFCURVE",
"336 351 CURVE",
"402 237 LINE"
);
}
);
width = 709;
}
);
leftKerningGroup = x;
rightKerningGroup = x;
unicode = 0078;
},
{
color = 10;
glyphname = y;
lastChange = "2015-11-22 21:44:11 +0000";
layers = (
{
anchors = (
{
name = bottom;
position = "{262, -125}";
},
{
name = top;
position = "{376, 575}";
}
);
hints = (
{
horizontal = 1;
origin = "{0, 23}";
target = "{0, 14}";
},
{
horizontal = 1;
origin = "{1, 9}";
target = "{1, 0}";
},
{
horizontal = 1;
origin = "{1, 3}";
target = down;
type = TopGhost;
},
{
place = "{200.415, 195.375}";
},
{
origin = "{0, 11}";
target = "{0, 2}";
}
);
layerId = "833A345D-F5FC-4136-BC05-A08F75A897C3";
paths = (
{
closed = 1;
nodes = (
"408 -200 OFFCURVE",
"626 214 OFFCURVE",
"626 547 CURVE SMOOTH",
"626 590 OFFCURVE",
"606 600 OFFCURVE",
"587 600 CURVE SMOOTH",
"567 600 OFFCURVE",
"559 597 OFFCURVE",
"527 580 CURVE",
"529 566 OFFCURVE",
"529 541 OFFCURVE",
"529 525 CURVE SMOOTH",
"529 12 OFFCURVE",
"214 -131 OFFCURVE",
"85 -131 CURVE SMOOTH",
"6 -131 OFFCURVE",
"-23 -102 OFFCURVE",
"-44 -80 CURVE",
"-50 -93 OFFCURVE",
"-57 -112 OFFCURVE",
"-57 -127 CURVE SMOOTH",
"-57 -169 OFFCURVE",
"-24 -200 OFFCURVE",
"56 -200 CURVE SMOOTH"
);
},
{
closed = 1;
nodes = (
"394 12 LINE",
"121 12 OFFCURVE",
"365 600 OFFCURVE",
"141 600 CURVE SMOOTH",
"121 600 OFFCURVE",
"103 594 OFFCURVE",
"85 580 CURVE",
"231 449 OFFCURVE",
"37 -25 OFFCURVE",
"339 -25 CURVE"
);
}
);
width = 654;
},
{
anchors = (
{
name = bottom;
position = "{280, -200}";
},
{
name = top;
position = "{403, 575}";
}
);
hints = (
{
horizontal = 1;
origin = "{0, 23}";
target = "{0, 14}";
},
{
horizontal = 1;
origin = "{1, 9}";
target = "{1, 0}";
},
{
horizontal = 1;
origin = "{1, 3}";
target = down;
type = TopGhost;
},
{
place = "{133.61, 130.25}";
},
{
origin = "{0, 11}";
target = "{0, 2}";
}
);
layerId = "72FD83BD-A9F6-48B4-8CEA-331AE6F11CF9";
paths = (
{
closed = 1;
nodes = (
"471 -200 OFFCURVE",
"689 296 OFFCURVE",
"689 512 CURVE SMOOTH",
"689 570 OFFCURVE",
"656 600 OFFCURVE",
"592 600 CURVE SMOOTH",
"555 600 OFFCURVE",
"508 582 OFFCURVE",
"481 557 CURVE",
"484 539 OFFCURVE",
"486 518 OFFCURVE",
"486 499 CURVE SMOOTH",
"486 151 OFFCURVE",
"255 -51 OFFCURVE",
"112 -51 CURVE SMOOTH",
"44 -51 OFFCURVE",
"5 -21 OFFCURVE",
"-15 13 CURVE",
"-39 -4 OFFCURVE",
"-64 -43 OFFCURVE",
"-64 -83 CURVE SMOOTH",
"-64 -158 OFFCURVE",
"-4 -200 OFFCURVE",
"110 -200 CURVE SMOOTH"
);
},
{
closed = 1;
nodes = (
"390 54 LINE",
"183 54 OFFCURVE",
"424 600 OFFCURVE",
"161 600 CURVE SMOOTH",
"118 600 OFFCURVE",
"78 586 OFFCURVE",
"42 557 CURVE",
"179 431 OFFCURVE",
"-24 -25 OFFCURVE",
"284 -25 CURVE"
);
}
);
width = 714;
}
);
leftKerningGroup = y;
rightKerningGroup = y;
unicode = 0079;
},
{
color = 10;
glyphname = z;
lastChange = "2015-10-18 16:59:44 +0000";
layers = (
{
anchors = (
{
name = bottom;
position = "{244, 0}";
},
{
name = top;
position = "{345, 575}";
}
);
hints = (
{
horizontal = 1;
origin = "{1, 21}";
target = "{1, 6}";
},
{
horizontal = 1;
origin = "{2, 17}";
target = "{2, 8}";
},
{
horizontal = 1;
origin = "{2, 5}";
target = down;
type = TopGhost;
}
);
layerId = "833A345D-F5FC-4136-BC05-A08F75A897C3";
paths = (
{
closed = 1;
nodes = (
"498 507 LINE",
"385 482 LINE",
"121 89 LINE",
"205 72 LINE"
);
},
{
closed = 1;
nodes = (
"468 -25 OFFCURVE",
"519 7 OFFCURVE",
"519 52 CURVE SMOOTH",
"519 72 OFFCURVE",
"510 89 OFFCURVE",
"498 106 CURVE",
"407 53 LINE",
"341 53 OFFCURVE",
"212 113 OFFCURVE",
"151 113 CURVE SMOOTH",
"76 112 OFFCURVE",
"40 72 OFFCURVE",
"40 33 CURVE SMOOTH",
"40 7 OFFCURVE",
"57 -18 OFFCURVE",
"89 -18 CURVE SMOOTH",
"121 -18 OFFCURVE",
"145 -6 OFFCURVE",
"178 25 CURVE",
"255 -2 OFFCURVE",
"322 -25 OFFCURVE",
"407 -25 CURVE SMOOTH"
);
},
{
closed = 1;
nodes = (
"504 465 OFFCURVE",
"554 504 OFFCURVE",
"554 551 CURVE SMOOTH",
"554 584 OFFCURVE",
"529 600 OFFCURVE",
"494 600 CURVE SMOOTH",
"457 600 OFFCURVE",
"420 573 OFFCURVE",
"402 530 CURVE",
"341 533 OFFCURVE",
"204 568 OFFCURVE",
"116 605 CURVE",
"108 581 OFFCURVE",
"105 569 OFFCURVE",
"105 559 CURVE SMOOTH",
"105 488 OFFCURVE",
"171 467 OFFCURVE",
"322 465 CURVE SMOOTH"
);
}
);
width = 599;
},
{
anchors = (
{
name = bottom;
position = "{266, 0}";
},
{
name = top;
position = "{367, 575}";
}
);
hints = (
{
horizontal = 1;
origin = "{1, 21}";
target = "{1, 6}";
},
{
horizontal = 1;
origin = "{2, 17}";
target = "{2, 8}";
},
{
horizontal = 1;
origin = "{2, 5}";
target = down;
type = TopGhost;
}
);
layerId = "72FD83BD-A9F6-48B4-8CEA-331AE6F11CF9";
paths = (
{
closed = 1;
nodes = (
"562 453 LINE",
"329 428 LINE",
"73 128 LINE",
"263 90 LINE"
);
},
{
closed = 1;
nodes = (
"507 -25 OFFCURVE",
"579 26 OFFCURVE",
"579 97 CURVE SMOOTH",
"579 133 OFFCURVE",
"570 165 OFFCURVE",
"558 196 CURVE",
"422 143 LINE",
"351 143 OFFCURVE",
"215 203 OFFCURVE",
"151 203 CURVE",
"55 202 OFFCURVE",
"10 138 OFFCURVE",
"10 78 CURVE SMOOTH",
"10 28 OFFCURVE",
"42 -18 OFFCURVE",
"104 -18 CURVE SMOOTH",
"143 -18 OFFCURVE",
"175 -6 OFFCURVE",
"215 25 CURVE",
"285 -2 OFFCURVE",
"346 -25 OFFCURVE",
"422 -25 CURVE SMOOTH"
);
},
{
closed = 1;
nodes = (
"462 375 OFFCURVE",
"599 394 OFFCURVE",
"599 506 CURVE SMOOTH",
"599 560 OFFCURVE",
"565 600 OFFCURVE",
"494 600 CURVE SMOOTH",
"445 600 OFFCURVE",
"400 570 OFFCURVE",
"379 530 CURVE",
"312 533 OFFCURVE",
"175 568 OFFCURVE",
"86 605 CURVE",
"79 564 OFFCURVE",
"75 539 OFFCURVE",
"75 514 CURVE SMOOTH",
"75 423 OFFCURVE",
"126 377 OFFCURVE",
"322 375 CURVE"
);
}
);
width = 614;
}
);
leftKerningGroup = z;
rightKerningGroup = z;
unicode = 007A;
},
{
color = 10;
glyphname = h.alt;
lastChange = "2016-03-09 00:42:37 +0000";
layers = (
{
anchors = (
{
name = bottom;
position = "{357, 0}";
},
{
name = center;
position = "{243, 612}";
},
{
name = top;
position = "{264, 725}";
}
);
hints = (
{
horizontal = 1;
origin = "{0, 29}";
target = "{0, 8}";
},
{
origin = "{0, 46}";
target = "{0, 5}";
},
{
origin = "{0, 14}";
target = "{0, 23}";
}
);
layerId = "833A345D-F5FC-4136-BC05-A08F75A897C3";
paths = (
{
closed = 1;
nodes = (
"162 -25 OFFCURVE",
"180 -18 OFFCURVE",
"196 -2 CURVE",
"189 6 OFFCURVE",
"186 23 OFFCURVE",
"186 40 CURVE SMOOTH",
"186 332 OFFCURVE",
"348 533 OFFCURVE",
"477 533 CURVE SMOOTH",
"526 533 OFFCURVE",
"545 499 OFFCURVE",
"545 442 CURVE SMOOTH",
"545 344 OFFCURVE",
"481 143 OFFCURVE",
"481 33 CURVE SMOOTH",
"481 -5 OFFCURVE",
"497 -25 OFFCURVE",
"536 -25 CURVE SMOOTH",
"554 -25 OFFCURVE",
"571 -18 OFFCURVE",
"588 -2 CURVE",
"581 6 OFFCURVE",
"577 23 OFFCURVE",
"577 40 CURVE SMOOTH",
"577 185 OFFCURVE",
"650 338 OFFCURVE",
"650 464 CURVE SMOOTH",
"650 558 OFFCURVE",
"607 600 OFFCURVE",
"520 600 CURVE SMOOTH",
"437 600 OFFCURVE",
"329 555 OFFCURVE",
"251 413 CURVE",
"241 418 LINE",
"279 595 OFFCURVE",
"307 678 OFFCURVE",
"307 724 CURVE SMOOTH",
"307 762 OFFCURVE",
"294 775 OFFCURVE",
"263 775 CURVE SMOOTH",
"245 775 OFFCURVE",
"222 772 OFFCURVE",
"203 767 CURVE",
"207 697 LINE",
"154 411 OFFCURVE",
"89 102 OFFCURVE",
"89 33 CURVE SMOOTH",
"89 -5 OFFCURVE",
"106 -25 OFFCURVE",
"145 -25 CURVE SMOOTH"
);
}
);
width = 731;
},
{
anchors = (
{
name = bottom;
position = "{377, 0}";
},
{
name = center;
position = "{249, 612}";
},
{
name = top;
position = "{263, 725}";
}
);
hints = (
{
horizontal = 1;
origin = "{0, 29}";
target = "{0, 8}";
},
{
origin = "{0, 46}";
target = "{0, 5}";
},
{
origin = "{0, 14}";
target = "{0, 23}";
}
);
layerId = "72FD83BD-A9F6-48B4-8CEA-331AE6F11CF9";
paths = (
{
closed = 1;
nodes = (
"214 -25 OFFCURVE",
"251 -9 OFFCURVE",
"287 24 CURVE",
"274 42 OFFCURVE",
"266 75 OFFCURVE",
"266 115 CURVE SMOOTH",
"266 309 OFFCURVE",
"407 443 OFFCURVE",
"479 443 CURVE SMOOTH",
"504 443 OFFCURVE",
"513 427 OFFCURVE",
"513 401 CURVE SMOOTH",
"513 329 OFFCURVE",
"453 210 OFFCURVE",
"453 99 CURVE SMOOTH",
"453 19 OFFCURVE",
"486 -25 OFFCURVE",
"570 -25 CURVE SMOOTH",
"607 -25 OFFCURVE",
"644 -9 OFFCURVE",
"680 24 CURVE",
"667 42 OFFCURVE",
"659 75 OFFCURVE",
"659 115 CURVE SMOOTH",
"659 239 OFFCURVE",
"718 371 OFFCURVE",
"718 479 CURVE SMOOTH",
"718 562 OFFCURVE",
"678 600 OFFCURVE",
"597 600 CURVE SMOOTH",
"495 600 OFFCURVE",
"394 535 OFFCURVE",
"313 396 CURVE",
"303 401 LINE",
"329 530 OFFCURVE",
"365 646 OFFCURVE",
"365 704 CURVE SMOOTH",
"365 754 OFFCURVE",
"343 775 OFFCURVE",
"280 775 CURVE SMOOTH",
"232 775 OFFCURVE",
"176 761 OFFCURVE",
"132 744 CURVE",
"149 622 LINE",
"120 466 OFFCURVE",
"60 178 OFFCURVE",
"60 99 CURVE SMOOTH",
"60 19 OFFCURVE",
"93 -25 OFFCURVE",
"177 -25 CURVE SMOOTH"
);
}
);
width = 763;
}
);
leftKerningGroup = h.alt;
leftMetricsKey = "=h+33";
rightKerningGroup = h.alt;
rightMetricsKey = n;
},
{
color = 11;
export = 0;
glyphname = f.alt;
lastChange = "2015-10-18 16:59:44 +0000";
layers = (
{
components = (
{
name = strokeshortcomb;
transform = "{0.85, 0, 0, 0.85, -71, 149}";
}
);
hints = (
{
horizontal = 1;
place = "{663, 0}";
},
{
horizontal = 1;
place = "{1038, 144}";
},
{
horizontal = 1;
place = "{577.5, 85.5}";
},
{
place = "{108, 205.5}";
}
);
layerId = "833A345D-F5FC-4136-BC05-A08F75A897C3";
paths = (
{
closed = 1;
nodes = (
"266 789 OFFCURVE",
"207 558 OFFCURVE",
"183 440 CURVE SMOOTH",
"120 123 OFFCURVE",
"83 -57 OFFCURVE",
"83 -132 CURVE SMOOTH",
"83 -175 OFFCURVE",
"103 -200 OFFCURVE",
"137 -200 CURVE SMOOTH",
"156 -200 OFFCURVE",
"174 -193 OFFCURVE",
"198 -178 CURVE",
"188 -170 OFFCURVE",
"183 -155 OFFCURVE",
"183 -135 CURVE SMOOTH",
"183 -38 OFFCURVE",
"219 196 OFFCURVE",
"268 412 CURVE SMOOTH",
"314 633 OFFCURVE",
"361 720 OFFCURVE",
"481 720 CURVE SMOOTH",
"542 720 OFFCURVE",
"600 698 OFFCURVE",
"615 601 CURVE",
"645 625 OFFCURVE",
"651 656 OFFCURVE",
"651 688 CURVE SMOOTH",
"651 741 OFFCURVE",
"591 789 OFFCURVE",
"490 789 CURVE SMOOTH"
);
}
);
width = 361;
},
{
components = (
{
name = strokeshortcomb;
transform = "{0.85, 0, 0, 0.85, -77, 149}";
}
);
hints = (
{
horizontal = 1;
place = "{442, 0}";
},
{
horizontal = 1;
place = "{692, 96}";
},
{
horizontal = 1;
place = "{385, 57}";
},
{
place = "{72, 137}";
}
);
layerId = "72FD83BD-A9F6-48B4-8CEA-331AE6F11CF9";
paths = (
{
closed = 1;
nodes = (
"272 787 OFFCURVE",
"174 655 OFFCURVE",
"134 446 CURVE SMOOTH",
"78 153 OFFCURVE",
"49 -15 OFFCURVE",
"49 -82 CURVE SMOOTH",
"49 -157 OFFCURVE",
"90 -200 OFFCURVE",
"161 -200 CURVE SMOOTH",
"201 -200 OFFCURVE",
"242 -184 OFFCURVE",
"291 -151 CURVE",
"271 -134 OFFCURVE",
"260 -102 OFFCURVE",
"260 -60 CURVE SMOOTH",
"260 37 OFFCURVE",
"305 280 OFFCURVE",
"345 502 CURVE SMOOTH",
"367 624 OFFCURVE",
"399 666 OFFCURVE",
"460 666 CURVE SMOOTH",
"506 666 OFFCURVE",
"537 630 OFFCURVE",
"545 580 CURVE",
"612 586 OFFCURVE",
"647 626 OFFCURVE",
"647 668 CURVE SMOOTH",
"647 735 OFFCURVE",
"582 787 OFFCURVE",
"469 787 CURVE SMOOTH"
);
}
);
width = 427;
}
);
leftKerningGroup = f.alt;
rightKerningGroup = f.alt;
},
